<?xml version="1.0" encoding="UTF-8"?>
<svg version="1.1" xmlns="http://www.w3.org/2000/svg" width="512" height="512">
<path d="M0 0 C7.92 0 15.84 0 24 0 C24.495 20.295 24.495 20.295 25 41 C28.3 38.69 31.6 36.38 35 34 C43.08759042 31.03519822 51.33594182 31.57254649 59.1875 34.9375 C65.66386452 38.47006247 69.51093042 44.01810498 72.06445312 50.84643555 C73.60533496 56.42717086 73.24516703 62.19207867 73.1953125 67.93359375 C73.1924826 69.16666763 73.18965271 70.39974152 73.18673706 71.67018127 C73.1755786 75.59272125 73.15048151 79.5150295 73.125 83.4375 C73.11383396 86.10351228 73.10583976 88.76952239 73.09765625 91.43554688 C73.07565338 97.95711998 73.04115297 104.47852075 73 111 C65.08 111 57.16 111 49 111 C48.96261719 107.7721875 48.92523438 104.544375 48.88671875 101.21875 C48.8404383 98.0744774 48.78922829 94.93032077 48.73754883 91.78613281 C48.70440219 89.60977289 48.67633866 87.43332912 48.65356445 85.25683594 C48.61982962 82.11877897 48.5675038 78.98148325 48.51171875 75.84375 C48.50532883 74.87884644 48.4989389 73.91394287 48.49235535 72.9197998 C48.35128674 66.36066567 47.71177458 60.21395506 43.3125 55 C39.88298369 53.51696592 36.6373967 53.45764463 33 54 C29.41447119 55.63687185 28.20684945 56.68972583 26 60 C24.71063049 65.40193293 24.78044384 70.90494306 24.68359375 76.4296875 C24.66281265 77.42001984 24.64203156 78.41035217 24.62062073 79.43069458 C24.5554968 82.57872918 24.49641371 85.72684367 24.4375 88.875 C24.39427941 91.0156331 24.35066401 93.15625826 24.30664062 95.296875 C24.19911442 100.53116948 24.09976486 105.76552886 24 111 C16.08 111 8.16 111 0 111 C0 74.37 0 37.74 0 0 Z " fill="#FFFFFF" transform="translate(243,198)"/>
<path d="M0 0 C7.92 0 15.84 0 24 0 C24.495 20.295 24.495 20.295 25 41 C28.3 38.69 31.6 36.38 35 34 C43.08759042 31.03519822 51.33594182 31.57254649 59.1875 34.9375 C65.66386452 38.47006247 69.51093042 44.01810498 72.06445312 50.84643555 C73.60533496 56.42717086 73.24516703 62.19207867 73.1953125 67.93359375 C73.1924826 69.16666763 73.18965271 70.39974152 73.18673706 71.67018127 C73.1755786 75.59272125 73.15048151 79.5150295 73.125 83.4375 C73.11383396 86.10351228 73.10583976 88.76952239 73.09765625 91.43554688 C73.07565338 97.95711998 73.04115297 104.47852075 73 111 C65.08 111 57.16 111 49 111 C48.96261719 107.7721875 48.92523438 104.544375 48.88671875 101.21875 C48.8404383 98.0744774 48.78922829 94.93032077 48.73754883 91.78613281 C48.70440219 89.60977289 48.67633866 87.43332912 48.65356445 85.25683594 C48.61982962 82.11877897 48.5675038 78.98148325 48.51171875 75.84375 C48.50532883 74.87884644 48.4989389 73.91394287 48.49235535 72.9197998 C48.35128674 66.36066567 47.71177458 60.21395506 43.3125 55 C39.88298369 53.51696592 36.6373967 53.45764463 33 54 C29.41447119 55.63687185 28.20684945 56.68972583 26 60 C24.71063049 65.40193293 24.78044384 70.90494306 24.68359375 76.4296875 C24.66281265 77.42001984 24.64203156 78.41035217 24.62062073 79.43069458 C24.5554968 82.57872918 24.49641371 85.72684367 24.4375 88.875 C24.39427941 91.0156331 24.35066401 93.15625826 24.30664062 95.296875 C24.19911442 100.53116948 24.09976486 105.76552886 24 111 C16.08 111 8.16 111 0 111 C0 74.37 0 37.74 0 0 Z " fill="#FFFFFF" transform="translate(152,198)"/>
<path d="M0 0 C7.0327963 8.49796219 7.28743261 17.32454775 7.1953125 27.93359375 C7.1924826 29.16666763 7.18965271 30.39974152 7.18673706 31.67018127 C7.1755786 35.59272125 7.15048151 39.5150295 7.125 43.4375 C7.11383396 46.10351228 7.10583976 48.76952239 7.09765625 51.43554688 C7.07565338 57.95711998 7.04115297 64.47852075 7 71 C-0.92 71 -8.84 71 -17 71 C-17.04898438 67.76058594 -17.09796875 64.52117187 -17.1484375 61.18359375 C-17.20250722 58.03275081 -17.2597912 54.88198148 -17.31738281 51.73120117 C-17.35557405 49.54798914 -17.39044384 47.3647163 -17.421875 45.18139648 C-17.46773979 42.03607509 -17.52569896 38.89116876 -17.5859375 35.74609375 C-17.59748871 34.7760289 -17.60903992 33.80596405 -17.62094116 32.8065033 C-17.77563625 23.50797508 -17.77563625 23.50797508 -22.125 15.5625 C-25.82773228 13.5501455 -28.92985979 13.09994943 -33 14 C-37.09851509 16.42874968 -38.67302647 17.9838712 -40.13818359 22.53710938 C-41.24922362 27.47637782 -41.3507936 32.3608447 -41.4140625 37.40625 C-41.43342865 38.3715564 -41.4527948 39.33686279 -41.4727478 40.3314209 C-41.53210018 43.38752657 -41.57875038 46.44367082 -41.625 49.5 C-41.66322064 51.58334895 -41.7022747 53.66668278 -41.7421875 55.75 C-41.83931968 60.8332507 -41.9192398 65.91635788 -42 71 C-49.92 71 -57.84 71 -66 71 C-66.33 45.92 -66.66 20.84 -67 -5 C-59.74 -5 -52.48 -5 -45 -5 C-44.67 -2.69 -44.34 -0.38 -44 2 C-43.50371094 1.60167969 -43.00742187 1.20335937 -42.49609375 0.79296875 C-29.66696531 -9.21229081 -12.80195 -11.88377736 0 0 Z " fill="#FFFFFF" transform="translate(401,238)"/>
<path d="M0 0 C4.6907389 0.65190415 8.69033208 2.54140638 12.9296875 4.54296875 C13.70526505 4.90361923 14.48084259 5.26426971 15.27992249 5.635849 C16.94753654 6.41190883 18.61403203 7.19037589 20.2795105 7.9710083 C24.65928894 10.02378644 29.04700447 12.05948413 33.43359375 14.09765625 C34.3186409 14.50949158 35.20368805 14.9213269 36.11555481 15.34564209 C44.6950726 19.33398021 53.30988489 23.24201788 61.9375 27.125 C62.94668488 27.5795607 62.94668488 27.5795607 63.97625732 28.04330444 C67.64981027 29.69783697 71.32466853 31.34941793 75 33 C75 38.61 75 44.22 75 50 C72.90269531 50.95777344 70.80539062 51.91554688 68.64453125 52.90234375 C67.23956446 53.54422953 65.8346145 54.18615213 64.4296875 54.828125 C61.32459196 56.24691276 58.21905223 57.66472276 55.11328125 59.08203125 C46.57824341 62.97918616 38.05337661 66.89698616 29.54296875 70.84765625 C27.01580833 72.01824415 24.48845015 73.18840401 21.96102905 74.35842896 C20.32142577 75.11897408 18.68277042 75.88156615 17.04507446 76.64620972 C14.7511063 77.71710976 12.45404938 78.7811012 10.15625 79.84375 C9.47342453 80.16485245 8.79059906 80.4859549 8.08708191 80.81678772 C5.20079514 82.14458364 3.21793061 83 0 83 C0 77.39 0 71.78 0 66 C11.00078963 60.27736701 22.34281725 55.47017207 33.75 50.625 C35.71889486 49.78549592 37.68764605 48.9456548 39.65625 48.10546875 C44.43585299 46.06642422 49.21737535 44.03194645 54 42 C51.15492881 39.71378987 48.42067241 38.16835032 45.0637207 36.74755859 C44.08623367 36.33057709 43.10874664 35.91359558 42.10163879 35.48397827 C41.0536058 35.04324982 40.00557281 34.60252136 38.92578125 34.1484375 C37.84620651 33.68893707 36.76663177 33.22943665 35.65434265 32.75601196 C32.20922953 31.29050678 28.76107409 29.83234017 25.3125 28.375 C21.85367647 26.9094659 18.39552815 25.44238153 14.93852234 23.9725647 C12.78735267 23.05834249 10.63504172 22.14680039 8.48152161 21.23812866 C7.51349106 20.82745148 6.54546051 20.41677429 5.5480957 19.99365234 C4.6919014 19.63185883 3.83570709 19.27006531 2.9535675 18.89730835 C1 18 1 18 0 17 C-0.07325168 14.13732433 -0.09238205 11.299281 -0.0625 8.4375 C-0.05798828 7.63119141 -0.05347656 6.82488281 -0.04882812 5.99414062 C-0.03700518 3.99606244 -0.01906914 1.99802217 0 0 Z " fill="#FFFFFF" transform="translate(426,226)"/>
<path d="M0 0 C0 5.61 0 11.22 0 17 C-9.6439464 21.91859969 -19.35802242 26.4399713 -29.3125 30.6875 C-31.26139881 31.52371328 -33.20979341 32.36109372 -35.15817261 33.19851685 C-36.99522153 33.98784626 -38.83280762 34.77592512 -40.67041016 35.56396484 C-44.79545376 37.34307516 -48.90060957 39.16265053 -53 41 C-49.78310196 43.64877838 -46.50506614 45.22477674 -42.6796875 46.85546875 C-42.06736771 47.11844254 -41.45504791 47.38141632 -40.82417297 47.65235901 C-39.51752525 48.21284898 -38.20984093 48.77092757 -36.9012146 49.32678223 C-34.86473628 50.19185994 -32.83104542 51.06318859 -30.7980957 51.93652344 C-28.76842077 52.8084482 -26.73863554 53.6800958 -24.70802307 54.54983521 C-19.18577437 56.91524259 -13.6793014 59.31465103 -8.1875 61.75 C-7.45450684 62.07250732 -6.72151367 62.39501465 -5.96630859 62.72729492 C-1.1200863 64.8799137 -1.1200863 64.8799137 0 66 C0.07325168 68.86267567 0.09238205 71.700719 0.0625 74.5625 C0.05798828 75.36880859 0.05347656 76.17511719 0.04882812 77.00585938 C0.03700518 79.00393756 0.01906914 81.00197783 0 83 C-4.53932982 82.35774993 -8.36397464 80.58216948 -12.44921875 78.60546875 C-13.17138077 78.26177246 -13.89354279 77.91807617 -14.6375885 77.56396484 C-16.98993653 76.44338476 -19.33864581 75.3153824 -21.6875 74.1875 C-24.94548874 72.63305005 -28.20525594 71.08234338 -31.46484375 69.53125 C-32.27639923 69.14438522 -33.08795471 68.75752045 -33.92410278 68.3589325 C-42.20689389 64.41438173 -50.53521855 60.57324929 -58.87768555 56.7565918 C-64.30536244 54.26767715 -69.67685177 51.70572345 -75 49 C-75 44.05 -75 39.1 -75 34 C-62.94041291 27.86047747 -50.72871998 22.09675864 -38.4375 16.4375 C-35.78291353 15.21236231 -33.12865393 13.98651951 -30.47451782 12.76040649 C-28.7551004 11.96667573 -27.03519941 11.17399154 -25.31478882 10.38241577 C-21.36140849 8.5620319 -17.41582152 6.72864038 -13.48876953 4.85205078 C-12.79606461 4.52261978 -12.10335968 4.19318878 -11.3896637 3.85377502 C-9.54289603 2.97343247 -7.69918147 2.08669308 -5.85571289 1.19946289 C-3 0 -3 0 0 0 Z " fill="#FFFFFF" transform="translate(82,226)"/>
<path d="M0 0 C5.61 0 11.22 0 17 0 C16.27280174 5.09038783 15.36555581 9.65729382 13.90209961 14.52636719 C13.6904718 15.24479797 13.47884399 15.96322876 13.26080322 16.70343018 C12.56262792 19.06931365 11.85752565 21.43307141 11.15234375 23.796875 C10.65684516 25.47084122 10.16178208 27.14493641 9.66712952 28.81915283 C8.36099621 33.23562911 7.04898655 37.65033834 5.73571777 42.06469727 C4.43033737 46.45615746 3.13040394 50.84922853 1.83007812 55.2421875 C-0.17752663 62.02256469 -2.18906977 68.80175951 -4.20361328 75.58007812 C-5.97493206 81.54017618 -7.73956549 87.50217963 -9.49560547 93.46679688 C-9.87288638 94.74669358 -10.25019947 96.02658081 -10.62754822 97.30645752 C-11.31164205 99.62823891 -11.99431952 101.95043829 -12.67530823 104.27313232 C-12.9712236 105.27644592 -13.26713898 106.27975952 -13.57202148 107.31347656 C-13.82596176 108.17797424 -14.07990204 109.04247192 -14.34153748 109.9331665 C-15 112 -15 112 -16 114 C-21.61 114 -27.22 114 -33 114 C-29.85786487 100.76866535 -26.03845514 87.78568591 -22.11593628 74.76657104 C-20.21707388 68.4637728 -18.32989186 62.15747609 -16.44140625 55.8515625 C-16.06464249 54.59458054 -15.68787872 53.33759857 -15.29969788 52.04252625 C-11.79923383 40.35436589 -8.35575536 28.64993376 -4.9375 16.9375 C-4.5516272 15.61590378 -4.5516272 15.61590378 -4.15795898 14.26760864 C-2.76984576 9.51235406 -1.38448011 4.75631605 0 0 Z " fill="#FFFFFF" transform="translate(126,202)"/>
</svg>
