<?xml version="1.0" encoding="UTF-8"?>
<svg version="1.1" xmlns="http://www.w3.org/2000/svg" width="512" height="512">
<path d="M0 0 C28.55018243 -0.24556859 28.55018243 -0.24556859 33 1 C35.35709642 4.53564463 35.30009735 6.22025255 35.4140625 10.41796875 C35.45273438 11.67158203 35.49140625 12.92519531 35.53125 14.21679688 C35.5621875 15.52712891 35.593125 16.83746094 35.625 18.1875 C35.66319338 19.5228116 35.70224591 20.85809892 35.7421875 22.19335938 C35.83659153 25.46209888 35.92217017 28.73083064 36 32 C37.52367187 31.96519531 37.52367187 31.96519531 39.078125 31.9296875 C64.04084299 31.5309901 64.04084299 31.5309901 71.8046875 38.65625 C81.26653177 48.54996268 81.15749406 60.84812119 81.1328125 73.83203125 C81.13376923 74.94559494 81.13472595 76.05915863 81.13571167 77.20646667 C81.1363892 79.54706886 81.13456485 81.88767296 81.13037109 84.22827148 C81.1249914 87.81823908 81.13034357 91.40808301 81.13671875 94.99804688 C81.13605839 97.27604194 81.1347781 99.55403693 81.1328125 101.83203125 C81.13483673 102.9070137 81.13686096 103.98199615 81.13894653 105.08955383 C81.13421829 106.58206917 81.13421829 106.58206917 81.12939453 108.10473633 C81.12859894 108.97995438 81.12780334 109.85517242 81.12698364 110.75691223 C81 113 81 113 80 116 C77.14992869 117.42503565 74.71379745 117.12980035 71.53125 117.1328125 C70.23832031 117.13410156 68.94539062 117.13539063 67.61328125 117.13671875 C66.93861816 117.13462402 66.26395508 117.1325293 65.56884766 117.13037109 C63.50806311 117.12502093 61.44749651 117.13032035 59.38671875 117.13671875 C58.09378906 117.13542969 56.80085937 117.13414062 55.46875 117.1328125 C54.27701172 117.13168457 53.08527344 117.13055664 51.85742188 117.12939453 C49 117 49 117 47 116 C43.62158755 106.17397786 44.54876477 94.57276683 44.375 84.3125 C44.33674412 82.43553026 44.2976882 80.55857665 44.2578125 78.68164062 C44.16264805 74.12122738 44.07832043 69.56073234 44 65 C42.08686064 64.38227868 42.08686064 64.38227868 40 64 C37.51384442 65.84159673 36.99843096 67.00470711 36 70 C35.8962385 71.44143941 35.84436144 72.88697347 35.82641602 74.33203125 C35.81292618 75.20303467 35.79943634 76.07403809 35.78553772 76.97143555 C35.77509933 77.90898682 35.76466095 78.84653809 35.75390625 79.8125 C35.72097935 81.79427544 35.68776752 83.77604617 35.65429688 85.7578125 C35.60680249 88.88505937 35.56234619 92.01228555 35.52319336 95.13964844 C35.48355715 98.15579791 35.43200486 101.17156176 35.37890625 104.1875 C35.3704921 105.12505127 35.36207794 106.06260254 35.35340881 107.02856445 C35.33676682 107.89956787 35.32012482 108.77057129 35.30297852 109.66796875 C35.29267105 110.43391357 35.28236359 111.1998584 35.27174377 111.98901367 C35 114 35 114 33 117 C30.05078125 117.37231445 30.05078125 117.37231445 26.3125 117.36328125 C25.65419189 117.36377975 24.99588379 117.36427826 24.31762695 117.36479187 C22.92558779 117.36245104 21.53354443 117.3527218 20.14160156 117.33618164 C18.0080795 117.31258934 15.87580681 117.3156196 13.7421875 117.32226562 C3.27909311 117.27909311 3.27909311 117.27909311 1 115 C-0.85989776 106.60915442 -0.21875234 97.49345096 -0.31640625 88.9296875 C-0.33702133 87.39697773 -0.35801884 85.86427305 -0.37937927 84.33157349 C-0.43413039 80.33028336 -0.48374332 76.32894601 -0.53222656 72.32757568 C-0.58278828 68.23136273 -0.6382919 64.13521692 -0.69335938 60.0390625 C-0.80036502 52.02609872 -0.90193367 44.01307815 -1 36 C-1.47359451 37.1459111 -1.47359451 37.1459111 -1.95675659 38.31497192 C-26.58580143 97.897592 -26.58580143 97.897592 -37 122.0625 C-37.39074707 122.97692871 -37.78149414 123.89135742 -38.18408203 124.83349609 C-38.71171143 126.04706787 -38.71171143 126.04706787 -39.25 127.28515625 C-39.54390625 127.96457275 -39.8378125 128.64398926 -40.140625 129.34399414 C-41 131 -41 131 -43 133 C-45.67382813 133.25878906 -45.67382813 133.25878906 -49.03125 133.265625 C-50.23394531 133.26820313 -51.43664062 133.27078125 -52.67578125 133.2734375 C-54.56876953 133.26183594 -54.56876953 133.26183594 -56.5 133.25 C-57.76199219 133.25773438 -59.02398437 133.26546875 -60.32421875 133.2734375 C-61.52691406 133.27085937 -62.72960937 133.26828125 -63.96875 133.265625 C-65.07669922 133.26336914 -66.18464844 133.26111328 -67.32617188 133.25878906 C-70 133 -70 133 -72 131 C-72.1953125 128.3984375 -72.1953125 128.3984375 -72.125 125.375 C-72.10695313 124.37210937 -72.08890625 123.36921875 -72.0703125 122.3359375 C-72.04710938 121.56507813 -72.02390625 120.79421875 -72 120 C-72.66 120 -73.32 120 -74 120 C-72.08641703 114.00842968 -69.92905815 108.19107259 -67.47265625 102.40234375 C-67.13151291 101.59057678 -66.79036957 100.77880981 -66.43888855 99.94244385 C-65.31637121 97.27287874 -64.18938993 94.60522189 -63.0625 91.9375 C-61.86004026 89.08058259 -60.65881332 86.22314887 -59.45767212 83.36567688 C-58.61654347 81.36478163 -57.77504544 79.36404162 -56.93319702 77.3634491 C-53.79804246 69.91018346 -50.68129486 62.44938631 -47.57421875 54.984375 C-47.12792618 53.91212173 -46.68163361 52.83986847 -46.22181702 51.73512268 C-44.47188983 47.52971899 -42.72253372 43.32407835 -40.97390747 39.11813354 C-36.37322913 28.05365131 -31.75737717 16.9981996 -27 6 C-23.62501842 5.97077354 -20.25006979 5.95312532 -16.875 5.9375 C-15.44800781 5.92493164 -15.44800781 5.92493164 -13.9921875 5.91210938 C-9.20981513 5.89550392 -4.70228431 5.99462945 0 7 C0 4.69 0 2.38 0 0 Z " fill="#7FC1FA" transform="translate(170,190)"/>
<path d="M0 0 C3.52603994 -0.00914342 7.05207679 -0.01465177 10.578125 -0.01953125 C12.06723389 -0.02345886 12.06723389 -0.02345886 13.58642578 -0.02746582 C29.27123191 -0.04373637 29.27123191 -0.04373637 33 1 C35.35709642 4.53564463 35.30009735 6.22025255 35.4140625 10.41796875 C35.47207031 12.29838867 35.47207031 12.29838867 35.53125 14.21679688 C35.5621875 15.52712891 35.593125 16.83746094 35.625 18.1875 C35.66319338 19.5228116 35.70224591 20.85809892 35.7421875 22.19335938 C35.83659153 25.46209888 35.92217017 28.73083064 36 32 C37.52367187 31.96519531 37.52367187 31.96519531 39.078125 31.9296875 C64.04084299 31.5309901 64.04084299 31.5309901 71.8046875 38.65625 C81.26653177 48.54996268 81.15749406 60.84812119 81.1328125 73.83203125 C81.13376923 74.94559494 81.13472595 76.05915863 81.13571167 77.20646667 C81.1363892 79.54706886 81.13456485 81.88767296 81.13037109 84.22827148 C81.1249914 87.81823908 81.13034357 91.40808301 81.13671875 94.99804688 C81.13605839 97.27604194 81.1347781 99.55403693 81.1328125 101.83203125 C81.13483673 102.9070137 81.13686096 103.98199615 81.13894653 105.08955383 C81.13421829 106.58206917 81.13421829 106.58206917 81.12939453 108.10473633 C81.12859894 108.97995438 81.12780334 109.85517242 81.12698364 110.75691223 C81 113 81 113 80 116 C77.14992869 117.42503565 74.71379745 117.12980035 71.53125 117.1328125 C69.59185547 117.13474609 69.59185547 117.13474609 67.61328125 117.13671875 C66.93861816 117.13462402 66.26395508 117.1325293 65.56884766 117.13037109 C63.50806311 117.12502093 61.44749651 117.13032035 59.38671875 117.13671875 C58.09378906 117.13542969 56.80085938 117.13414062 55.46875 117.1328125 C54.27701172 117.13168457 53.08527344 117.13055664 51.85742188 117.12939453 C49 117 49 117 47 116 C43.62158755 106.17397786 44.54876477 94.57276683 44.375 84.3125 C44.33674412 82.43553026 44.2976882 80.55857665 44.2578125 78.68164062 C44.16264805 74.12122738 44.07832043 69.56073234 44 65 C42.08686064 64.38227868 42.08686064 64.38227868 40 64 C37.51384442 65.84159673 36.99843096 67.00470711 36 70 C35.8962385 71.44143941 35.84436144 72.88697347 35.82641602 74.33203125 C35.81292618 75.20303467 35.79943634 76.07403809 35.78553772 76.97143555 C35.77509933 77.90898682 35.76466095 78.84653809 35.75390625 79.8125 C35.72097935 81.79427544 35.68776752 83.77604617 35.65429688 85.7578125 C35.60680249 88.88505937 35.56234619 92.01228555 35.52319336 95.13964844 C35.48355715 98.15579791 35.43200486 101.17156176 35.37890625 104.1875 C35.3704921 105.12505127 35.36207794 106.06260254 35.35340881 107.02856445 C35.33676682 107.89956787 35.32012482 108.77057129 35.30297852 109.66796875 C35.29267105 110.43391357 35.28236359 111.1998584 35.27174377 111.98901367 C35 114 35 114 33 117 C30.05078125 117.37231445 30.05078125 117.37231445 26.3125 117.36328125 C25.65419189 117.36377975 24.99588379 117.36427826 24.31762695 117.36479187 C22.92558779 117.36245104 21.53354443 117.3527218 20.14160156 117.33618164 C18.0080795 117.31258934 15.87580681 117.3156196 13.7421875 117.32226562 C3.27909311 117.27909311 3.27909311 117.27909311 1 115 C-0.38342473 108.23912618 -0.13964319 101.09736061 -0.11352539 94.22607422 C-0.11367142 93.20048904 -0.11381744 92.17490387 -0.1139679 91.11824036 C-0.11327706 87.76370043 -0.10552388 84.4092176 -0.09765625 81.0546875 C-0.09578912 78.71485423 -0.09436661 76.37502057 -0.09336853 74.03518677 C-0.08956659 67.90322778 -0.07975632 61.77129282 -0.06866455 55.63934326 C-0.0584003 49.37154465 -0.0538602 43.10374211 -0.04882812 36.8359375 C-0.03813181 24.55728117 -0.02108352 12.27864259 0 0 Z " fill="#7FC1FA" transform="translate(254,190)"/>
<path d="M0 0 C0.75079834 0.00749268 1.50159668 0.01498535 2.27514648 0.02270508 C12.92365718 0.22615085 22.5045763 0.95179721 30.4296875 8.7109375 C37.3921066 17.15647546 37.38371565 29.17829483 37.30078125 39.56640625 C37.30152901 41.39473244 37.30152901 41.39473244 37.30229187 43.25999451 C37.29996832 45.81209969 37.29034269 48.36420791 37.27368164 50.91625977 C37.24987509 54.83305089 37.25316049 58.74916947 37.25976562 62.66601562 C37.25419499 65.1536499 37.247089 67.64128133 37.23828125 70.12890625 C37.23919266 71.30070938 37.24010406 72.47251251 37.24104309 73.67982483 C37.23151108 74.76202805 37.22197906 75.84423126 37.2121582 76.95922852 C37.20524712 78.38719505 37.20524712 78.38719505 37.19819641 79.8440094 C36.9375 82.25 36.9375 82.25 34.9375 85.25 C31.98828125 85.62231445 31.98828125 85.62231445 28.25 85.61328125 C27.59169189 85.61377975 26.93338379 85.61427826 26.25512695 85.61479187 C24.86308779 85.61245104 23.47104443 85.6027218 22.07910156 85.58618164 C19.9455795 85.56258934 17.81330681 85.5656196 15.6796875 85.57226562 C5.21659311 85.52909311 5.21659311 85.52909311 2.9375 83.25 C1.32344625 72.69007974 1.61885204 61.82578526 1.46069336 51.16235352 C1.42110195 48.6093005 1.36960569 46.05670685 1.31640625 43.50390625 C1.3079921 42.71955704 1.29957794 41.93520782 1.29090881 41.12709045 C1.20402721 37.32498865 1.09593972 35.48765958 -1.0625 32.25 C-3.84694578 32.53804612 -4.85397574 33.00050489 -6.67163086 35.17529297 C-8.65000091 39.54875136 -8.50331315 43.50931492 -8.50390625 48.2578125 C-8.51711411 49.22024872 -8.53032196 50.18268494 -8.54393005 51.17428589 C-8.58475139 54.24122043 -8.60648266 57.30785554 -8.625 60.375 C-8.64878069 63.44919502 -8.67686786 66.52310782 -8.71678162 69.59713745 C-8.74115331 71.50794634 -8.75599991 73.41890524 -8.76039124 75.3298645 C-8.77057785 76.19441254 -8.78076447 77.05896057 -8.79125977 77.94970703 C-8.79553482 78.70961945 -8.79980988 79.46953186 -8.80421448 80.25247192 C-9.0625 82.25 -9.0625 82.25 -11.0625 85.25 C-14.01171875 85.62231445 -14.01171875 85.62231445 -17.75 85.61328125 C-18.40830811 85.61377975 -19.06661621 85.61427826 -19.74487305 85.61479187 C-21.13691221 85.61245104 -22.52895557 85.6027218 -23.92089844 85.58618164 C-26.0544205 85.56258934 -28.18669319 85.5656196 -30.3203125 85.57226562 C-40.78340689 85.52909311 -40.78340689 85.52909311 -43.0625 83.25 C-44.99628574 74.76163562 -44.19057446 65.41351079 -44.16015625 56.7421875 C-44.15828744 55.16464279 -44.15686573 53.5870975 -44.15586853 52.009552 C-44.15207978 47.88983513 -44.14228129 43.77015441 -44.13116455 39.65045166 C-44.12087144 35.43363941 -44.1163541 31.21682123 -44.11132812 27 C-44.10065517 18.74998354 -44.08362338 10.49999629 -44.0625 2.25 C-42.69315308 2.26571045 -42.69315308 2.26571045 -41.29614258 2.28173828 C-37.89491225 2.31591281 -34.49386558 2.34094384 -31.0925293 2.35986328 C-29.62309888 2.36989352 -28.15368829 2.38352101 -26.68432617 2.40087891 C-24.56684463 2.42525898 -22.44962801 2.43651286 -20.33203125 2.4453125 C-19.05948486 2.45578613 -17.78693848 2.46625977 -16.47583008 2.47705078 C-10.7265387 2.09461455 -5.96028634 -0.07783832 0 0 Z " fill="#80C1FB" transform="translate(382.0625,221.75)"/>
<path d="M0 0 C0 0.66 0 1.32 0 2 C0.92232422 1.87431641 0.92232422 1.87431641 1.86328125 1.74609375 C2.67152344 1.64425781 3.47976562 1.54242188 4.3125 1.4375 C5.11300781 1.33308594 5.91351563 1.22867188 6.73828125 1.12109375 C9 1 9 1 12 2 C13.93118218 5.86236435 13.31534465 10.56341181 13.375 14.8125 C13.43107422 16.31006836 13.43107422 16.31006836 13.48828125 17.83789062 C13.49988281 18.80533203 13.51148437 19.77277344 13.5234375 20.76953125 C13.5531665 22.09368042 13.5531665 22.09368042 13.58349609 23.44458008 C12.73312534 27.16877702 10.91355435 28.59383036 8 31 C4.95385742 32.66918945 4.95385742 32.66918945 1.60546875 34.11328125 C0.40341797 34.63857422 -0.79863281 35.16386719 -2.03710938 35.70507812 C-3.29546295 36.24114363 -4.55392791 36.77694773 -5.8125 37.3125 C-7.09096495 37.8667553 -8.36896502 38.42208425 -9.64648438 38.97851562 C-12.7599186 40.32962859 -15.87764823 41.66965637 -19 43 C-17.70582153 43.51385254 -17.70582153 43.51385254 -16.38549805 44.03808594 C-13.17789827 45.3182733 -9.97500238 46.60906305 -6.7746582 47.90722656 C-5.39031721 48.4662095 -4.00425375 49.02094665 -2.61645508 49.57128906 C-0.61849267 50.36446081 1.37271711 51.17284418 3.36328125 51.984375 C4.56251221 52.46616211 5.76174316 52.94794922 6.99731445 53.44433594 C10.07182393 55.03721132 11.41960686 55.95227342 13 59 C13.35644531 61.44189453 13.35644531 61.44189453 13.328125 64.1328125 C13.32296875 65.10347656 13.3178125 66.07414062 13.3125 67.07421875 C13.291875 68.08097656 13.27125 69.08773437 13.25 70.125 C13.24484375 71.13949219 13.2396875 72.15398437 13.234375 73.19921875 C13.15457058 80.69085884 13.15457058 80.69085884 12 83 C-1.36630897 86.34157724 -15.96488985 76.38135927 -27.83862305 70.8347168 C-30.55889194 69.56418519 -33.28209618 68.30012991 -36.00585938 67.03710938 C-40.26772629 65.05855365 -44.51798242 63.05644722 -48.76483154 61.04589844 C-50.79620146 60.09536309 -52.83780841 59.17448582 -54.88720703 58.26367188 C-55.9698584 57.76544922 -57.05250977 57.26722656 -58.16796875 56.75390625 C-59.07699951 56.34857666 -59.98603027 55.94324707 -60.92260742 55.52563477 C-63.70792619 53.48009981 -64.05578067 51.70015774 -64.75 48.375 C-65.26178608 42.28474563 -65.02236804 36.11020201 -65 30 C-49.55788298 22.21833663 -34.07740991 14.53941114 -18.44091797 7.15429688 C-16.21936462 6.10373634 -14.00185767 5.04512123 -11.78515625 3.984375 C-10.61855469 3.43265625 -9.45195313 2.8809375 -8.25 2.3125 C-7.28578125 1.85488281 -6.3215625 1.39726562 -5.328125 0.92578125 C-3 0 -3 0 0 0 Z " fill="#000001" transform="translate(82,219)"/>
<path d="M0 0 C13.65334676 -0.11434964 24.5821082 6.20190578 36.47969055 12.23959351 C44.47818683 16.28402083 52.6490659 19.95965888 60.79956055 23.68481445 C76.44251597 30.88503193 76.44251597 30.88503193 78 34 C78.39339304 37.09482505 78.46287571 40.19634492 78.5625 43.3125 C78.62501953 44.16779297 78.68753906 45.02308594 78.75195312 45.90429688 C78.81811564 48.49265469 78.68945846 50.50321968 78 53 C76.47418213 54.39474487 76.47418213 54.39474487 74.48925781 55.52685547 C73.7624733 55.94387222 73.03568878 56.36088898 72.28688049 56.7905426 C68.69183639 58.69184558 65.05583904 60.45800028 61.35546875 62.14453125 C60.54620438 62.51801193 59.73694 62.89149261 58.90315247 63.27629089 C57.19581677 64.06283107 55.4872738 64.84675544 53.77758789 65.62817383 C51.22959144 66.79325355 48.68581893 67.96715975 46.14257812 69.14257812 C41.10969456 71.46143733 36.05897214 73.73870552 31 76 C29.70041351 76.5848819 29.70041351 76.5848819 28.37457275 77.18157959 C25.81458684 78.32737038 23.24687236 79.45360378 20.67578125 80.57421875 C19.90630661 80.92031693 19.13683197 81.2664151 18.34403992 81.6230011 C13.7352177 83.60066107 10.1113616 84.50659648 5 84 C2.625 82.5 2.625 82.5 1 80 C0.01693078 74.14013644 -0.12477108 68.42952915 -0.0625 62.5 C-0.041875 59.695 -0.02125 56.89 0 54 C9.57 50.04 19.14 46.08 29 42 C26.71465237 39.71465237 24.8619289 38.98107565 21.87890625 37.7578125 C20.86119141 37.33113281 19.84347656 36.90445313 18.79492188 36.46484375 C16.64606447 35.57413911 14.49502208 34.68868701 12.34179688 33.80859375 C11.32279297 33.37933594 10.30378906 32.95007813 9.25390625 32.5078125 C7.85120483 31.92990967 7.85120483 31.92990967 6.42016602 31.34033203 C3.73735 29.85453965 2.54186356 28.63248021 1 26 C-0.59029423 17.47024004 -0.08935087 8.64717836 0 0 Z " fill="#7FC0F9" transform="translate(430,218)"/>
<path d="M0 0 C6.93 0 13.86 0 21 0 C19.44312185 4.67063446 17.73202039 9.13981794 15.7890625 13.6484375 C15.12425621 15.20352704 14.45946188 16.7586217 13.79467773 18.3137207 C13.4420285 19.13619293 13.08937927 19.95866516 12.7260437 20.80606079 C4.26485294 40.54758847 -4.01283664 60.36395008 -12.25531006 80.1975708 C-13.79201047 83.89417627 -15.33015065 87.59017984 -16.8694458 91.28570557 C-17.63662768 93.12759647 -18.40333553 94.96968487 -19.1696167 96.81195068 C-20.28624746 99.49422247 -21.40628332 102.17504585 -22.52734375 104.85546875 C-22.86423721 105.66607254 -23.20113068 106.47667633 -23.54823303 107.31184387 C-25.88544314 112.88544314 -25.88544314 112.88544314 -27 114 C-28.4887186 114.08669432 -29.981445 114.10703494 -31.47265625 114.09765625 C-32.37177734 114.09443359 -33.27089844 114.09121094 -34.19726562 114.08789062 C-35.61555664 114.07532227 -35.61555664 114.07532227 -37.0625 114.0625 C-38.01189453 114.05798828 -38.96128906 114.05347656 -39.93945312 114.04882812 C-42.29303369 114.03700109 -44.64647581 114.01968094 -47 114 C-45.08641703 108.00842968 -42.92905815 102.19107259 -40.47265625 96.40234375 C-40.13151291 95.59057678 -39.79036957 94.77880981 -39.43888855 93.94244385 C-38.31637121 91.27287874 -37.18938993 88.60522189 -36.0625 85.9375 C-34.86004026 83.08058259 -33.65881332 80.22314887 -32.45767212 77.36567688 C-31.61654347 75.36478163 -30.77504544 73.36404162 -29.93319702 71.3634491 C-26.79804246 63.91018346 -23.68129486 56.44938631 -20.57421875 48.984375 C-20.12792618 47.91212173 -19.68163361 46.83986847 -19.22181702 45.73512268 C-17.47188983 41.52971899 -15.72253372 37.32407835 -13.97390747 33.11813354 C-9.37312536 22.05340173 -4.74720543 11.0027971 0 0 Z " fill="#80C1FB" transform="translate(143,196)"/>
<path d="M0 0 C3.125 -0.1875 3.125 -0.1875 6 0 C9.68895637 23.19628378 1.31825317 40.75195816 -8.10891724 61.38702393 C-11.20631806 68.17184828 -14.14430864 75.00923308 -16.9921875 81.90234375 C-17.59478897 83.36016769 -17.59478897 83.36016769 -18.20956421 84.84744263 C-19.0043597 86.77333286 -19.79846819 88.69950678 -20.59185791 90.62597656 C-33.87686653 122.87686653 -33.87686653 122.87686653 -37 126 C-41.47331958 126.25380234 -45.9578346 126.18522721 -50.4375 126.1875 C-52.33725586 126.20586914 -52.33725586 126.20586914 -54.27539062 126.22460938 C-55.48259766 126.22654297 -56.68980469 126.22847656 -57.93359375 126.23046875 C-59.6050647 126.23663208 -59.6050647 126.23663208 -61.31030273 126.24291992 C-64 126 -64 126 -66 124 C-66.27629475 120.31975395 -66.0859315 116.69505443 -66 113 C-60.06 112.67 -54.12 112.34 -48 112 C-45.7735925 106.68137773 -45.7735925 106.68137773 -43.54724121 101.36273193 C-41.59235133 96.69253765 -39.63719369 92.02245569 -37.68164062 87.35253906 C-33.4989413 77.36339508 -29.31954852 67.37289511 -25.1484375 57.37890625 C-11.7144265 25.20006665 -11.7144265 25.20006665 -6 12 C-5.60876953 11.09282227 -5.21753906 10.18564453 -4.81445312 9.25097656 C-4.46318359 8.4462793 -4.11191406 7.64158203 -3.75 6.8125 C-3.45609375 6.13832031 -3.1621875 5.46414062 -2.859375 4.76953125 C-2 3 -2 3 0 0 Z " fill="#000001" transform="translate(164,197)"/>
<path d="M0 0 C0 5.61 0 11.22 0 17 C-5.94285088 19.56807654 -11.88769883 22.13145042 -17.83447266 24.69042969 C-19.85847088 25.56217583 -21.8819109 26.43521918 -23.90478516 27.30957031 C-26.80747073 28.56394007 -29.71211213 29.81367676 -32.6171875 31.0625 C-33.52556366 31.45622803 -34.43393982 31.84995605 -35.36984253 32.25561523 C-36.63092331 32.79617554 -36.63092331 32.79617554 -37.91748047 33.34765625 C-38.65916473 33.66742432 -39.400849 33.98719238 -40.16500854 34.31665039 C-42 35 -42 35 -44 35 C-44 35.66 -44 36.32 -44 37 C-42.84113281 37.36996094 -41.68226562 37.73992187 -40.48828125 38.12109375 C-34.01081309 40.28109537 -27.65874756 42.77050796 -21.29614258 45.2434082 C-19.1758182 46.06703774 -17.0538266 46.88625887 -14.93164062 47.70507812 C-13.57281565 48.23151015 -12.21408814 48.75819386 -10.85546875 49.28515625 C-9.63496826 49.75832275 -8.41446777 50.23148926 -7.15698242 50.71899414 C-4 52 -4 52 0 54 C0 59.61 0 65.22 0 71 C-4.4658148 70.10683704 -7.48404276 68.98355675 -11.5390625 67.04296875 C-12.16984207 66.74361923 -12.80062164 66.44426971 -13.45051575 66.135849 C-14.80646262 65.49203307 -16.16129462 64.84586479 -17.5151062 64.1975708 C-21.09154714 62.48541895 -24.67628132 60.79087049 -28.26171875 59.09765625 C-29.35242424 58.58220245 -29.35242424 58.58220245 -30.46516418 58.05633545 C-38.88981294 54.08853697 -47.40363458 50.32841449 -55.93408203 46.59448242 C-56.9857959 46.13275635 -58.03750977 45.67103027 -59.12109375 45.1953125 C-60.0433374 44.79328613 -60.96558105 44.39125977 -61.91577148 43.97705078 C-64 43 -64 43 -65 42 C-65.07244053 39.98035801 -65.08377188 37.95832876 -65.0625 35.9375 C-65.05347656 34.83277344 -65.04445313 33.72804687 -65.03515625 32.58984375 C-65.02355469 31.73519531 -65.01195313 30.88054687 -65 30 C-49.55788298 22.21833663 -34.07740991 14.53941114 -18.44091797 7.15429688 C-16.21936462 6.10373634 -14.00185767 5.04512123 -11.78515625 3.984375 C-10.61855469 3.43265625 -9.45195313 2.8809375 -8.25 2.3125 C-7.28578125 1.85488281 -6.3215625 1.39726562 -5.328125 0.92578125 C-3 0 -3 0 0 0 Z " fill="#7EC0F9" transform="translate(82,219)"/>
<path d="M0 0 C8.55391488 0.08103458 14.85261658 2.89519395 22.375 6.75 C24.14279188 7.63007649 25.91061625 8.51009281 27.68005371 9.38685608 C28.90496224 9.99410532 30.12899537 10.60312336 31.35217285 11.21385193 C39.4113759 15.22794686 47.61070897 18.94171772 55.79833984 22.68457031 C71.44175648 29.88351296 71.44175648 29.88351296 73 33 C73.39339304 36.09482505 73.46287571 39.19634492 73.5625 42.3125 C73.62501953 43.16779297 73.68753906 44.02308594 73.75195312 44.90429688 C73.81811564 47.49265469 73.68945846 49.50321968 73 52 C71.47418213 53.39474487 71.47418213 53.39474487 69.48925781 54.52685547 C68.7624733 54.94387222 68.03568878 55.36088898 67.28688049 55.7905426 C63.69183639 57.69184558 60.05583904 59.45800028 56.35546875 61.14453125 C55.54620438 61.51801193 54.73694 61.89149261 53.90315247 62.27629089 C52.19581677 63.06283107 50.4872738 63.84675544 48.77758789 64.62817383 C46.22959144 65.79325355 43.68581893 66.96715975 41.14257812 68.14257812 C36.10969456 70.46143733 31.05897214 72.73870552 26 75 C24.70041351 75.5848819 24.70041351 75.5848819 23.37457275 76.18157959 C20.81458684 77.32737038 18.24687236 78.45360378 15.67578125 79.57421875 C14.90630661 79.92031693 14.13683197 80.2664151 13.34403992 80.6230011 C8.73340088 82.60144067 5.11311707 83.49971197 0 83 C-2.4375 81.5625 -2.4375 81.5625 -4 79 C-4.15258789 76.78100586 -4.15258789 76.78100586 -4.09765625 74.33984375 C-4.08355713 73.52765381 -4.06945801 72.71546387 -4.05493164 71.87866211 C-4.02774048 70.94872437 -4.02774048 70.94872437 -4 70 C9.41600838 63.47870175 22.91772605 57.16582201 36.5 51 C37.21864227 50.67353485 37.93728455 50.3470697 38.67770386 50.01071167 C45.42669052 46.94677642 52.17971891 43.90243272 59 41 C59 37.04 59 33.08 59 29 C55.08466592 27.10137371 51.16807306 25.20546244 47.25 23.3125 C46.35678543 22.88073456 46.35678543 22.88073456 45.44552612 22.44024658 C38.36086368 19.01869479 31.25988284 15.63811561 24.11328125 12.34765625 C23.47693756 12.05435928 22.84059387 11.76106232 22.18496704 11.45887756 C19.10659063 10.04144394 16.02544153 8.63076075 12.94042969 7.2277832 C11.82700195 6.71691162 10.71357422 6.20604004 9.56640625 5.6796875 C8.09602905 5.01042236 8.09602905 5.01042236 6.59594727 4.32763672 C4.16161614 3.08265481 2.12363195 1.71283925 0 0 Z " fill="#000001" transform="translate(435,219)"/>
<path d="M0 0 C8.07500187 0.18201848 13.65109347 1.75302097 19.5 7.46484375 C26.44840019 15.9228666 26.44625289 27.92362953 26.36328125 38.31640625 C26.36402901 40.14473244 26.36402901 40.14473244 26.36479187 42.00999451 C26.36246832 44.56209969 26.35284269 47.11420791 26.33618164 49.66625977 C26.31237509 53.58305089 26.31566049 57.49916947 26.32226562 61.41601562 C26.31669499 63.9036499 26.309589 66.39128133 26.30078125 68.87890625 C26.30214836 70.63661095 26.30214836 70.63661095 26.30354309 72.42982483 C26.29401108 73.51202805 26.28447906 74.59423126 26.2746582 75.70922852 C26.27005081 76.66120621 26.26544342 77.6131839 26.26069641 78.5940094 C26 81 26 81 24 84 C21.05078125 84.37231445 21.05078125 84.37231445 17.3125 84.36328125 C16.65419189 84.36377975 15.99588379 84.36427826 15.31762695 84.36479187 C13.92558779 84.36245104 12.53354443 84.3527218 11.14160156 84.33618164 C9.0080795 84.31258934 6.87580681 84.3156196 4.7421875 84.32226562 C-5.72090689 84.27909311 -5.72090689 84.27909311 -8 82 C-8.23046875 79.65234375 -8.23046875 79.65234375 -8.1875 76.9375 C-8.18105469 76.03902344 -8.17460937 75.14054687 -8.16796875 74.21484375 C-8 72 -8 72 -7 71 C-5.5112814 70.91330568 -4.018555 70.89296506 -2.52734375 70.90234375 C-1.62822266 70.90556641 -0.72910156 70.90878906 0.19726562 70.91210938 C1.61555664 70.92467773 1.61555664 70.92467773 3.0625 70.9375 C4.01189453 70.94201172 4.96128906 70.94652344 5.93945312 70.95117188 C8.29303065 70.9629989 10.64648477 70.97947975 13 71 C12.9581118 63.79540371 12.88557301 56.59156626 12.79248047 49.38745117 C12.76438707 46.94058086 12.74311517 44.49362175 12.72900391 42.04663086 C12.70741338 38.51370158 12.66067886 34.98182693 12.609375 31.44921875 C12.60814636 30.36855637 12.60691772 29.28789398 12.60565186 28.17448425 C12.43258182 19.04424436 10.69721863 9.69721863 4 3 C2.67607028 1.98758315 1.34400833 0.98560611 0 0 Z " fill="#000101" transform="translate(393,223)"/>
<path d="M0 0 C7.81254995 0.50347544 13.12528406 1.78409265 18.6875 7.625 C26.52530497 17.07189075 26.15502561 29.14666256 26.1328125 40.83203125 C26.13376923 41.94559494 26.13472595 43.05915863 26.13571167 44.20646667 C26.1363892 46.54706886 26.13456485 48.88767296 26.13037109 51.22827148 C26.1249914 54.81823908 26.13034357 58.40808301 26.13671875 61.99804688 C26.13605839 64.27604194 26.1347781 66.55403693 26.1328125 68.83203125 C26.13483673 69.9070137 26.13686096 70.98199615 26.13894653 72.08955383 C26.13421829 73.58206917 26.13421829 73.58206917 26.12939453 75.10473633 C26.12859894 75.97995438 26.12780334 76.85517242 26.12698364 77.75691223 C26 80 26 80 25 83 C22.14992869 84.42503565 19.71379745 84.12980035 16.53125 84.1328125 C14.59185547 84.13474609 14.59185547 84.13474609 12.61328125 84.13671875 C11.93861816 84.13462402 11.26395508 84.1325293 10.56884766 84.13037109 C8.50806311 84.12502093 6.44749651 84.13032035 4.38671875 84.13671875 C3.09378906 84.13542969 1.80085938 84.13414062 0.46875 84.1328125 C-0.72298828 84.13168457 -1.91472656 84.13055664 -3.14257812 84.12939453 C-6 84 -6 84 -8 83 C-9.37097852 79.43545584 -9.07243154 75.76644005 -9 72 C-6.17588235 71.05862745 -4.47081968 70.88274618 -1.55078125 70.90234375 C-0.70322266 70.90556641 0.14433594 70.90878906 1.01757812 70.91210938 C2.33918945 70.92467773 2.33918945 70.92467773 3.6875 70.9375 C5.02651367 70.94426758 5.02651367 70.94426758 6.39257812 70.95117188 C8.59511987 70.96295017 10.79752599 70.97939836 13 71 C12.93247984 64.24102931 12.84247651 57.48261363 12.73754883 50.72412109 C12.70449342 48.42959206 12.67640255 46.1349855 12.65356445 43.84033203 C12.61965963 40.52342993 12.56732821 37.20722608 12.51171875 33.890625 C12.50532883 32.88074524 12.4989389 31.87086548 12.49235535 30.8303833 C12.31503423 22.05030426 11.55089786 13.07837579 6 6 C6 5.34 6 4.68 6 4 C5.38125 3.71125 4.7625 3.4225 4.125 3.125 C2 2 2 2 0 0 Z " fill="#000101" transform="translate(309,223)"/>
<path d="M0 0 C7.81254995 0.50347544 13.12528406 1.78409265 18.6875 7.625 C26.52530497 17.07189075 26.15502561 29.14666256 26.1328125 40.83203125 C26.13376923 41.94559494 26.13472595 43.05915863 26.13571167 44.20646667 C26.1363892 46.54706886 26.13456485 48.88767296 26.13037109 51.22827148 C26.1249914 54.81823908 26.13034357 58.40808301 26.13671875 61.99804688 C26.13605839 64.27604194 26.1347781 66.55403693 26.1328125 68.83203125 C26.13483673 69.9070137 26.13686096 70.98199615 26.13894653 72.08955383 C26.13421829 73.58206917 26.13421829 73.58206917 26.12939453 75.10473633 C26.12859894 75.97995438 26.12780334 76.85517242 26.12698364 77.75691223 C26 80 26 80 25 83 C22.14992869 84.42503565 19.71379745 84.12980035 16.53125 84.1328125 C14.59185547 84.13474609 14.59185547 84.13474609 12.61328125 84.13671875 C11.93861816 84.13462402 11.26395508 84.1325293 10.56884766 84.13037109 C8.50806311 84.12502093 6.44749651 84.13032035 4.38671875 84.13671875 C3.09378906 84.13542969 1.80085937 84.13414062 0.46875 84.1328125 C-0.72298828 84.13168457 -1.91472656 84.13055664 -3.14257812 84.12939453 C-6 84 -6 84 -8 83 C-9.37097852 79.43545584 -9.07243154 75.76644005 -9 72 C-6.17588235 71.05862745 -4.47081968 70.88274618 -1.55078125 70.90234375 C-0.70322266 70.90556641 0.14433594 70.90878906 1.01757812 70.91210938 C2.33918945 70.92467773 2.33918945 70.92467773 3.6875 70.9375 C5.02651367 70.94426758 5.02651367 70.94426758 6.39257812 70.95117188 C8.59511987 70.96295017 10.79752599 70.97939836 13 71 C12.93247984 64.24102931 12.84247651 57.48261363 12.73754883 50.72412109 C12.70449342 48.42959206 12.67640255 46.1349855 12.65356445 43.84033203 C12.61965963 40.52342993 12.56732821 37.20722608 12.51171875 33.890625 C12.50532883 32.88074524 12.4989389 31.87086548 12.49235535 30.8303833 C12.31503423 22.05030426 11.55089786 13.07837579 6 6 C6 5.34 6 4.68 6 4 C5.38125 3.71125 4.7625 3.4225 4.125 3.125 C2 2 2 2 0 0 Z " fill="#000101" transform="translate(225,223)"/>
<path d="M0 0 C3.60229979 2.85182067 4.69942501 4.35474743 5.51953125 8.84375 C5.7829892 11.56966161 5.94642038 14.26256858 6 17 C5.54625 16.505 5.0925 16.01 4.625 15.5 C3.12364481 13.77390663 3.12364481 13.77390663 1 14 C-1.97557132 15.48778566 -2.60804154 16.96022439 -4 20 C-4.44678359 23.33475487 -4.44098646 26.64691648 -4.44140625 30.0078125 C-4.45461411 30.97024872 -4.46782196 31.93268494 -4.48143005 32.92428589 C-4.52225139 35.99122043 -4.54398266 39.05785554 -4.5625 42.125 C-4.58628069 45.19919502 -4.61436786 48.27310782 -4.65428162 51.34713745 C-4.67865331 53.25794634 -4.69349991 55.16890524 -4.69789124 57.0798645 C-4.70807785 57.94441254 -4.71826447 58.80896057 -4.72875977 59.69970703 C-4.73303482 60.45961945 -4.73730988 61.21953186 -4.74171448 62.00247192 C-5 64 -5 64 -7 67 C-9.94921875 67.37231445 -9.94921875 67.37231445 -13.6875 67.36328125 C-14.34580811 67.36377975 -15.00411621 67.36427826 -15.68237305 67.36479187 C-17.07441221 67.36245104 -18.46645557 67.3527218 -19.85839844 67.33618164 C-21.9919205 67.31258934 -24.12419319 67.3156196 -26.2578125 67.32226562 C-36.72090689 67.27909311 -36.72090689 67.27909311 -39 65 C-39.23046875 62.65234375 -39.23046875 62.65234375 -39.1875 59.9375 C-39.18105469 59.03902344 -39.17460937 58.14054687 -39.16796875 57.21484375 C-39 55 -39 55 -38 54 C-36.5112814 53.91330568 -35.018555 53.89296506 -33.52734375 53.90234375 C-32.62822266 53.90556641 -31.72910156 53.90878906 -30.80273438 53.91210938 C-29.38444336 53.92467773 -29.38444336 53.92467773 -27.9375 53.9375 C-26.98810547 53.94201172 -26.03871094 53.94652344 -25.06054688 53.95117188 C-22.70696935 53.9629989 -20.35351523 53.97947975 -18 54 C-18.00888245 53.45178085 -18.01776489 52.90356171 -18.0269165 52.33872986 C-18.11568748 46.61207549 -18.17585701 40.88561787 -18.21972656 35.15844727 C-18.23979182 33.02360082 -18.26705058 30.888809 -18.30175781 28.75415039 C-18.35049943 25.67841075 -18.37302006 22.60340031 -18.390625 19.52734375 C-18.41127014 18.57915268 -18.43191528 17.63096161 -18.45318604 16.65403748 C-18.45523557 10.54591739 -17.56136769 7.00246203 -14 2 C-9.79249318 -1.84686338 -5.22234569 -1.65563496 0 0 Z " fill="#010102" transform="translate(378,240)"/>
<path d="M0 0 C3.47241719 2.02751876 5.70279738 4.10839215 7 8 C7.12781786 10.67394964 7.04391871 13.32095857 7 16 C6.236875 15.773125 5.47375 15.54625 4.6875 15.3125 C2.0109092 14.69650059 2.0109092 14.69650059 0.25 16.25 C-1.85734015 19.20027621 -2.1299832 21.82107154 -2.17358398 25.33203125 C-2.18707382 26.20303467 -2.20056366 27.07403809 -2.21446228 27.97143555 C-2.22490067 28.90898682 -2.23533905 29.84653809 -2.24609375 30.8125 C-2.27902065 32.79427544 -2.31223248 34.77604617 -2.34570312 36.7578125 C-2.39319751 39.88505937 -2.43765381 43.01228555 -2.47680664 46.13964844 C-2.51644285 49.15579791 -2.56799514 52.17156176 -2.62109375 55.1875 C-2.6295079 56.12505127 -2.63792206 57.06260254 -2.64659119 58.02856445 C-2.66323318 58.89956787 -2.67987518 59.77057129 -2.69702148 60.66796875 C-2.70732895 61.43391357 -2.71763641 62.1998584 -2.72825623 62.98901367 C-3 65 -3 65 -5 68 C-7.94921875 68.37231445 -7.94921875 68.37231445 -11.6875 68.36328125 C-12.34580811 68.36377975 -13.00411621 68.36427826 -13.68237305 68.36479187 C-15.07441221 68.36245104 -16.46645557 68.3527218 -17.85839844 68.33618164 C-19.9919205 68.31258934 -22.12419319 68.3156196 -24.2578125 68.32226562 C-34.72090689 68.27909311 -34.72090689 68.27909311 -37 66 C-37.23046875 63.65234375 -37.23046875 63.65234375 -37.1875 60.9375 C-37.18105469 60.03902344 -37.17460937 59.14054687 -37.16796875 58.21484375 C-37 56 -37 56 -36 55 C-34.5112814 54.91330568 -33.018555 54.89296506 -31.52734375 54.90234375 C-30.62822266 54.90556641 -29.72910156 54.90878906 -28.80273438 54.91210938 C-27.38444336 54.92467773 -27.38444336 54.92467773 -25.9375 54.9375 C-24.98810547 54.94201172 -24.03871094 54.94652344 -23.06054688 54.95117188 C-20.70696935 54.9629989 -18.35351523 54.97947975 -16 55 C-16.00888245 54.45178085 -16.01776489 53.90356171 -16.0269165 53.33872986 C-16.11568748 47.61207549 -16.17585701 41.88561787 -16.21972656 36.15844727 C-16.23979182 34.02360082 -16.26705058 31.888809 -16.30175781 29.75415039 C-16.35049943 26.67841075 -16.37302006 23.60340031 -16.390625 20.52734375 C-16.41127014 19.57915268 -16.43191528 18.63096161 -16.45318604 17.65403748 C-16.45523428 11.54975288 -15.57256616 7.99311786 -12 3 C-8.14185069 -0.23250348 -4.95410427 -0.69531288 0 0 Z " fill="#010102" transform="translate(292,239)"/>
<path d="M0 0 C3.47241719 2.02751876 5.70279738 4.10839215 7 8 C7.12781786 10.67394964 7.04391871 13.32095857 7 16 C6.236875 15.773125 5.47375 15.54625 4.6875 15.3125 C2.0109092 14.69650059 2.0109092 14.69650059 0.25 16.25 C-1.85734015 19.20027621 -2.1299832 21.82107154 -2.17358398 25.33203125 C-2.18707382 26.20303467 -2.20056366 27.07403809 -2.21446228 27.97143555 C-2.22490067 28.90898682 -2.23533905 29.84653809 -2.24609375 30.8125 C-2.27902065 32.79427544 -2.31223248 34.77604617 -2.34570312 36.7578125 C-2.39319751 39.88505937 -2.43765381 43.01228555 -2.47680664 46.13964844 C-2.51644285 49.15579791 -2.56799514 52.17156176 -2.62109375 55.1875 C-2.6295079 56.12505127 -2.63792206 57.06260254 -2.64659119 58.02856445 C-2.66323318 58.89956787 -2.67987518 59.77057129 -2.69702148 60.66796875 C-2.70732895 61.43391357 -2.71763641 62.1998584 -2.72825623 62.98901367 C-3 65 -3 65 -5 68 C-7.94921875 68.37231445 -7.94921875 68.37231445 -11.6875 68.36328125 C-12.34580811 68.36377975 -13.00411621 68.36427826 -13.68237305 68.36479187 C-15.07441221 68.36245104 -16.46645557 68.3527218 -17.85839844 68.33618164 C-19.9919205 68.31258934 -22.12419319 68.3156196 -24.2578125 68.32226562 C-34.72090689 68.27909311 -34.72090689 68.27909311 -37 66 C-37.23046875 63.65234375 -37.23046875 63.65234375 -37.1875 60.9375 C-37.18105469 60.03902344 -37.17460937 59.14054687 -37.16796875 58.21484375 C-37 56 -37 56 -36 55 C-34.5112814 54.91330568 -33.018555 54.89296506 -31.52734375 54.90234375 C-30.62822266 54.90556641 -29.72910156 54.90878906 -28.80273438 54.91210938 C-27.38444336 54.92467773 -27.38444336 54.92467773 -25.9375 54.9375 C-24.98810547 54.94201172 -24.03871094 54.94652344 -23.06054688 54.95117188 C-20.70696935 54.9629989 -18.35351523 54.97947975 -16 55 C-16.00888245 54.45178085 -16.01776489 53.90356171 -16.0269165 53.33872986 C-16.11568748 47.61207549 -16.17585701 41.88561787 -16.21972656 36.15844727 C-16.23979182 34.02360082 -16.26705058 31.888809 -16.30175781 29.75415039 C-16.35049943 26.67841075 -16.37302006 23.60340031 -16.390625 20.52734375 C-16.41127014 19.57915268 -16.43191528 18.63096161 -16.45318604 17.65403748 C-16.45523428 11.54975288 -15.57256616 7.99311786 -12 3 C-8.14185069 -0.23250348 -4.95410427 -0.69531288 0 0 Z " fill="#010102" transform="translate(208,239)"/>
<path d="M0 0 C3.63 0 7.26 0 11 0 C14.14113336 4.71170004 13.56220627 9.73417414 13.64526367 15.28686523 C13.67332088 16.63247575 13.72104517 17.97782594 13.78881836 19.32202148 C14.35042436 30.50608227 14.35042436 30.50608227 11.08837891 34.11474609 C8.70703125 35.66796875 8.70703125 35.66796875 6.33520508 36.81323242 C3.46821018 38.11843938 3.46821018 38.11843938 0 42 C0 28.14 0 14.28 0 0 Z " fill="#000000" transform="translate(276,191)"/>
<path d="M0 0 C3.63 0 7.26 0 11 0 C14.14113336 4.71170004 13.56220627 9.73417414 13.64526367 15.28686523 C13.67332088 16.63247575 13.72104517 17.97782594 13.78881836 19.32202148 C14.35042436 30.50608227 14.35042436 30.50608227 11.08837891 34.11474609 C8.70703125 35.66796875 8.70703125 35.66796875 6.33520508 36.81323242 C3.46821018 38.11843938 3.46821018 38.11843938 0 42 C0 28.14 0 14.28 0 0 Z " fill="#000000" transform="translate(192,191)"/>
<path d="M0 0 C4.09699027 0.66651887 7.64986983 1.96142124 11.48046875 3.546875 C12.09336258 3.79995422 12.70625641 4.05303345 13.33772278 4.31378174 C14.63207248 4.8495533 15.92548951 5.38758301 17.21801758 5.92773438 C19.16173207 6.7392418 21.10887117 7.5420322 23.05664062 8.34375 C30.18248954 11.29444883 37.1674609 14.41709536 44 18 C41.99725991 20.00274009 40.83638941 20.63254825 38.25 21.625 C37.59515625 21.88539063 36.9403125 22.14578125 36.265625 22.4140625 C30.99246743 23.77781015 26.95852916 22.87787049 22.05078125 20.734375 C20.95572266 20.25613281 19.86066406 19.77789062 18.73242188 19.28515625 C17.60384766 18.77855469 16.47527344 18.27195313 15.3125 17.75 C14.17232422 17.25886719 13.03214844 16.76773438 11.85742188 16.26171875 C10.76623047 15.77832031 9.67503906 15.29492188 8.55078125 14.796875 C7.55731689 14.35698242 6.56385254 13.91708984 5.5402832 13.46386719 C2.85840614 11.91840492 1.5776909 10.63847266 0 8 C-0.37460816 5.26286305 -0.13898721 2.77974416 0 0 Z " fill="#000101" transform="translate(431,236)"/>
<path d="M0 0 C2.64 0 5.28 0 8 0 C7.04270084 1.12588014 6.08412105 2.2506715 5.125 3.375 C4.59132813 4.00148437 4.05765625 4.62796875 3.5078125 5.2734375 C2.38567993 6.55836651 1.20628025 7.79371975 0 9 C0 6.03 0 3.06 0 0 Z " fill="#020405" transform="translate(360,225)"/>
</svg>
