<svg xmlns="http://www.w3.org/2000/svg" xmlns:xlink="http://www.w3.org/1999/xlink" width="498" zoomAndPan="magnify" viewBox="0 0 373.5 200.249992" height="267" preserveAspectRatio="xMidYMid meet" version="1.0"><defs><clipPath id="6b3c311ada"><path d="M 110 0 L 371 0 L 371 178.441406 L 110 178.441406 Z M 110 0 " clip-rule="nonzero"/></clipPath><clipPath id="8ec7fd02f2"><path d="M 203 126 L 277 126 L 277 178.441406 L 203 178.441406 Z M 203 126 " clip-rule="nonzero"/></clipPath><clipPath id="719c2d09bb"><path d="M 2 20.886719 L 263 20.886719 L 263 199 L 2 199 Z M 2 20.886719 " clip-rule="nonzero"/></clipPath><clipPath id="14f416d0ee"><path d="M 96 20.886719 L 170 20.886719 L 170 73 L 96 73 Z M 96 20.886719 " clip-rule="nonzero"/></clipPath></defs><g clip-path="url(#6b3c311ada)"><path fill="#f1f5f9" d="M 362.636719 178.441406 L 333.410156 178.441406 C 331.050781 178.441406 328.929688 177.378906 327.515625 175.609375 L 245.957031 69.890625 C 243.011719 66.117188 237.117188 66.117188 234.171875 69.890625 L 152.730469 175.609375 C 151.3125 177.378906 149.191406 178.441406 146.835938 178.441406 L 117.605469 178.441406 C 111.59375 178.441406 108.058594 171.722656 111.714844 166.890625 L 234.289062 3.886719 C 237.234375 0 243.246094 0 246.191406 3.886719 L 368.648438 166.890625 C 372.183594 171.722656 368.765625 178.441406 362.636719 178.441406 Z M 362.636719 178.441406 " fill-opacity="1" fill-rule="nonzero"/></g><g clip-path="url(#8ec7fd02f2)"><path fill="#f1f5f9" d="M 269.527344 178.441406 L 210.714844 178.441406 C 204.351562 178.441406 200.933594 170.660156 205.058594 165.59375 L 234.40625 129.292969 C 237.351562 125.636719 242.773438 125.636719 245.839844 129.292969 L 275.1875 165.59375 C 279.3125 170.660156 275.894531 178.441406 269.527344 178.441406 Z M 269.527344 178.441406 " fill-opacity="1" fill-rule="nonzero"/></g><g clip-path="url(#719c2d09bb)"><path fill="#f1f5f9" d="M 255.390625 20.886719 L 226.160156 20.886719 C 223.800781 20.886719 221.679688 21.949219 220.265625 23.71875 L 138.707031 129.4375 C 135.761719 133.210938 129.867188 133.210938 126.921875 129.4375 L 45.480469 23.71875 C 44.066406 21.949219 41.945312 20.886719 39.585938 20.886719 L 10.355469 20.886719 C 4.347656 20.886719 0.808594 27.605469 4.464844 32.4375 L 127.039062 195.441406 C 129.984375 199.328125 135.996094 199.328125 138.941406 195.441406 L 261.398438 32.4375 C 264.9375 27.605469 261.519531 20.886719 255.390625 20.886719 Z M 255.390625 20.886719 " fill-opacity="1" fill-rule="nonzero"/></g><g clip-path="url(#14f416d0ee)"><path fill="#f1f5f9" d="M 162.28125 20.886719 L 103.46875 20.886719 C 97.101562 20.886719 93.683594 28.667969 97.808594 33.734375 L 127.15625 70.035156 C 130.101562 73.691406 135.523438 73.691406 138.589844 70.035156 L 167.9375 33.734375 C 172.0625 28.667969 168.644531 20.886719 162.28125 20.886719 Z M 162.28125 20.886719 " fill-opacity="1" fill-rule="nonzero"/></g></svg>