<svg xmlns="http://www.w3.org/2000/svg" xmlns:xlink="http://www.w3.org/1999/xlink" width="600" zoomAndPan="magnify" viewBox="0 0 450 264.749989" height="353" preserveAspectRatio="xMidYMid meet" version="1.0"><defs><g/></defs><g fill="#0f172a" fill-opacity="1"><g transform="translate(38.140499, 195.949963)"><g><path d="M 113.3125 0 L 85.140625 0 L 85.140625 -43.046875 L 39.25 -43.046875 L 39.25 0 L 11.078125 0 L 11.078125 -110.78125 L 39.25 -110.78125 L 39.25 -65.203125 L 85.140625 -65.203125 L 85.140625 -110.78125 L 113.3125 -110.78125 Z M 113.3125 0 "/></g></g></g><g fill="#004ca3" fill-opacity="1"><g transform="translate(162.534744, 195.949963)"><g><path d="M 113.3125 0 L 85.140625 0 L 85.140625 -43.046875 L 39.25 -43.046875 L 39.25 0 L 11.078125 0 L 11.078125 -110.78125 L 39.25 -110.78125 L 39.25 -65.203125 L 85.140625 -65.203125 L 85.140625 -110.78125 L 113.3125 -110.78125 Z M 113.3125 0 "/></g></g></g><g fill="#004ca3" fill-opacity="1"><g transform="translate(286.921499, 195.949963)"><g><path d="M 113.3125 0 L 88.46875 0 L 37.515625 -68.21875 L 37.515625 0 L 11.078125 0 L 11.078125 -110.78125 L 35.921875 -110.78125 L 87.046875 -42.421875 L 87.046875 -110.78125 L 113.3125 -110.78125 Z M 113.3125 0 "/></g></g></g><g fill="#0f172a" fill-opacity="1"><g transform="translate(50.043442, 237.150178)"><g><path d="M 2.3125 -17.640625 L 9.546875 -17.640625 C 12.191406 -17.640625 14.375 -16.804688 16.09375 -15.140625 C 17.8125 -13.484375 18.671875 -11.375 18.671875 -8.8125 C 18.671875 -6.257812 17.804688 -4.148438 16.078125 -2.484375 C 14.347656 -0.828125 12.144531 0 9.46875 0 L 2.3125 0 Z M 5.296875 -14.96875 L 5.296875 -2.671875 L 9.625 -2.671875 C 11.351562 -2.671875 12.789062 -3.242188 13.9375 -4.390625 C 15.09375 -5.546875 15.671875 -7.015625 15.671875 -8.796875 C 15.671875 -10.578125 15.078125 -12.050781 13.890625 -13.21875 C 12.710938 -14.382812 11.25 -14.96875 9.5 -14.96875 Z M 5.296875 -14.96875 "/></g></g></g><g fill="#0f172a" fill-opacity="1"><g transform="translate(79.326116, 237.150178)"><g><path d="M 3.546875 -15.15625 C 5.347656 -16.863281 7.566406 -17.71875 10.203125 -17.71875 C 12.847656 -17.71875 15.066406 -16.863281 16.859375 -15.15625 C 18.660156 -13.457031 19.5625 -11.347656 19.5625 -8.828125 C 19.5625 -6.304688 18.660156 -4.179688 16.859375 -2.453125 C 15.066406 -0.734375 12.847656 0.125 10.203125 0.125 C 7.566406 0.125 5.347656 -0.734375 3.546875 -2.453125 C 1.753906 -4.179688 0.859375 -6.304688 0.859375 -8.828125 C 0.859375 -11.347656 1.753906 -13.457031 3.546875 -15.15625 Z M 10.234375 -15.046875 C 8.484375 -15.046875 6.984375 -14.441406 5.734375 -13.234375 C 4.492188 -12.035156 3.875 -10.5625 3.875 -8.8125 C 3.875 -7.070312 4.5 -5.59375 5.75 -4.375 C 7.007812 -3.15625 8.503906 -2.546875 10.234375 -2.546875 C 11.960938 -2.546875 13.441406 -3.15625 14.671875 -4.375 C 15.898438 -5.59375 16.515625 -7.070312 16.515625 -8.8125 C 16.515625 -10.5625 15.898438 -12.035156 14.671875 -13.234375 C 13.441406 -14.441406 11.960938 -15.046875 10.234375 -15.046875 Z M 10.234375 -15.046875 "/></g></g></g><g fill="#0f172a" fill-opacity="1"><g transform="translate(109.490617, 237.150178)"><g><path d="M 10.125 -17.71875 C 11.375 -17.71875 12.585938 -17.476562 13.765625 -17 C 14.953125 -16.519531 15.972656 -15.851562 16.828125 -15 L 15.09375 -12.828125 C 14.457031 -13.515625 13.703125 -14.0625 12.828125 -14.46875 C 11.953125 -14.875 11.070312 -15.078125 10.1875 -15.078125 C 8.414062 -15.078125 6.921875 -14.472656 5.703125 -13.265625 C 4.484375 -12.066406 3.875 -10.601562 3.875 -8.875 C 3.875 -7.125 4.484375 -5.644531 5.703125 -4.4375 C 6.921875 -3.238281 8.414062 -2.640625 10.1875 -2.640625 C 12.007812 -2.640625 13.644531 -3.335938 15.09375 -4.734375 L 16.859375 -2.765625 C 15.953125 -1.878906 14.894531 -1.175781 13.6875 -0.65625 C 12.476562 -0.132812 11.257812 0.125 10.03125 0.125 C 7.445312 0.125 5.269531 -0.734375 3.5 -2.453125 C 1.738281 -4.179688 0.859375 -6.3125 0.859375 -8.84375 C 0.859375 -11.351562 1.75 -13.457031 3.53125 -15.15625 C 5.320312 -16.863281 7.519531 -17.71875 10.125 -17.71875 Z M 10.125 -17.71875 "/></g></g></g><g fill="#0f172a" fill-opacity="1"><g transform="translate(136.808102, 237.150178)"><g><path d="M 17.3125 -17.640625 L 17.3125 -7.3125 C 17.3125 -5.007812 16.628906 -3.191406 15.265625 -1.859375 C 13.910156 -0.535156 12.039062 0.125 9.65625 0.125 C 7.269531 0.125 5.390625 -0.535156 4.015625 -1.859375 C 2.648438 -3.191406 1.96875 -5.007812 1.96875 -7.3125 L 1.96875 -17.640625 L 4.9375 -17.640625 L 4.9375 -7.3125 C 4.9375 -5.832031 5.359375 -4.664062 6.203125 -3.8125 C 7.054688 -2.96875 8.210938 -2.546875 9.671875 -2.546875 C 11.117188 -2.546875 12.257812 -2.960938 13.09375 -3.796875 C 13.925781 -4.640625 14.34375 -5.8125 14.34375 -7.3125 L 14.34375 -17.640625 Z M 17.3125 -17.640625 "/></g></g></g><g fill="#0f172a" fill-opacity="1"><g transform="translate(165.813633, 237.150178)"><g><path d="M 20.96875 0 L 18.21875 0 L 18.203125 -13.1875 L 12.625 -1.84375 L 10.6875 -1.84375 L 5.109375 -13.1875 L 5.109375 0 L 2.3125 0 L 2.3125 -17.640625 L 5.84375 -17.640625 L 11.671875 -5.921875 L 17.46875 -17.640625 L 20.96875 -17.640625 Z M 20.96875 0 "/></g></g></g><g fill="#0f172a" fill-opacity="1"><g transform="translate(198.875553, 237.150178)"><g><path d="M 14.921875 -14.96875 L 5.296875 -14.96875 L 5.296875 -10.203125 L 13.90625 -10.203125 L 13.90625 -7.53125 L 5.296875 -7.53125 L 5.296875 -2.671875 L 15.21875 -2.671875 L 15.21875 0 L 2.3125 0 L 2.3125 -17.640625 L 14.921875 -17.640625 Z M 14.921875 -14.96875 "/></g></g></g><g fill="#0f172a" fill-opacity="1"><g transform="translate(225.160034, 237.150178)"><g><path d="M 17.609375 0 L 14.6875 0 L 5.296875 -12.65625 L 5.296875 0 L 2.3125 0 L 2.3125 -17.640625 L 5.25 -17.640625 L 14.6875 -4.96875 L 14.6875 -17.640625 L 17.609375 -17.640625 Z M 17.609375 0 "/></g></g></g><g fill="#0f172a" fill-opacity="1"><g transform="translate(254.871028, 237.150178)"><g><path d="M 14.359375 -14.96875 L 8.765625 -14.96875 L 8.765625 0 L 5.796875 0 L 5.796875 -14.96875 L 0.234375 -14.96875 L 0.234375 -17.640625 L 14.359375 -17.640625 Z M 14.359375 -14.96875 "/></g></g></g><g fill="#0f172a" fill-opacity="1"><g transform="translate(279.215508, 237.150178)"><g><path d="M 13.703125 -3.984375 L 4.8125 -3.984375 L 3.125 0 L 0.03125 0 L 7.8125 -17.640625 L 10.859375 -17.640625 L 18.578125 0 L 15.40625 0 Z M 12.578125 -6.625 L 9.25 -14.46875 L 5.921875 -6.625 Z M 12.578125 -6.625 "/></g></g></g><g fill="#0f172a" fill-opacity="1"><g transform="translate(307.565985, 237.150178)"><g><path d="M 14.359375 -14.96875 L 8.765625 -14.96875 L 8.765625 0 L 5.796875 0 L 5.796875 -14.96875 L 0.234375 -14.96875 L 0.234375 -17.640625 L 14.359375 -17.640625 Z M 14.359375 -14.96875 "/></g></g></g><g fill="#0f172a" fill-opacity="1"><g transform="translate(331.910465, 237.150178)"><g><path d="M 5.296875 0 L 2.3125 0 L 2.3125 -17.640625 L 5.296875 -17.640625 Z M 5.296875 0 "/></g></g></g><g fill="#0f172a" fill-opacity="1"><g transform="translate(349.27597, 237.150178)"><g><path d="M 3.546875 -15.15625 C 5.347656 -16.863281 7.566406 -17.71875 10.203125 -17.71875 C 12.847656 -17.71875 15.066406 -16.863281 16.859375 -15.15625 C 18.660156 -13.457031 19.5625 -11.347656 19.5625 -8.828125 C 19.5625 -6.304688 18.660156 -4.179688 16.859375 -2.453125 C 15.066406 -0.734375 12.847656 0.125 10.203125 0.125 C 7.566406 0.125 5.347656 -0.734375 3.546875 -2.453125 C 1.753906 -4.179688 0.859375 -6.304688 0.859375 -8.828125 C 0.859375 -11.347656 1.753906 -13.457031 3.546875 -15.15625 Z M 10.234375 -15.046875 C 8.484375 -15.046875 6.984375 -14.441406 5.734375 -13.234375 C 4.492188 -12.035156 3.875 -10.5625 3.875 -8.8125 C 3.875 -7.070312 4.5 -5.59375 5.75 -4.375 C 7.007812 -3.15625 8.503906 -2.546875 10.234375 -2.546875 C 11.960938 -2.546875 13.441406 -3.15625 14.671875 -4.375 C 15.898438 -5.59375 16.515625 -7.070312 16.515625 -8.8125 C 16.515625 -10.5625 15.898438 -12.035156 14.671875 -13.234375 C 13.441406 -14.441406 11.960938 -15.046875 10.234375 -15.046875 Z M 10.234375 -15.046875 "/></g></g></g><g fill="#0f172a" fill-opacity="1"><g transform="translate(379.440476, 237.150178)"><g><path d="M 17.609375 0 L 14.6875 0 L 5.296875 -12.65625 L 5.296875 0 L 2.3125 0 L 2.3125 -17.640625 L 5.25 -17.640625 L 14.6875 -4.96875 L 14.6875 -17.640625 L 17.609375 -17.640625 Z M 17.609375 0 "/></g></g></g></svg>