<svg xmlns="http://www.w3.org/2000/svg" xmlns:xlink="http://www.w3.org/1999/xlink" width="516" zoomAndPan="magnify" viewBox="0 0 386.88 245.999995" height="328" preserveAspectRatio="xMidYMid meet" version="1.0"><defs><g/><clipPath id="c8d05be487"><path d="M 117 1 L 379 1 L 379 179.101562 L 117 179.101562 Z M 117 1 " clip-rule="nonzero"/></clipPath><clipPath id="a8e648ffe0"><path d="M 210 127 L 285 127 L 285 179.101562 L 210 179.101562 Z M 210 127 " clip-rule="nonzero"/></clipPath><clipPath id="6104134493"><path d="M 8 20.253906 L 270 20.253906 L 270 199 L 8 199 Z M 8 20.253906 " clip-rule="nonzero"/></clipPath><clipPath id="acaf2eaec1"><path d="M 101 20.253906 L 176 20.253906 L 176 73 L 101 73 Z M 101 20.253906 " clip-rule="nonzero"/></clipPath></defs><g fill="#ffffff" fill-opacity="1"><g transform="translate(23.279548, 233.698889)"><g><path d="M 2.25 -17.15625 L 9.296875 -17.15625 C 11.859375 -17.15625 13.976562 -16.347656 15.65625 -14.734375 C 17.332031 -13.117188 18.171875 -11.066406 18.171875 -8.578125 C 18.171875 -6.097656 17.328125 -4.046875 15.640625 -2.421875 C 13.953125 -0.804688 11.8125 0 9.21875 0 L 2.25 0 Z M 5.140625 -14.5625 L 5.140625 -2.59375 L 9.359375 -2.59375 C 11.046875 -2.59375 12.445312 -3.148438 13.5625 -4.265625 C 14.6875 -5.390625 15.25 -6.816406 15.25 -8.546875 C 15.25 -10.285156 14.671875 -11.722656 13.515625 -12.859375 C 12.367188 -13.992188 10.945312 -14.5625 9.25 -14.5625 Z M 5.140625 -14.5625 "/></g></g></g><g fill="#ffffff" fill-opacity="1"><g transform="translate(51.764149, 233.698889)"><g><path d="M 3.453125 -14.75 C 5.203125 -16.40625 7.359375 -17.234375 9.921875 -17.234375 C 12.492188 -17.234375 14.65625 -16.40625 16.40625 -14.75 C 18.15625 -13.09375 19.03125 -11.035156 19.03125 -8.578125 C 19.03125 -6.128906 18.15625 -4.066406 16.40625 -2.390625 C 14.65625 -0.710938 12.492188 0.125 9.921875 0.125 C 7.359375 0.125 5.203125 -0.710938 3.453125 -2.390625 C 1.703125 -4.066406 0.828125 -6.128906 0.828125 -8.578125 C 0.828125 -11.035156 1.703125 -13.09375 3.453125 -14.75 Z M 9.953125 -14.640625 C 8.253906 -14.640625 6.800781 -14.050781 5.59375 -12.875 C 4.382812 -11.707031 3.78125 -10.273438 3.78125 -8.578125 C 3.78125 -6.878906 4.382812 -5.4375 5.59375 -4.25 C 6.8125 -3.0625 8.265625 -2.46875 9.953125 -2.46875 C 11.640625 -2.46875 13.078125 -3.0625 14.265625 -4.25 C 15.460938 -5.4375 16.0625 -6.878906 16.0625 -8.578125 C 16.0625 -10.273438 15.460938 -11.707031 14.265625 -12.875 C 13.078125 -14.050781 11.640625 -14.640625 9.953125 -14.640625 Z M 9.953125 -14.640625 "/></g></g></g><g fill="#ffffff" fill-opacity="1"><g transform="translate(81.10661, 233.698889)"><g><path d="M 9.859375 -17.234375 C 11.066406 -17.234375 12.242188 -17 13.390625 -16.53125 C 14.546875 -16.070312 15.539062 -15.425781 16.375 -14.59375 L 14.6875 -12.484375 C 14.0625 -13.148438 13.320312 -13.675781 12.46875 -14.0625 C 11.625 -14.457031 10.769531 -14.65625 9.90625 -14.65625 C 8.1875 -14.65625 6.734375 -14.070312 5.546875 -12.90625 C 4.367188 -11.738281 3.78125 -10.3125 3.78125 -8.625 C 3.78125 -6.925781 4.367188 -5.492188 5.546875 -4.328125 C 6.734375 -3.160156 8.1875 -2.578125 9.90625 -2.578125 C 11.6875 -2.578125 13.28125 -3.253906 14.6875 -4.609375 L 16.40625 -2.703125 C 15.519531 -1.828125 14.488281 -1.132812 13.3125 -0.625 C 12.132812 -0.125 10.945312 0.125 9.75 0.125 C 7.238281 0.125 5.125 -0.710938 3.40625 -2.390625 C 1.6875 -4.066406 0.828125 -6.140625 0.828125 -8.609375 C 0.828125 -11.046875 1.695312 -13.09375 3.4375 -14.75 C 5.1875 -16.40625 7.328125 -17.234375 9.859375 -17.234375 Z M 9.859375 -17.234375 "/></g></g></g><g fill="#ffffff" fill-opacity="1"><g transform="translate(107.67937, 233.698889)"><g><path d="M 16.84375 -17.15625 L 16.84375 -7.109375 C 16.84375 -4.867188 16.179688 -3.101562 14.859375 -1.8125 C 13.535156 -0.519531 11.710938 0.125 9.390625 0.125 C 7.066406 0.125 5.238281 -0.519531 3.90625 -1.8125 C 2.570312 -3.101562 1.90625 -4.867188 1.90625 -7.109375 L 1.90625 -17.15625 L 4.8125 -17.15625 L 4.8125 -7.109375 C 4.8125 -5.671875 5.222656 -4.535156 6.046875 -3.703125 C 6.867188 -2.878906 7.988281 -2.46875 9.40625 -2.46875 C 10.8125 -2.46875 11.921875 -2.875 12.734375 -3.6875 C 13.546875 -4.507812 13.953125 -5.648438 13.953125 -7.109375 L 13.953125 -17.15625 Z M 16.84375 -17.15625 "/></g></g></g><g fill="#ffffff" fill-opacity="1"><g transform="translate(135.894347, 233.698889)"><g><path d="M 20.390625 0 L 17.71875 0 L 17.703125 -12.828125 L 12.28125 -1.796875 L 10.390625 -1.796875 L 4.984375 -12.828125 L 4.984375 0 L 2.25 0 L 2.25 -17.15625 L 5.6875 -17.15625 L 11.34375 -5.765625 L 16.984375 -17.15625 L 20.390625 -17.15625 Z M 20.390625 0 "/></g></g></g><g fill="#ffffff" fill-opacity="1"><g transform="translate(168.055528, 233.698889)"><g><path d="M 14.515625 -14.5625 L 5.140625 -14.5625 L 5.140625 -9.921875 L 13.53125 -9.921875 L 13.53125 -7.328125 L 5.140625 -7.328125 L 5.140625 -2.59375 L 14.8125 -2.59375 L 14.8125 0 L 2.25 0 L 2.25 -17.15625 L 14.515625 -17.15625 Z M 14.515625 -14.5625 "/></g></g></g><g fill="#ffffff" fill-opacity="1"><g transform="translate(193.623346, 233.698889)"><g><path d="M 17.140625 0 L 14.296875 0 L 5.140625 -12.3125 L 5.140625 0 L 2.25 0 L 2.25 -17.15625 L 5.09375 -17.15625 L 14.296875 -4.828125 L 14.296875 -17.15625 L 17.140625 -17.15625 Z M 17.140625 0 "/></g></g></g><g fill="#ffffff" fill-opacity="1"><g transform="translate(222.524619, 233.698889)"><g><path d="M 13.96875 -14.5625 L 8.53125 -14.5625 L 8.53125 0 L 5.640625 0 L 5.640625 -14.5625 L 0.21875 -14.5625 L 0.21875 -17.15625 L 13.96875 -17.15625 Z M 13.96875 -14.5625 "/></g></g></g><g fill="#ffffff" fill-opacity="1"><g transform="translate(246.205117, 233.698889)"><g><path d="M 13.34375 -3.875 L 4.6875 -3.875 L 3.046875 0 L 0.03125 0 L 7.59375 -17.15625 L 10.5625 -17.15625 L 18.0625 0 L 14.984375 0 Z M 12.234375 -6.453125 L 9 -14.078125 L 5.765625 -6.453125 Z M 12.234375 -6.453125 "/></g></g></g><g fill="#ffffff" fill-opacity="1"><g transform="translate(273.782818, 233.698889)"><g><path d="M 13.96875 -14.5625 L 8.53125 -14.5625 L 8.53125 0 L 5.640625 0 L 5.640625 -14.5625 L 0.21875 -14.5625 L 0.21875 -17.15625 L 13.96875 -17.15625 Z M 13.96875 -14.5625 "/></g></g></g><g fill="#ffffff" fill-opacity="1"><g transform="translate(297.463316, 233.698889)"><g><path d="M 5.140625 0 L 2.25 0 L 2.25 -17.15625 L 5.140625 -17.15625 Z M 5.140625 0 "/></g></g></g><g fill="#ffffff" fill-opacity="1"><g transform="translate(314.354392, 233.698889)"><g><path d="M 3.453125 -14.75 C 5.203125 -16.40625 7.359375 -17.234375 9.921875 -17.234375 C 12.492188 -17.234375 14.65625 -16.40625 16.40625 -14.75 C 18.15625 -13.09375 19.03125 -11.035156 19.03125 -8.578125 C 19.03125 -6.128906 18.15625 -4.066406 16.40625 -2.390625 C 14.65625 -0.710938 12.492188 0.125 9.921875 0.125 C 7.359375 0.125 5.203125 -0.710938 3.453125 -2.390625 C 1.703125 -4.066406 0.828125 -6.128906 0.828125 -8.578125 C 0.828125 -11.035156 1.703125 -13.09375 3.453125 -14.75 Z M 9.953125 -14.640625 C 8.253906 -14.640625 6.800781 -14.050781 5.59375 -12.875 C 4.382812 -11.707031 3.78125 -10.273438 3.78125 -8.578125 C 3.78125 -6.878906 4.382812 -5.4375 5.59375 -4.25 C 6.8125 -3.0625 8.265625 -2.46875 9.953125 -2.46875 C 11.640625 -2.46875 13.078125 -3.0625 14.265625 -4.25 C 15.460938 -5.4375 16.0625 -6.878906 16.0625 -8.578125 C 16.0625 -10.273438 15.460938 -11.707031 14.265625 -12.875 C 13.078125 -14.050781 11.640625 -14.640625 9.953125 -14.640625 Z M 9.953125 -14.640625 "/></g></g></g><g fill="#ffffff" fill-opacity="1"><g transform="translate(343.69685, 233.698889)"><g><path d="M 17.140625 0 L 14.296875 0 L 5.140625 -12.3125 L 5.140625 0 L 2.25 0 L 2.25 -17.15625 L 5.09375 -17.15625 L 14.296875 -4.828125 L 14.296875 -17.15625 L 17.140625 -17.15625 Z M 17.140625 0 "/></g></g></g><g clip-path="url(#c8d05be487)"><path fill="#008ae6" d="M 370.699219 179.101562 L 341.367188 179.101562 C 339.003906 179.101562 336.875 178.039062 335.453125 176.265625 L 253.613281 70.175781 C 250.65625 66.390625 244.742188 66.390625 241.785156 70.175781 L 160.058594 176.265625 C 158.640625 178.039062 156.511719 179.101562 154.148438 179.101562 L 124.816406 179.101562 C 118.785156 179.101562 115.234375 172.363281 118.902344 167.511719 L 241.902344 3.945312 C 244.859375 0.0429688 250.890625 0.0429688 253.847656 3.945312 L 376.730469 167.511719 C 380.277344 172.363281 376.847656 179.101562 370.699219 179.101562 Z M 370.699219 179.101562 " fill-opacity="1" fill-rule="nonzero"/></g><g clip-path="url(#a8e648ffe0)"><path fill="#008ae6" d="M 277.265625 179.101562 L 218.25 179.101562 C 211.863281 179.101562 208.433594 171.296875 212.570312 166.210938 L 242.019531 129.785156 C 244.976562 126.117188 250.417969 126.117188 253.492188 129.785156 L 282.941406 166.210938 C 287.082031 171.296875 283.652344 179.101562 277.265625 179.101562 Z M 277.265625 179.101562 " fill-opacity="1" fill-rule="nonzero"/></g><g clip-path="url(#6104134493)"><path fill="#008ae6" d="M 261.582031 20.253906 L 232.25 20.253906 C 229.886719 20.253906 227.757812 21.320312 226.335938 23.09375 L 144.496094 129.179688 C 141.539062 132.964844 135.625 132.964844 132.667969 129.179688 L 50.945312 23.09375 C 49.523438 21.320312 47.394531 20.253906 45.03125 20.253906 L 15.699219 20.253906 C 9.667969 20.253906 6.121094 26.996094 9.785156 31.84375 L 132.785156 195.414062 C 135.742188 199.316406 141.773438 199.316406 144.730469 195.414062 L 267.613281 31.84375 C 271.160156 26.996094 267.730469 20.253906 261.582031 20.253906 Z M 261.582031 20.253906 " fill-opacity="1" fill-rule="nonzero"/></g><g clip-path="url(#acaf2eaec1)"><path fill="#008ae6" d="M 168.148438 20.253906 L 109.132812 20.253906 C 102.746094 20.253906 99.316406 28.0625 103.457031 33.144531 L 132.90625 69.574219 C 135.859375 73.238281 141.300781 73.238281 144.375 69.574219 L 173.824219 33.144531 C 177.964844 28.0625 174.535156 20.253906 168.148438 20.253906 Z M 168.148438 20.253906 " fill-opacity="1" fill-rule="nonzero"/></g></svg>