<svg xmlns="http://www.w3.org/2000/svg" xmlns:xlink="http://www.w3.org/1999/xlink" width="500" zoomAndPan="magnify" viewBox="0 0 375 374.999991" height="500" preserveAspectRatio="xMidYMid meet" version="1.0"><defs><clipPath id="41881c9429"><path d="M 0 1.5 L 373.5 1.5 L 373.5 375 L 0 375 Z M 0 1.5 " clip-rule="nonzero"/></clipPath><clipPath id="189e1e380a"><path d="M 186.75 1.5 C 83.609375 1.5 0 85.109375 0 188.25 C 0 291.390625 83.609375 375 186.75 375 C 289.890625 375 373.5 291.390625 373.5 188.25 C 373.5 85.109375 289.890625 1.5 186.75 1.5 Z M 186.75 1.5 " clip-rule="nonzero"/></clipPath><clipPath id="0066ca6ac1"><path d="M 126 107 L 336 107 L 336 250.605469 L 126 250.605469 Z M 126 107 " clip-rule="nonzero"/></clipPath><clipPath id="8d053fd90f"><path d="M 201 208 L 261 208 L 261 250.605469 L 201 250.605469 Z M 201 208 " clip-rule="nonzero"/></clipPath><clipPath id="9740a19beb"><path d="M 39 123.582031 L 250 123.582031 L 250 267 L 39 267 Z M 39 123.582031 " clip-rule="nonzero"/></clipPath><clipPath id="cc23c943f8"><path d="M 114 123.582031 L 174 123.582031 L 174 166 L 114 166 Z M 114 123.582031 " clip-rule="nonzero"/></clipPath></defs><g clip-path="url(#41881c9429)"><g clip-path="url(#189e1e380a)"><path fill="#000000" d="M 0 1.5 L 373.5 1.5 L 373.5 375 L 0 375 Z M 0 1.5 " fill-opacity="1" fill-rule="nonzero"/></g></g><g clip-path="url(#0066ca6ac1)"><path fill="#f1f5f9" d="M 329.503906 250.605469 L 305.941406 250.605469 C 304.039062 250.605469 302.328125 249.75 301.1875 248.324219 L 235.433594 163.089844 C 233.058594 160.050781 228.308594 160.050781 225.933594 163.089844 L 160.273438 248.324219 C 159.132812 249.75 157.421875 250.605469 155.519531 250.605469 L 131.957031 250.605469 C 127.109375 250.605469 124.257812 245.1875 127.203125 241.292969 L 226.027344 109.878906 C 228.402344 106.742188 233.25 106.742188 235.625 109.878906 L 334.351562 241.292969 C 337.203125 245.1875 334.445312 250.605469 329.503906 250.605469 Z M 329.503906 250.605469 " fill-opacity="1" fill-rule="nonzero"/></g><g clip-path="url(#8d053fd90f)"><path fill="#f1f5f9" d="M 254.4375 250.605469 L 207.023438 250.605469 C 201.890625 250.605469 199.136719 244.332031 202.460938 240.246094 L 226.121094 210.980469 C 228.496094 208.035156 232.867188 208.035156 235.339844 210.980469 L 259 240.246094 C 262.324219 244.332031 259.570312 250.605469 254.4375 250.605469 Z M 254.4375 250.605469 " fill-opacity="1" fill-rule="nonzero"/></g><g clip-path="url(#9740a19beb)"><path fill="#f1f5f9" d="M 243.039062 123.582031 L 219.472656 123.582031 C 217.574219 123.582031 215.863281 124.4375 214.722656 125.863281 L 148.96875 211.097656 C 146.59375 214.140625 141.839844 214.140625 139.464844 211.097656 L 73.804688 125.863281 C 72.664062 124.4375 70.953125 123.582031 69.054688 123.582031 L 45.488281 123.582031 C 40.644531 123.582031 37.792969 129 40.738281 132.894531 L 139.558594 264.3125 C 141.9375 267.445312 146.78125 267.445312 149.15625 264.3125 L 247.886719 132.894531 C 250.734375 129 247.980469 123.582031 243.039062 123.582031 Z M 243.039062 123.582031 " fill-opacity="1" fill-rule="nonzero"/></g><g clip-path="url(#cc23c943f8)"><path fill="#f1f5f9" d="M 167.972656 123.582031 L 120.554688 123.582031 C 115.425781 123.582031 112.667969 129.855469 115.996094 133.941406 L 139.65625 163.207031 C 142.03125 166.152344 146.402344 166.152344 148.871094 163.207031 L 172.53125 133.941406 C 175.859375 129.855469 173.101562 123.582031 167.972656 123.582031 Z M 167.972656 123.582031 " fill-opacity="1" fill-rule="nonzero"/></g></svg>