<svg xmlns="http://www.w3.org/2000/svg" xmlns:xlink="http://www.w3.org/1999/xlink" width="500" zoomAndPan="magnify" viewBox="0 0 375 374.999991" height="500" preserveAspectRatio="xMidYMid meet" version="1.0"><defs><clipPath id="3ca1563b29"><path d="M 55.25 18.222656 L 375 18.222656 L 375 375 L 55.25 375 Z M 55.25 18.222656 " clip-rule="nonzero"/></clipPath><clipPath id="9c5f4c701b"><path d="M 242.75 18.222656 C 139.199219 18.222656 55.25 102.167969 55.25 205.722656 C 55.25 309.273438 139.199219 393.222656 242.75 393.222656 C 346.304688 393.222656 430.25 309.273438 430.25 205.722656 C 430.25 102.167969 346.304688 18.222656 242.75 18.222656 Z M 242.75 18.222656 " clip-rule="nonzero"/></clipPath><clipPath id="586d41f976"><path d="M 126 107.144531 L 336 107.144531 L 336 251.007812 L 126 251.007812 Z M 126 107.144531 " clip-rule="nonzero"/></clipPath><clipPath id="58395f481f"><path d="M 201 209 L 261 209 L 261 251.007812 L 201 251.007812 Z M 201 209 " clip-rule="nonzero"/></clipPath><clipPath id="a9abfbe3c8"><path d="M 39 123.984375 L 250 123.984375 L 250 267.960938 L 39 267.960938 Z M 39 123.984375 " clip-rule="nonzero"/></clipPath><clipPath id="02e0251674"><path d="M 114 123.984375 L 174 123.984375 L 174 166 L 114 166 Z M 114 123.984375 " clip-rule="nonzero"/></clipPath></defs><rect x="-37.5" width="450" fill="#ffffff" y="-37.499999" height="449.999989" fill-opacity="1"/><rect x="-37.5" width="450" fill="#000000" y="-37.499999" height="449.999989" fill-opacity="1"/><g clip-path="url(#3ca1563b29)"><g clip-path="url(#9c5f4c701b)"><path fill="#000000" d="M 55.25 18.222656 L 430.25 18.222656 L 430.25 393.222656 L 55.25 393.222656 Z M 55.25 18.222656 " fill-opacity="1" fill-rule="nonzero"/></g></g><g clip-path="url(#586d41f976)"><path fill="#f1f5f9" d="M 329.503906 251.007812 L 305.941406 251.007812 C 304.039062 251.007812 302.328125 250.152344 301.1875 248.726562 L 235.433594 163.492188 C 233.058594 160.449219 228.308594 160.449219 225.933594 163.492188 L 160.273438 248.726562 C 159.132812 250.152344 157.421875 251.007812 155.519531 251.007812 L 131.957031 251.007812 C 127.109375 251.007812 124.257812 245.589844 127.203125 241.695312 L 226.027344 110.28125 C 228.402344 107.144531 233.25 107.144531 235.625 110.28125 L 334.351562 241.695312 C 337.203125 245.589844 334.445312 251.007812 329.503906 251.007812 Z M 329.503906 251.007812 " fill-opacity="1" fill-rule="nonzero"/></g><g clip-path="url(#58395f481f)"><path fill="#f1f5f9" d="M 254.4375 251.007812 L 207.023438 251.007812 C 201.890625 251.007812 199.136719 244.734375 202.460938 240.648438 L 226.121094 211.382812 C 228.496094 208.4375 232.867188 208.4375 235.339844 211.382812 L 259 240.648438 C 262.324219 244.734375 259.570312 251.007812 254.4375 251.007812 Z M 254.4375 251.007812 " fill-opacity="1" fill-rule="nonzero"/></g><g clip-path="url(#a9abfbe3c8)"><path fill="#f1f5f9" d="M 243.039062 123.984375 L 219.472656 123.984375 C 217.574219 123.984375 215.863281 124.839844 214.722656 126.265625 L 148.96875 211.5 C 146.59375 214.542969 141.839844 214.542969 139.464844 211.5 L 73.804688 126.265625 C 72.664062 124.839844 70.953125 123.984375 69.054688 123.984375 L 45.488281 123.984375 C 40.644531 123.984375 37.792969 129.402344 40.738281 133.296875 L 139.558594 264.714844 C 141.9375 267.847656 146.78125 267.847656 149.15625 264.714844 L 247.886719 133.296875 C 250.734375 129.402344 247.980469 123.984375 243.039062 123.984375 Z M 243.039062 123.984375 " fill-opacity="1" fill-rule="nonzero"/></g><g clip-path="url(#02e0251674)"><path fill="#f1f5f9" d="M 167.972656 123.984375 L 120.554688 123.984375 C 115.425781 123.984375 112.667969 130.257812 115.996094 134.34375 L 139.65625 163.609375 C 142.03125 166.554688 146.402344 166.554688 148.871094 163.609375 L 172.53125 134.34375 C 175.859375 130.257812 173.101562 123.984375 167.972656 123.984375 Z M 167.972656 123.984375 " fill-opacity="1" fill-rule="nonzero"/></g></svg>