<svg xmlns="http://www.w3.org/2000/svg" xmlns:xlink="http://www.w3.org/1999/xlink" width="500" zoomAndPan="magnify" viewBox="0 0 375 374.999991" height="500" preserveAspectRatio="xMidYMid meet" version="1.0"><defs><clipPath id="80f217f0db"><path d="M 108 39 L 250.976562 39 L 250.976562 249 L 108 249 Z M 108 39 " clip-rule="nonzero"/></clipPath><clipPath id="4a5d0261fa"><path d="M 209 114 L 250.976562 114 L 250.976562 174 L 209 174 Z M 209 114 " clip-rule="nonzero"/></clipPath><clipPath id="383fa64190"><path d="M 124.65625 126 L 267.882812 126 L 267.882812 336 L 124.65625 336 Z M 124.65625 126 " clip-rule="nonzero"/></clipPath><clipPath id="36b6a49530"><path d="M 124.65625 201 L 167 201 L 167 261 L 124.65625 261 Z M 124.65625 201 " clip-rule="nonzero"/></clipPath></defs><g clip-path="url(#80f217f0db)"><path fill="#ffffff" d="M 251.15625 45.464844 L 251.15625 68.957031 C 251.15625 70.851562 250.300781 72.554688 248.882812 73.691406 L 163.917969 139.238281 C 160.886719 141.605469 160.886719 146.339844 163.917969 148.710938 L 248.882812 214.160156 C 250.300781 215.296875 251.15625 217.003906 251.15625 218.894531 L 251.15625 242.386719 C 251.15625 247.21875 245.753906 250.058594 241.871094 247.121094 L 110.875 148.613281 C 107.75 146.246094 107.75 141.414062 110.875 139.046875 L 241.871094 40.632812 C 245.753906 37.792969 251.15625 40.539062 251.15625 45.464844 Z M 251.15625 45.464844 " fill-opacity="1" fill-rule="nonzero"/></g><g clip-path="url(#4a5d0261fa)"><path fill="#ffffff" d="M 251.15625 120.292969 L 251.15625 167.558594 C 251.15625 172.671875 244.902344 175.421875 240.832031 172.105469 L 211.65625 148.519531 C 208.71875 146.152344 208.71875 141.792969 211.65625 139.332031 L 240.832031 115.746094 C 244.902344 112.433594 251.15625 115.179688 251.15625 120.292969 Z M 251.15625 120.292969 " fill-opacity="1" fill-rule="nonzero"/></g><g clip-path="url(#383fa64190)"><path fill="#ffffff" d="M 124.65625 132.613281 L 124.65625 156.101562 C 124.65625 157.996094 125.507812 159.699219 126.929688 160.835938 L 211.890625 226.382812 C 214.921875 228.75 214.921875 233.488281 211.890625 235.855469 L 126.929688 301.304688 C 125.507812 302.441406 124.65625 304.148438 124.65625 306.042969 L 124.65625 329.53125 C 124.65625 334.363281 130.054688 337.207031 133.9375 334.269531 L 264.933594 235.761719 C 268.0625 233.394531 268.0625 228.5625 264.933594 226.195312 L 133.9375 127.78125 C 130.054688 124.9375 124.65625 127.6875 124.65625 132.613281 Z M 124.65625 132.613281 " fill-opacity="1" fill-rule="nonzero"/></g><g clip-path="url(#36b6a49530)"><path fill="#ffffff" d="M 124.65625 207.441406 L 124.65625 254.703125 C 124.65625 259.820312 130.90625 262.566406 134.980469 259.25 L 164.152344 235.667969 C 167.089844 233.296875 167.089844 228.941406 164.152344 226.476562 L 134.980469 202.894531 C 130.90625 199.578125 124.65625 202.324219 124.65625 207.441406 Z M 124.65625 207.441406 " fill-opacity="1" fill-rule="nonzero"/></g></svg>