<svg xmlns="http://www.w3.org/2000/svg" xmlns:xlink="http://www.w3.org/1999/xlink" width="500" zoomAndPan="magnify" viewBox="0 0 375 374.999991" height="500" preserveAspectRatio="xMidYMid meet" version="1.0"><defs><g/><clipPath id="3336814312"><path d="M 131.265625 38 L 232.328125 38 L 232.328125 187 L 131.265625 187 Z M 131.265625 38 " clip-rule="nonzero"/></clipPath><clipPath id="dcec9fabf9"><path d="M 202 91 L 232.328125 91 L 232.328125 134 L 202 134 Z M 202 91 " clip-rule="nonzero"/></clipPath><clipPath id="1ca38b6b92"><path d="M 142.671875 100 L 243.921875 100 L 243.921875 248 L 142.671875 248 Z M 142.671875 100 " clip-rule="nonzero"/></clipPath><clipPath id="9ae91c0592"><path d="M 142.671875 153 L 173 153 L 173 195 L 142.671875 195 Z M 142.671875 153 " clip-rule="nonzero"/></clipPath></defs><g fill="#ffffff" fill-opacity="1"><g transform="translate(133.838944, 305.485415)"><g><path d="M 32.578125 0 L 24.484375 0 L 24.484375 -12.375 L 11.28125 -12.375 L 11.28125 0 L 3.1875 0 L 3.1875 -31.84375 L 11.28125 -31.84375 L 11.28125 -18.75 L 24.484375 -18.75 L 24.484375 -31.84375 L 32.578125 -31.84375 Z M 32.578125 0 "/></g></g></g><g fill="#ffffff" fill-opacity="1"><g transform="translate(169.602328, 305.485415)"><g><path d="M 32.578125 0 L 24.484375 0 L 24.484375 -12.375 L 11.28125 -12.375 L 11.28125 0 L 3.1875 0 L 3.1875 -31.84375 L 11.28125 -31.84375 L 11.28125 -18.75 L 24.484375 -18.75 L 24.484375 -31.84375 L 32.578125 -31.84375 Z M 32.578125 0 "/></g></g></g><g fill="#ffffff" fill-opacity="1"><g transform="translate(205.365711, 305.485415)"><g><path d="M 32.578125 0 L 25.4375 0 L 10.78125 -19.609375 L 10.78125 0 L 3.1875 0 L 3.1875 -31.84375 L 10.328125 -31.84375 L 25.03125 -12.1875 L 25.03125 -31.84375 L 32.578125 -31.84375 Z M 32.578125 0 "/></g></g></g><g fill="#ffffff" fill-opacity="1"><g transform="translate(50.137107, 332.38978)"><g><path d="M 6.3125 -13.828125 C 8.09375 -13.828125 9.695312 -13.351562 11.125 -12.40625 L 10.15625 -10.375 C 8.757812 -11.21875 7.421875 -11.640625 6.140625 -11.640625 C 5.441406 -11.640625 4.894531 -11.515625 4.5 -11.265625 C 4.101562 -11.023438 3.90625 -10.675781 3.90625 -10.21875 C 3.90625 -9.757812 4.085938 -9.367188 4.453125 -9.046875 C 4.816406 -8.722656 5.269531 -8.488281 5.8125 -8.34375 C 6.363281 -8.195312 6.957031 -8.007812 7.59375 -7.78125 C 8.238281 -7.550781 8.835938 -7.304688 9.390625 -7.046875 C 9.941406 -6.796875 10.394531 -6.398438 10.75 -5.859375 C 11.113281 -5.316406 11.296875 -4.65625 11.296875 -3.875 C 11.296875 -2.675781 10.8125 -1.71875 9.84375 -1 C 8.882812 -0.28125 7.644531 0.078125 6.125 0.078125 C 5.070312 0.078125 4.054688 -0.113281 3.078125 -0.5 C 2.097656 -0.894531 1.242188 -1.425781 0.515625 -2.09375 L 1.515625 -4.09375 C 2.203125 -3.457031 2.960938 -2.960938 3.796875 -2.609375 C 4.628906 -2.265625 5.414062 -2.09375 6.15625 -2.09375 C 6.96875 -2.09375 7.597656 -2.238281 8.046875 -2.53125 C 8.492188 -2.832031 8.71875 -3.242188 8.71875 -3.765625 C 8.71875 -4.234375 8.535156 -4.628906 8.171875 -4.953125 C 7.804688 -5.273438 7.347656 -5.507812 6.796875 -5.65625 C 6.253906 -5.8125 5.660156 -5.992188 5.015625 -6.203125 C 4.378906 -6.421875 3.785156 -6.648438 3.234375 -6.890625 C 2.679688 -7.128906 2.222656 -7.515625 1.859375 -8.046875 C 1.492188 -8.585938 1.3125 -9.238281 1.3125 -10 C 1.3125 -11.164062 1.769531 -12.09375 2.6875 -12.78125 C 3.601562 -13.476562 4.8125 -13.828125 6.3125 -13.828125 Z M 6.3125 -13.828125 "/></g></g></g><g fill="#ffffff" fill-opacity="1"><g transform="translate(69.930819, 332.38978)"><g><path d="M 11.609375 -11.640625 L 4.125 -11.640625 L 4.125 -7.9375 L 10.828125 -7.9375 L 10.828125 -5.859375 L 4.125 -5.859375 L 4.125 -2.078125 L 11.84375 -2.078125 L 11.84375 0 L 1.796875 0 L 1.796875 -13.734375 L 11.609375 -13.734375 Z M 11.609375 -11.640625 "/></g></g></g><g fill="#ffffff" fill-opacity="1"><g transform="translate(90.391419, 332.38978)"><g><path d="M 10.515625 0 L 8 -4.15625 C 7.863281 -4.144531 7.65625 -4.140625 7.375 -4.140625 L 4.125 -4.140625 L 4.125 0 L 1.796875 0 L 1.796875 -13.734375 L 7.375 -13.734375 C 9.125 -13.734375 10.484375 -13.320312 11.453125 -12.5 C 12.421875 -11.6875 12.90625 -10.535156 12.90625 -9.046875 C 12.90625 -7.941406 12.660156 -7.007812 12.171875 -6.25 C 11.679688 -5.5 10.976562 -4.945312 10.0625 -4.59375 L 13.140625 0 Z M 4.125 -6.21875 L 7.375 -6.21875 C 9.59375 -6.21875 10.703125 -7.140625 10.703125 -8.984375 C 10.703125 -10.753906 9.59375 -11.640625 7.375 -11.640625 L 4.125 -11.640625 Z M 4.125 -6.21875 "/></g></g></g><g fill="#ffffff" fill-opacity="1"><g transform="translate(112.166197, 332.38978)"><g><path d="M 7.921875 0 L 5.53125 0 L 0.0625 -13.734375 L 2.546875 -13.734375 L 6.78125 -2.5625 L 11.0625 -13.734375 L 13.46875 -13.734375 Z M 7.921875 0 "/></g></g></g><g fill="#ffffff" fill-opacity="1"><g transform="translate(133.293694, 332.38978)"><g><path d="M 11.609375 -11.640625 L 4.125 -11.640625 L 4.125 -7.9375 L 10.828125 -7.9375 L 10.828125 -5.859375 L 4.125 -5.859375 L 4.125 -2.078125 L 11.84375 -2.078125 L 11.84375 0 L 1.796875 0 L 1.796875 -13.734375 L 11.609375 -13.734375 Z M 11.609375 -11.640625 "/></g></g></g><g fill="#ffffff" fill-opacity="1"><g transform="translate(153.754291, 332.38978)"><g><path d="M 10.515625 0 L 8 -4.15625 C 7.863281 -4.144531 7.65625 -4.140625 7.375 -4.140625 L 4.125 -4.140625 L 4.125 0 L 1.796875 0 L 1.796875 -13.734375 L 7.375 -13.734375 C 9.125 -13.734375 10.484375 -13.320312 11.453125 -12.5 C 12.421875 -11.6875 12.90625 -10.535156 12.90625 -9.046875 C 12.90625 -7.941406 12.660156 -7.007812 12.171875 -6.25 C 11.679688 -5.5 10.976562 -4.945312 10.0625 -4.59375 L 13.140625 0 Z M 4.125 -6.21875 L 7.375 -6.21875 C 9.59375 -6.21875 10.703125 -7.140625 10.703125 -8.984375 C 10.703125 -10.753906 9.59375 -11.640625 7.375 -11.640625 L 4.125 -11.640625 Z M 4.125 -6.21875 "/></g></g></g><g fill="#ffffff" fill-opacity="1"><g transform="translate(175.529062, 332.38978)"><g/></g></g><g fill="#ffffff" fill-opacity="1"><g transform="translate(188.183049, 332.38978)"><g><path d="M 13.703125 0 L 11.390625 0 L 11.390625 -5.6875 L 4.125 -5.6875 L 4.125 0 L 1.796875 0 L 1.796875 -13.734375 L 4.125 -13.734375 L 4.125 -7.765625 L 11.390625 -7.765625 L 11.390625 -13.734375 L 13.703125 -13.734375 Z M 13.703125 0 "/></g></g></g><g fill="#ffffff" fill-opacity="1"><g transform="translate(211.291623, 332.38978)"><g><path d="M 2.765625 -11.796875 C 4.160156 -13.117188 5.882812 -13.78125 7.9375 -13.78125 C 9.988281 -13.78125 11.710938 -13.117188 13.109375 -11.796875 C 14.515625 -10.472656 15.21875 -8.828125 15.21875 -6.859375 C 15.21875 -4.898438 14.515625 -3.25 13.109375 -1.90625 C 11.710938 -0.570312 9.988281 0.09375 7.9375 0.09375 C 5.882812 0.09375 4.160156 -0.570312 2.765625 -1.90625 C 1.367188 -3.25 0.671875 -4.898438 0.671875 -6.859375 C 0.671875 -8.828125 1.367188 -10.472656 2.765625 -11.796875 Z M 7.96875 -11.703125 C 6.601562 -11.703125 5.4375 -11.234375 4.46875 -10.296875 C 3.5 -9.367188 3.015625 -8.222656 3.015625 -6.859375 C 3.015625 -5.503906 3.5 -4.351562 4.46875 -3.40625 C 5.445312 -2.457031 6.609375 -1.984375 7.953125 -1.984375 C 9.304688 -1.984375 10.457031 -2.457031 11.40625 -3.40625 C 12.363281 -4.351562 12.84375 -5.503906 12.84375 -6.859375 C 12.84375 -8.222656 12.363281 -9.367188 11.40625 -10.296875 C 10.457031 -11.234375 9.3125 -11.703125 7.96875 -11.703125 Z M 7.96875 -11.703125 "/></g></g></g><g fill="#ffffff" fill-opacity="1"><g transform="translate(234.772867, 332.38978)"><g><path d="M 6.3125 -13.828125 C 8.09375 -13.828125 9.695312 -13.351562 11.125 -12.40625 L 10.15625 -10.375 C 8.757812 -11.21875 7.421875 -11.640625 6.140625 -11.640625 C 5.441406 -11.640625 4.894531 -11.515625 4.5 -11.265625 C 4.101562 -11.023438 3.90625 -10.675781 3.90625 -10.21875 C 3.90625 -9.757812 4.085938 -9.367188 4.453125 -9.046875 C 4.816406 -8.722656 5.269531 -8.488281 5.8125 -8.34375 C 6.363281 -8.195312 6.957031 -8.007812 7.59375 -7.78125 C 8.238281 -7.550781 8.835938 -7.304688 9.390625 -7.046875 C 9.941406 -6.796875 10.394531 -6.398438 10.75 -5.859375 C 11.113281 -5.316406 11.296875 -4.65625 11.296875 -3.875 C 11.296875 -2.675781 10.8125 -1.71875 9.84375 -1 C 8.882812 -0.28125 7.644531 0.078125 6.125 0.078125 C 5.070312 0.078125 4.054688 -0.113281 3.078125 -0.5 C 2.097656 -0.894531 1.242188 -1.425781 0.515625 -2.09375 L 1.515625 -4.09375 C 2.203125 -3.457031 2.960938 -2.960938 3.796875 -2.609375 C 4.628906 -2.265625 5.414062 -2.09375 6.15625 -2.09375 C 6.96875 -2.09375 7.597656 -2.238281 8.046875 -2.53125 C 8.492188 -2.832031 8.71875 -3.242188 8.71875 -3.765625 C 8.71875 -4.234375 8.535156 -4.628906 8.171875 -4.953125 C 7.804688 -5.273438 7.347656 -5.507812 6.796875 -5.65625 C 6.253906 -5.8125 5.660156 -5.992188 5.015625 -6.203125 C 4.378906 -6.421875 3.785156 -6.648438 3.234375 -6.890625 C 2.679688 -7.128906 2.222656 -7.515625 1.859375 -8.046875 C 1.492188 -8.585938 1.3125 -9.238281 1.3125 -10 C 1.3125 -11.164062 1.769531 -12.09375 2.6875 -12.78125 C 3.601562 -13.476562 4.8125 -13.828125 6.3125 -13.828125 Z M 6.3125 -13.828125 "/></g></g></g><g fill="#ffffff" fill-opacity="1"><g transform="translate(254.566576, 332.38978)"><g><path d="M 11.171875 -11.640625 L 6.828125 -11.640625 L 6.828125 0 L 4.515625 0 L 4.515625 -11.640625 L 0.171875 -11.640625 L 0.171875 -13.734375 L 11.171875 -13.734375 Z M 11.171875 -11.640625 "/></g></g></g><g fill="#ffffff" fill-opacity="1"><g transform="translate(273.516849, 332.38978)"><g><path d="M 4.125 0 L 1.796875 0 L 1.796875 -13.734375 L 4.125 -13.734375 Z M 4.125 0 "/></g></g></g><g fill="#ffffff" fill-opacity="1"><g transform="translate(287.033899, 332.38978)"><g><path d="M 13.703125 0 L 11.4375 0 L 4.125 -9.84375 L 4.125 0 L 1.796875 0 L 1.796875 -13.734375 L 4.078125 -13.734375 L 11.4375 -3.859375 L 11.4375 -13.734375 L 13.703125 -13.734375 Z M 13.703125 0 "/></g></g></g><g fill="#ffffff" fill-opacity="1"><g transform="translate(310.1621, 332.38978)"><g><path d="M 11.203125 -6.75 L 13.21875 -6.75 L 13.21875 -1.6875 C 12.507812 -1.144531 11.675781 -0.710938 10.71875 -0.390625 C 9.757812 -0.0664062 8.816406 0.09375 7.890625 0.09375 C 5.859375 0.09375 4.144531 -0.570312 2.75 -1.90625 C 1.363281 -3.25 0.671875 -4.898438 0.671875 -6.859375 C 0.671875 -8.828125 1.375 -10.472656 2.78125 -11.796875 C 4.195312 -13.117188 5.941406 -13.78125 8.015625 -13.78125 C 8.984375 -13.78125 9.9375 -13.609375 10.875 -13.265625 C 11.8125 -12.921875 12.617188 -12.453125 13.296875 -11.859375 L 11.984375 -10.15625 C 10.859375 -11.195312 9.535156 -11.71875 8.015625 -11.71875 C 6.617188 -11.71875 5.4375 -11.25 4.46875 -10.3125 C 3.5 -9.375 3.015625 -8.222656 3.015625 -6.859375 C 3.015625 -5.484375 3.5 -4.328125 4.46875 -3.390625 C 5.445312 -2.453125 6.640625 -1.984375 8.046875 -1.984375 C 9.097656 -1.984375 10.148438 -2.296875 11.203125 -2.921875 Z M 11.203125 -6.75 "/></g></g></g><g clip-path="url(#3336814312)"><path fill="#ffffff" d="M 232.328125 43.109375 L 232.328125 59.664062 C 232.328125 61 231.726562 62.203125 230.726562 63.003906 L 170.847656 109.195312 C 168.710938 110.863281 168.710938 114.203125 170.847656 115.871094 L 230.726562 161.996094 C 231.726562 162.796875 232.328125 164 232.328125 165.335938 L 232.328125 181.890625 C 232.328125 185.292969 228.523438 187.296875 225.785156 185.226562 L 133.46875 115.804688 C 131.265625 114.136719 131.265625 110.730469 133.46875 109.0625 L 225.785156 39.707031 C 228.523438 37.703125 232.328125 39.640625 232.328125 43.109375 Z M 232.328125 43.109375 " fill-opacity="1" fill-rule="nonzero"/></g><g clip-path="url(#dcec9fabf9)"><path fill="#ffffff" d="M 232.328125 95.84375 L 232.328125 129.15625 C 232.328125 132.757812 227.921875 134.695312 225.050781 132.359375 L 204.492188 115.738281 C 202.421875 114.070312 202.421875 111 204.492188 109.261719 L 225.050781 92.640625 C 227.921875 90.304688 232.328125 92.242188 232.328125 95.84375 Z M 232.328125 95.84375 " fill-opacity="1" fill-rule="nonzero"/></g><g clip-path="url(#1ca38b6b92)"><path fill="#ffffff" d="M 142.671875 104.699219 L 142.671875 121.25 C 142.671875 122.585938 143.273438 123.789062 144.273438 124.589844 L 204.152344 170.78125 C 206.289062 172.449219 206.289062 175.789062 204.152344 177.457031 L 144.273438 223.582031 C 143.273438 224.382812 142.671875 225.585938 142.671875 226.921875 L 142.671875 243.476562 C 142.671875 246.878906 146.476562 248.882812 149.214844 246.8125 L 241.53125 177.390625 C 243.734375 175.722656 243.734375 172.316406 241.53125 170.648438 L 149.214844 101.292969 C 146.476562 99.289062 142.671875 101.226562 142.671875 104.699219 Z M 142.671875 104.699219 " fill-opacity="1" fill-rule="nonzero"/></g><g clip-path="url(#9ae91c0592)"><path fill="#ffffff" d="M 142.671875 157.429688 L 142.671875 190.742188 C 142.671875 194.34375 147.078125 196.28125 149.949219 193.945312 L 170.507812 177.324219 C 172.578125 175.65625 172.578125 172.585938 170.507812 170.847656 L 149.949219 154.226562 C 147.078125 151.890625 142.671875 153.828125 142.671875 157.429688 Z M 142.671875 157.429688 " fill-opacity="1" fill-rule="nonzero"/></g></svg>