<svg xmlns="http://www.w3.org/2000/svg" xmlns:xlink="http://www.w3.org/1999/xlink" width="500" zoomAndPan="magnify" viewBox="0 0 375 374.999991" height="500" preserveAspectRatio="xMidYMid meet" version="1.0"><defs><g/><clipPath id="5bfc18f800"><path d="M 37.5 96 L 125.625 96 L 125.625 225 L 37.5 225 Z M 37.5 96 " clip-rule="nonzero"/></clipPath><clipPath id="313e0d1d20"><path d="M 100 142 L 125.625 142 L 125.625 179 L 100 179 Z M 100 142 " clip-rule="nonzero"/></clipPath><clipPath id="93d973c9e2"><path d="M 47.929688 150 L 136 150 L 136 279 L 47.929688 279 Z M 47.929688 150 " clip-rule="nonzero"/></clipPath><clipPath id="887b9b03d3"><path d="M 47.929688 196 L 74 196 L 74 233 L 47.929688 233 Z M 47.929688 196 " clip-rule="nonzero"/></clipPath></defs><g fill="#ffffff" fill-opacity="1"><g transform="translate(143.887042, 216.995922)"><g><path d="M 58.671875 0 L 44.078125 0 L 44.078125 -22.28125 L 20.328125 -22.28125 L 20.328125 0 L 5.734375 0 L 5.734375 -57.359375 L 20.328125 -57.359375 L 20.328125 -33.765625 L 44.078125 -33.765625 L 44.078125 -57.359375 L 58.671875 -57.359375 Z M 58.671875 0 "/></g></g></g><g fill="#ffffff" fill-opacity="1"><g transform="translate(208.290882, 216.995922)"><g><path d="M 58.671875 0 L 44.078125 0 L 44.078125 -22.28125 L 20.328125 -22.28125 L 20.328125 0 L 5.734375 0 L 5.734375 -57.359375 L 20.328125 -57.359375 L 20.328125 -33.765625 L 44.078125 -33.765625 L 44.078125 -57.359375 L 58.671875 -57.359375 Z M 58.671875 0 "/></g></g></g><g fill="#ffffff" fill-opacity="1"><g transform="translate(272.694722, 216.995922)"><g><path d="M 58.671875 0 L 45.796875 0 L 19.421875 -35.3125 L 19.421875 0 L 5.734375 0 L 5.734375 -57.359375 L 18.59375 -57.359375 L 45.0625 -21.953125 L 45.0625 -57.359375 L 58.671875 -57.359375 Z M 58.671875 0 "/></g></g></g><g fill="#ffffff" fill-opacity="1"><g transform="translate(149.1184, 237.154282)"><g><path d="M 4.203125 -9.203125 C 5.378906 -9.203125 6.441406 -8.890625 7.390625 -8.265625 L 6.765625 -6.90625 C 5.828125 -7.46875 4.929688 -7.75 4.078125 -7.75 C 3.617188 -7.75 3.253906 -7.664062 2.984375 -7.5 C 2.722656 -7.332031 2.59375 -7.097656 2.59375 -6.796875 C 2.59375 -6.492188 2.710938 -6.234375 2.953125 -6.015625 C 3.203125 -5.804688 3.507812 -5.648438 3.875 -5.546875 C 4.238281 -5.453125 4.632812 -5.328125 5.0625 -5.171875 C 5.488281 -5.015625 5.882812 -4.851562 6.25 -4.6875 C 6.613281 -4.519531 6.914062 -4.253906 7.15625 -3.890625 C 7.394531 -3.535156 7.515625 -3.097656 7.515625 -2.578125 C 7.515625 -1.785156 7.191406 -1.148438 6.546875 -0.671875 C 5.910156 -0.191406 5.085938 0.046875 4.078125 0.046875 C 3.378906 0.046875 2.703125 -0.0820312 2.046875 -0.34375 C 1.390625 -0.601562 0.820312 -0.953125 0.34375 -1.390625 L 1 -2.734375 C 1.46875 -2.304688 1.976562 -1.972656 2.53125 -1.734375 C 3.082031 -1.503906 3.601562 -1.390625 4.09375 -1.390625 C 4.632812 -1.390625 5.054688 -1.488281 5.359375 -1.6875 C 5.660156 -1.882812 5.8125 -2.15625 5.8125 -2.5 C 5.8125 -2.8125 5.6875 -3.070312 5.4375 -3.28125 C 5.195312 -3.5 4.894531 -3.660156 4.53125 -3.765625 C 4.164062 -3.867188 3.769531 -3.988281 3.34375 -4.125 C 2.914062 -4.269531 2.519531 -4.421875 2.15625 -4.578125 C 1.789062 -4.742188 1.484375 -5.003906 1.234375 -5.359375 C 0.992188 -5.710938 0.875 -6.144531 0.875 -6.65625 C 0.875 -7.425781 1.175781 -8.039062 1.78125 -8.5 C 2.394531 -8.96875 3.203125 -9.203125 4.203125 -9.203125 Z M 4.203125 -9.203125 "/></g></g></g><g fill="#ffffff" fill-opacity="1"><g transform="translate(162.286989, 237.154282)"><g><path d="M 7.71875 -7.75 L 2.734375 -7.75 L 2.734375 -5.28125 L 7.203125 -5.28125 L 7.203125 -3.90625 L 2.734375 -3.90625 L 2.734375 -1.390625 L 7.875 -1.390625 L 7.875 0 L 1.203125 0 L 1.203125 -9.140625 L 7.71875 -9.140625 Z M 7.71875 -7.75 "/></g></g></g><g fill="#ffffff" fill-opacity="1"><g transform="translate(175.899254, 237.154282)"><g><path d="M 7 0 L 5.328125 -2.765625 C 5.234375 -2.753906 5.09375 -2.75 4.90625 -2.75 L 2.734375 -2.75 L 2.734375 0 L 1.203125 0 L 1.203125 -9.140625 L 4.90625 -9.140625 C 6.070312 -9.140625 6.972656 -8.863281 7.609375 -8.3125 C 8.253906 -7.769531 8.578125 -7.003906 8.578125 -6.015625 C 8.578125 -5.285156 8.414062 -4.664062 8.09375 -4.15625 C 7.769531 -3.65625 7.300781 -3.285156 6.6875 -3.046875 L 8.734375 0 Z M 2.734375 -4.140625 L 4.90625 -4.140625 C 6.382812 -4.140625 7.125 -4.75 7.125 -5.96875 C 7.125 -7.15625 6.382812 -7.75 4.90625 -7.75 L 2.734375 -7.75 Z M 2.734375 -4.140625 "/></g></g></g><g fill="#ffffff" fill-opacity="1"><g transform="translate(190.385829, 237.154282)"><g><path d="M 5.265625 0 L 3.671875 0 L 0.046875 -9.140625 L 1.703125 -9.140625 L 4.515625 -1.703125 L 7.359375 -9.140625 L 8.96875 -9.140625 Z M 5.265625 0 "/></g></g></g><g fill="#ffffff" fill-opacity="1"><g transform="translate(204.441775, 237.154282)"><g><path d="M 7.71875 -7.75 L 2.734375 -7.75 L 2.734375 -5.28125 L 7.203125 -5.28125 L 7.203125 -3.90625 L 2.734375 -3.90625 L 2.734375 -1.390625 L 7.875 -1.390625 L 7.875 0 L 1.203125 0 L 1.203125 -9.140625 L 7.71875 -9.140625 Z M 7.71875 -7.75 "/></g></g></g><g fill="#ffffff" fill-opacity="1"><g transform="translate(218.054037, 237.154282)"><g><path d="M 7 0 L 5.328125 -2.765625 C 5.234375 -2.753906 5.09375 -2.75 4.90625 -2.75 L 2.734375 -2.75 L 2.734375 0 L 1.203125 0 L 1.203125 -9.140625 L 4.90625 -9.140625 C 6.070312 -9.140625 6.972656 -8.863281 7.609375 -8.3125 C 8.253906 -7.769531 8.578125 -7.003906 8.578125 -6.015625 C 8.578125 -5.285156 8.414062 -4.664062 8.09375 -4.15625 C 7.769531 -3.65625 7.300781 -3.285156 6.6875 -3.046875 L 8.734375 0 Z M 2.734375 -4.140625 L 4.90625 -4.140625 C 6.382812 -4.140625 7.125 -4.75 7.125 -5.96875 C 7.125 -7.15625 6.382812 -7.75 4.90625 -7.75 L 2.734375 -7.75 Z M 2.734375 -4.140625 "/></g></g></g><g fill="#ffffff" fill-opacity="1"><g transform="translate(232.540608, 237.154282)"><g/></g></g><g fill="#ffffff" fill-opacity="1"><g transform="translate(240.959199, 237.154282)"><g><path d="M 9.125 0 L 7.578125 0 L 7.578125 -3.78125 L 2.734375 -3.78125 L 2.734375 0 L 1.203125 0 L 1.203125 -9.140625 L 2.734375 -9.140625 L 2.734375 -5.171875 L 7.578125 -5.171875 L 7.578125 -9.140625 L 9.125 -9.140625 Z M 9.125 0 "/></g></g></g><g fill="#ffffff" fill-opacity="1"><g transform="translate(256.333138, 237.154282)"><g><path d="M 1.828125 -7.84375 C 2.765625 -8.726562 3.914062 -9.171875 5.28125 -9.171875 C 6.644531 -9.171875 7.789062 -8.726562 8.71875 -7.84375 C 9.65625 -6.96875 10.125 -5.875 10.125 -4.5625 C 10.125 -3.257812 9.65625 -2.160156 8.71875 -1.265625 C 7.789062 -0.378906 6.644531 0.0625 5.28125 0.0625 C 3.914062 0.0625 2.765625 -0.378906 1.828125 -1.265625 C 0.898438 -2.160156 0.4375 -3.257812 0.4375 -4.5625 C 0.4375 -5.875 0.898438 -6.96875 1.828125 -7.84375 Z M 5.296875 -7.78125 C 4.390625 -7.78125 3.613281 -7.46875 2.96875 -6.84375 C 2.332031 -6.226562 2.015625 -5.46875 2.015625 -4.5625 C 2.015625 -3.65625 2.335938 -2.882812 2.984375 -2.25 C 3.628906 -1.625 4.398438 -1.3125 5.296875 -1.3125 C 6.191406 -1.3125 6.957031 -1.625 7.59375 -2.25 C 8.226562 -2.882812 8.546875 -3.65625 8.546875 -4.5625 C 8.546875 -5.46875 8.226562 -6.226562 7.59375 -6.84375 C 6.957031 -7.46875 6.191406 -7.78125 5.296875 -7.78125 Z M 5.296875 -7.78125 "/></g></g></g><g fill="#ffffff" fill-opacity="1"><g transform="translate(271.955011, 237.154282)"><g><path d="M 4.203125 -9.203125 C 5.378906 -9.203125 6.441406 -8.890625 7.390625 -8.265625 L 6.765625 -6.90625 C 5.828125 -7.46875 4.929688 -7.75 4.078125 -7.75 C 3.617188 -7.75 3.253906 -7.664062 2.984375 -7.5 C 2.722656 -7.332031 2.59375 -7.097656 2.59375 -6.796875 C 2.59375 -6.492188 2.710938 -6.234375 2.953125 -6.015625 C 3.203125 -5.804688 3.507812 -5.648438 3.875 -5.546875 C 4.238281 -5.453125 4.632812 -5.328125 5.0625 -5.171875 C 5.488281 -5.015625 5.882812 -4.851562 6.25 -4.6875 C 6.613281 -4.519531 6.914062 -4.253906 7.15625 -3.890625 C 7.394531 -3.535156 7.515625 -3.097656 7.515625 -2.578125 C 7.515625 -1.785156 7.191406 -1.148438 6.546875 -0.671875 C 5.910156 -0.191406 5.085938 0.046875 4.078125 0.046875 C 3.378906 0.046875 2.703125 -0.0820312 2.046875 -0.34375 C 1.390625 -0.601562 0.820312 -0.953125 0.34375 -1.390625 L 1 -2.734375 C 1.46875 -2.304688 1.976562 -1.972656 2.53125 -1.734375 C 3.082031 -1.503906 3.601562 -1.390625 4.09375 -1.390625 C 4.632812 -1.390625 5.054688 -1.488281 5.359375 -1.6875 C 5.660156 -1.882812 5.8125 -2.15625 5.8125 -2.5 C 5.8125 -2.8125 5.6875 -3.070312 5.4375 -3.28125 C 5.195312 -3.5 4.894531 -3.660156 4.53125 -3.765625 C 4.164062 -3.867188 3.769531 -3.988281 3.34375 -4.125 C 2.914062 -4.269531 2.519531 -4.421875 2.15625 -4.578125 C 1.789062 -4.742188 1.484375 -5.003906 1.234375 -5.359375 C 0.992188 -5.710938 0.875 -6.144531 0.875 -6.65625 C 0.875 -7.425781 1.175781 -8.039062 1.78125 -8.5 C 2.394531 -8.96875 3.203125 -9.203125 4.203125 -9.203125 Z M 4.203125 -9.203125 "/></g></g></g><g fill="#ffffff" fill-opacity="1"><g transform="translate(285.123599, 237.154282)"><g><path d="M 7.4375 -7.75 L 4.546875 -7.75 L 4.546875 0 L 3 0 L 3 -7.75 L 0.125 -7.75 L 0.125 -9.140625 L 7.4375 -9.140625 Z M 7.4375 -7.75 "/></g></g></g><g fill="#ffffff" fill-opacity="1"><g transform="translate(297.731055, 237.154282)"><g><path d="M 2.734375 0 L 1.203125 0 L 1.203125 -9.140625 L 2.734375 -9.140625 Z M 2.734375 0 "/></g></g></g><g fill="#ffffff" fill-opacity="1"><g transform="translate(306.723835, 237.154282)"><g><path d="M 9.125 0 L 7.609375 0 L 2.734375 -6.546875 L 2.734375 0 L 1.203125 0 L 1.203125 -9.140625 L 2.71875 -9.140625 L 7.609375 -2.5625 L 7.609375 -9.140625 L 9.125 -9.140625 Z M 9.125 0 "/></g></g></g><g fill="#ffffff" fill-opacity="1"><g transform="translate(322.110831, 237.154282)"><g><path d="M 7.453125 -4.484375 L 8.796875 -4.484375 L 8.796875 -1.125 C 8.328125 -0.769531 7.769531 -0.484375 7.125 -0.265625 C 6.488281 -0.046875 5.863281 0.0625 5.25 0.0625 C 3.894531 0.0625 2.753906 -0.378906 1.828125 -1.265625 C 0.898438 -2.160156 0.4375 -3.257812 0.4375 -4.5625 C 0.4375 -5.875 0.90625 -6.96875 1.84375 -7.84375 C 2.789062 -8.726562 3.957031 -9.171875 5.34375 -9.171875 C 5.976562 -9.171875 6.609375 -9.054688 7.234375 -8.828125 C 7.859375 -8.597656 8.394531 -8.285156 8.84375 -7.890625 L 7.96875 -6.765625 C 7.21875 -7.453125 6.34375 -7.796875 5.34375 -7.796875 C 4.40625 -7.796875 3.613281 -7.484375 2.96875 -6.859375 C 2.332031 -6.234375 2.015625 -5.46875 2.015625 -4.5625 C 2.015625 -3.65625 2.335938 -2.882812 2.984375 -2.25 C 3.628906 -1.625 4.414062 -1.3125 5.34375 -1.3125 C 6.050781 -1.3125 6.753906 -1.519531 7.453125 -1.9375 Z M 7.453125 -4.484375 "/></g></g></g><g clip-path="url(#5bfc18f800)"><path fill="#ffffff" d="M 125.625 100.121094 L 125.625 114.558594 C 125.625 115.722656 125.101562 116.769531 124.226562 117.46875 L 72.015625 157.746094 C 70.152344 159.203125 70.152344 162.113281 72.015625 163.566406 L 124.226562 203.789062 C 125.101562 204.488281 125.625 205.535156 125.625 206.699219 L 125.625 221.132812 C 125.625 224.101562 122.308594 225.847656 119.921875 224.042969 L 39.421875 163.507812 C 37.5 162.054688 37.5 159.085938 39.421875 157.628906 L 119.921875 97.152344 C 122.308594 95.40625 125.625 97.09375 125.625 100.121094 Z M 125.625 100.121094 " fill-opacity="1" fill-rule="nonzero"/></g><g clip-path="url(#313e0d1d20)"><path fill="#ffffff" d="M 125.625 146.105469 L 125.625 175.152344 C 125.625 178.292969 121.785156 179.980469 119.28125 177.945312 L 101.351562 163.453125 C 99.546875 161.996094 99.546875 159.320312 101.351562 157.804688 L 119.28125 143.3125 C 121.785156 141.273438 125.625 142.960938 125.625 146.105469 Z M 125.625 146.105469 " fill-opacity="1" fill-rule="nonzero"/></g><g clip-path="url(#93d973c9e2)"><path fill="#ffffff" d="M 47.929688 153.859375 L 47.929688 168.292969 C 47.929688 169.457031 48.453125 170.503906 49.324219 171.203125 L 101.535156 211.484375 C 103.398438 212.9375 103.398438 215.847656 101.535156 217.304688 L 49.324219 257.523438 C 48.453125 258.222656 47.929688 259.269531 47.929688 260.433594 L 47.929688 274.871094 C 47.929688 277.839844 51.246094 279.585938 53.632812 277.78125 L 134.132812 217.246094 C 136.054688 215.789062 136.054688 212.820312 134.132812 211.367188 L 53.632812 150.890625 C 51.246094 149.144531 47.929688 150.832031 47.929688 153.859375 Z M 47.929688 153.859375 " fill-opacity="1" fill-rule="nonzero"/></g><g clip-path="url(#887b9b03d3)"><path fill="#ffffff" d="M 47.929688 199.84375 L 47.929688 228.886719 C 47.929688 232.03125 51.769531 233.71875 54.273438 231.679688 L 72.199219 217.1875 C 74.003906 215.730469 74.003906 213.054688 72.199219 211.542969 L 54.273438 197.046875 C 51.769531 195.011719 47.929688 196.699219 47.929688 199.84375 Z M 47.929688 199.84375 " fill-opacity="1" fill-rule="nonzero"/></g></svg>