<svg xmlns="http://www.w3.org/2000/svg" xmlns:xlink="http://www.w3.org/1999/xlink" width="1050" zoomAndPan="magnify" viewBox="0 0 787.5 264.749989" height="353" preserveAspectRatio="xMidYMid meet" version="1.0"><defs><g/><clipPath id="63bbf11ea4"><path d="M 111 58 L 373 58 L 373 236.886719 L 111 236.886719 Z M 111 58 " clip-rule="nonzero"/></clipPath><clipPath id="62cb44ec59"><path d="M 205 184 L 279 184 L 279 236.886719 L 205 236.886719 Z M 205 184 " clip-rule="nonzero"/></clipPath><clipPath id="295296dd3a"><path d="M 2 79.15625 L 264 79.15625 L 264 258 L 2 258 Z M 2 79.15625 " clip-rule="nonzero"/></clipPath><clipPath id="076e851371"><path d="M 95 79.15625 L 170 79.15625 L 170 132 L 95 132 Z M 95 79.15625 " clip-rule="nonzero"/></clipPath></defs><g fill="#ffffff" fill-opacity="1"><g transform="translate(375.488531, 196.619889)"><g><path d="M 113.3125 0 L 85.140625 0 L 85.140625 -43.046875 L 39.25 -43.046875 L 39.25 0 L 11.078125 0 L 11.078125 -110.78125 L 39.25 -110.78125 L 39.25 -65.203125 L 85.140625 -65.203125 L 85.140625 -110.78125 L 113.3125 -110.78125 Z M 113.3125 0 "/></g></g></g><g fill="#ffffff" fill-opacity="1"><g transform="translate(499.871976, 196.619889)"><g><path d="M 113.3125 0 L 85.140625 0 L 85.140625 -43.046875 L 39.25 -43.046875 L 39.25 0 L 11.078125 0 L 11.078125 -110.78125 L 39.25 -110.78125 L 39.25 -65.203125 L 85.140625 -65.203125 L 85.140625 -110.78125 L 113.3125 -110.78125 Z M 113.3125 0 "/></g></g></g><g fill="#ffffff" fill-opacity="1"><g transform="translate(624.255421, 196.619889)"><g><path d="M 113.3125 0 L 88.46875 0 L 37.5 -68.203125 L 37.5 0 L 11.078125 0 L 11.078125 -110.78125 L 35.921875 -110.78125 L 87.03125 -42.40625 L 87.03125 -110.78125 L 113.3125 -110.78125 Z M 113.3125 0 "/></g></g></g><g fill="#ffffff" fill-opacity="1"><g transform="translate(413.598533, 235.551809)"><g><path d="M 10.1875 0 L 7.109375 0 L 0.078125 -17.640625 L 3.28125 -17.640625 L 8.71875 -3.296875 L 14.21875 -17.640625 L 17.3125 -17.640625 Z M 10.1875 0 "/></g></g></g><g fill="#ffffff" fill-opacity="1"><g transform="translate(440.744853, 235.551809)"><g><path d="M 7.265625 -17.765625 C 8.941406 -17.765625 10.296875 -17.359375 11.328125 -16.546875 C 12.359375 -15.742188 12.875 -14.671875 12.875 -13.328125 C 12.875 -11.785156 11.800781 -9.851562 9.65625 -7.53125 L 5.0625 -2.671875 L 13.6875 -2.671875 L 13.6875 0 L 1.140625 0 L 1.140625 -2.171875 L 7.640625 -9.15625 C 9.066406 -10.613281 9.78125 -11.863281 9.78125 -12.90625 C 9.78125 -13.613281 9.519531 -14.164062 9 -14.5625 C 8.476562 -14.96875 7.753906 -15.171875 6.828125 -15.171875 C 5.234375 -15.171875 3.628906 -14.429688 2.015625 -12.953125 L 0.828125 -15.25 C 2.898438 -16.925781 5.046875 -17.765625 7.265625 -17.765625 Z M 7.265625 -17.765625 "/></g></g></g><g fill="#ffffff" fill-opacity="1"><g transform="translate(465.320525, 235.551809)"><g><path d="M 1.609375 -2.625 C 1.910156 -2.9375 2.285156 -3.09375 2.734375 -3.09375 C 3.191406 -3.09375 3.570312 -2.9375 3.875 -2.625 C 4.175781 -2.320312 4.328125 -1.9375 4.328125 -1.46875 C 4.328125 -0.976562 4.175781 -0.570312 3.875 -0.25 C 3.570312 0.0703125 3.191406 0.234375 2.734375 0.234375 C 2.285156 0.234375 1.910156 0.0703125 1.609375 -0.25 C 1.304688 -0.570312 1.15625 -0.976562 1.15625 -1.46875 C 1.15625 -1.9375 1.304688 -2.320312 1.609375 -2.625 Z M 1.609375 -2.625 "/></g></g></g><g fill="#ffffff" fill-opacity="1"><g transform="translate(480.5713, 235.551809)"><g><path d="M 8.71875 -17.71875 C 11.125 -17.71875 12.972656 -16.945312 14.265625 -15.40625 C 15.554688 -13.875 16.203125 -11.675781 16.203125 -8.8125 C 16.203125 -5.957031 15.554688 -3.757812 14.265625 -2.21875 C 12.972656 -0.6875 11.125 0.078125 8.71875 0.078125 C 6.300781 0.078125 4.441406 -0.6875 3.140625 -2.21875 C 1.847656 -3.757812 1.203125 -5.957031 1.203125 -8.8125 C 1.203125 -11.675781 1.847656 -13.875 3.140625 -15.40625 C 4.441406 -16.945312 6.300781 -17.71875 8.71875 -17.71875 Z M 8.71875 -15.375 C 5.75 -15.375 4.265625 -13.1875 4.265625 -8.8125 C 4.265625 -4.445312 5.75 -2.265625 8.71875 -2.265625 C 11.675781 -2.265625 13.15625 -4.445312 13.15625 -8.8125 C 13.15625 -13.1875 11.675781 -15.375 8.71875 -15.375 Z M 8.71875 -15.375 "/></g></g></g><g fill="#ffffff" fill-opacity="1"><g transform="translate(507.742821, 235.551809)"><g/></g></g><g fill="#ffffff" fill-opacity="1"><g transform="translate(524.001686, 235.551809)"><g><path d="M 20.46875 0 L 17.421875 0 L 13.234375 -13.765625 L 9 0 L 5.921875 0 L 0.078125 -17.640625 L 3.28125 -17.640625 L 7.5625 -3.296875 L 11.828125 -17.609375 L 14.75 -17.640625 L 19.03125 -3.296875 L 23.28125 -17.640625 L 26.359375 -17.640625 Z M 20.46875 0 "/></g></g></g><g fill="#ffffff" fill-opacity="1"><g transform="translate(559.868039, 235.551809)"><g><path d="M 13.703125 -3.984375 L 4.8125 -3.984375 L 3.125 0 L 0.03125 0 L 7.8125 -17.640625 L 10.859375 -17.640625 L 18.578125 0 L 15.40625 0 Z M 12.578125 -6.625 L 9.25 -14.46875 L 5.921875 -6.625 Z M 12.578125 -6.625 "/></g></g></g><g fill="#ffffff" fill-opacity="1"><g transform="translate(588.224075, 235.551809)"><g><path d="M 5.296875 0 L 2.3125 0 L 2.3125 -17.640625 L 5.296875 -17.640625 Z M 5.296875 0 "/></g></g></g><g fill="#ffffff" fill-opacity="1"><g transform="translate(605.591856, 235.551809)"><g><path d="M 14.359375 -14.96875 L 8.765625 -14.96875 L 8.765625 0 L 5.796875 0 L 5.796875 -14.96875 L 0.234375 -14.96875 L 0.234375 -17.640625 L 14.359375 -17.640625 Z M 14.359375 -14.96875 "/></g></g></g><g fill="#ffffff" fill-opacity="1"><g transform="translate(629.940698, 235.551809)"><g><path d="M 5.296875 -2.703125 L 12.921875 -2.703125 L 12.921875 0 L 2.3125 0 L 2.3125 -17.640625 L 5.296875 -17.640625 Z M 5.296875 -2.703125 "/></g></g></g><g fill="#ffffff" fill-opacity="1"><g transform="translate(653.155438, 235.551809)"><g><path d="M 5.296875 0 L 2.3125 0 L 2.3125 -17.640625 L 5.296875 -17.640625 Z M 5.296875 0 "/></g></g></g><g fill="#ffffff" fill-opacity="1"><g transform="translate(670.52322, 235.551809)"><g><path d="M 8.109375 -17.765625 C 10.398438 -17.765625 12.460938 -17.160156 14.296875 -15.953125 L 13.0625 -13.328125 C 11.257812 -14.421875 9.535156 -14.96875 7.890625 -14.96875 C 6.992188 -14.96875 6.289062 -14.804688 5.78125 -14.484375 C 5.269531 -14.171875 5.015625 -13.71875 5.015625 -13.125 C 5.015625 -12.539062 5.25 -12.039062 5.71875 -11.625 C 6.1875 -11.21875 6.773438 -10.914062 7.484375 -10.71875 C 8.191406 -10.53125 8.957031 -10.285156 9.78125 -9.984375 C 10.601562 -9.691406 11.363281 -9.378906 12.0625 -9.046875 C 12.769531 -8.722656 13.351562 -8.210938 13.8125 -7.515625 C 14.28125 -6.828125 14.515625 -5.984375 14.515625 -4.984375 C 14.515625 -3.441406 13.894531 -2.207031 12.65625 -1.28125 C 11.425781 -0.363281 9.828125 0.09375 7.859375 0.09375 C 6.515625 0.09375 5.210938 -0.15625 3.953125 -0.65625 C 2.691406 -1.15625 1.59375 -1.835938 0.65625 -2.703125 L 1.9375 -5.265625 C 2.832031 -4.441406 3.8125 -3.804688 4.875 -3.359375 C 5.945312 -2.921875 6.957031 -2.703125 7.90625 -2.703125 C 8.945312 -2.703125 9.757812 -2.890625 10.34375 -3.265625 C 10.925781 -3.640625 11.21875 -4.164062 11.21875 -4.84375 C 11.21875 -5.445312 10.976562 -5.953125 10.5 -6.359375 C 10.03125 -6.773438 9.441406 -7.078125 8.734375 -7.265625 C 8.035156 -7.460938 7.273438 -7.695312 6.453125 -7.96875 C 5.628906 -8.25 4.863281 -8.546875 4.15625 -8.859375 C 3.445312 -9.171875 2.859375 -9.671875 2.390625 -10.359375 C 1.921875 -11.046875 1.6875 -11.878906 1.6875 -12.859375 C 1.6875 -14.347656 2.273438 -15.535156 3.453125 -16.421875 C 4.628906 -17.316406 6.179688 -17.765625 8.109375 -17.765625 Z M 8.109375 -17.765625 "/></g></g></g><g fill="#ffffff" fill-opacity="1"><g transform="translate(695.955777, 235.551809)"><g><path d="M 14.359375 -14.96875 L 8.765625 -14.96875 L 8.765625 0 L 5.796875 0 L 5.796875 -14.96875 L 0.234375 -14.96875 L 0.234375 -17.640625 L 14.359375 -17.640625 Z M 14.359375 -14.96875 "/></g></g></g><g clip-path="url(#63bbf11ea4)"><path fill="#f7ff9b" d="M 364.824219 236.886719 L 335.519531 236.886719 C 333.15625 236.886719 331.03125 235.824219 329.613281 234.050781 L 247.84375 128.058594 C 244.890625 124.277344 238.980469 124.277344 236.027344 128.058594 L 154.375 234.050781 C 152.957031 235.824219 150.832031 236.886719 148.46875 236.886719 L 119.164062 236.886719 C 113.136719 236.886719 109.59375 230.152344 113.253906 225.308594 L 236.144531 61.886719 C 239.097656 57.988281 245.125 57.988281 248.078125 61.886719 L 370.851562 225.308594 C 374.398438 230.152344 370.96875 236.886719 364.824219 236.886719 Z M 364.824219 236.886719 " fill-opacity="1" fill-rule="nonzero"/></g><g clip-path="url(#62cb44ec59)"><path fill="#f7ff9b" d="M 271.476562 236.886719 L 212.511719 236.886719 C 206.132812 236.886719 202.703125 229.089844 206.839844 224.007812 L 236.261719 187.613281 C 239.21875 183.949219 244.652344 183.949219 247.726562 187.613281 L 277.148438 224.007812 C 281.285156 229.089844 277.855469 236.886719 271.476562 236.886719 Z M 271.476562 236.886719 " fill-opacity="1" fill-rule="nonzero"/></g><g clip-path="url(#295296dd3a)"><path fill="#f7ff9b" d="M 255.738281 79.15625 L 226.433594 79.15625 C 224.070312 79.15625 221.941406 80.21875 220.523438 81.992188 L 138.753906 187.984375 C 135.800781 191.765625 129.894531 191.765625 126.9375 187.984375 L 45.289062 81.992188 C 43.871094 80.21875 41.742188 79.15625 39.378906 79.15625 L 10.074219 79.15625 C 4.046875 79.15625 0.503906 85.890625 4.167969 90.738281 L 127.058594 254.15625 C 130.011719 258.054688 136.039062 258.054688 138.992188 254.15625 L 261.761719 90.738281 C 265.308594 85.890625 261.882812 79.15625 255.738281 79.15625 Z M 255.738281 79.15625 " fill-opacity="1" fill-rule="nonzero"/></g><g clip-path="url(#076e851371)"><path fill="#f7ff9b" d="M 162.386719 79.15625 L 103.425781 79.15625 C 97.042969 79.15625 93.617188 86.957031 97.753906 92.035156 L 127.175781 128.429688 C 130.128906 132.09375 135.566406 132.09375 138.636719 128.429688 L 168.058594 92.035156 C 172.195312 86.957031 168.769531 79.15625 162.386719 79.15625 Z M 162.386719 79.15625 " fill-opacity="1" fill-rule="nonzero"/></g></svg>