<svg xmlns="http://www.w3.org/2000/svg" xmlns:xlink="http://www.w3.org/1999/xlink" width="642" zoomAndPan="magnify" viewBox="0 0 481.5 254.250006" height="339" preserveAspectRatio="xMidYMid meet" version="1.0"><defs><g/><clipPath id="ae77dc0951"><path d="M 164 0.00390625 L 425 0.00390625 L 425 178.59375 L 164 178.59375 Z M 164 0.00390625 " clip-rule="nonzero"/></clipPath><clipPath id="1ab55363ef"><path d="M 257 126 L 332 126 L 332 178.59375 L 257 178.59375 Z M 257 126 " clip-rule="nonzero"/></clipPath><clipPath id="53bf0b2ddc"><path d="M 55 20.164062 L 316 20.164062 L 316 198 L 55 198 Z M 55 20.164062 " clip-rule="nonzero"/></clipPath><clipPath id="b226830792"><path d="M 148 20.164062 L 223 20.164062 L 223 73 L 148 73 Z M 148 20.164062 " clip-rule="nonzero"/></clipPath></defs><g fill="#ffffff" fill-opacity="1"><g transform="translate(61.024231, 238.082248)"><g><path d="M 12.296875 0 L 8.578125 0 L 0.09375 -21.296875 L 3.953125 -21.296875 L 10.53125 -3.984375 L 17.15625 -21.296875 L 20.90625 -21.296875 Z M 12.296875 0 "/></g></g></g><g fill="#ffffff" fill-opacity="1"><g transform="translate(93.796399, 238.082248)"><g><path d="M 8.765625 -21.453125 C 10.785156 -21.453125 12.421875 -20.960938 13.671875 -19.984375 C 14.921875 -19.015625 15.546875 -17.71875 15.546875 -16.09375 C 15.546875 -14.226562 14.25 -11.894531 11.65625 -9.09375 L 6.109375 -3.21875 L 16.515625 -3.21875 L 16.515625 0 L 1.375 0 L 1.375 -2.609375 L 9.21875 -11.046875 C 10.9375 -12.804688 11.796875 -14.316406 11.796875 -15.578125 C 11.796875 -16.429688 11.484375 -17.097656 10.859375 -17.578125 C 10.234375 -18.066406 9.363281 -18.3125 8.25 -18.3125 C 6.320312 -18.3125 4.382812 -17.421875 2.4375 -15.640625 L 1 -18.40625 C 3.5 -20.4375 6.085938 -21.453125 8.765625 -21.453125 Z M 8.765625 -21.453125 "/></g></g></g><g fill="#ffffff" fill-opacity="1"><g transform="translate(123.465175, 238.082248)"><g><path d="M 1.953125 -3.171875 C 2.316406 -3.546875 2.769531 -3.734375 3.3125 -3.734375 C 3.863281 -3.734375 4.320312 -3.546875 4.6875 -3.171875 C 5.050781 -2.796875 5.234375 -2.328125 5.234375 -1.765625 C 5.234375 -1.171875 5.050781 -0.679688 4.6875 -0.296875 C 4.320312 0.0859375 3.863281 0.28125 3.3125 0.28125 C 2.769531 0.28125 2.316406 0.0859375 1.953125 -0.296875 C 1.585938 -0.679688 1.40625 -1.171875 1.40625 -1.765625 C 1.40625 -2.328125 1.585938 -2.796875 1.953125 -3.171875 Z M 1.953125 -3.171875 "/></g></g></g><g fill="#ffffff" fill-opacity="1"><g transform="translate(141.876546, 238.082248)"><g><path d="M 10.53125 -21.390625 C 13.425781 -21.390625 15.65625 -20.457031 17.21875 -18.59375 C 18.78125 -16.738281 19.5625 -14.085938 19.5625 -10.640625 C 19.5625 -7.191406 18.78125 -4.539062 17.21875 -2.6875 C 15.65625 -0.832031 13.425781 0.09375 10.53125 0.09375 C 7.601562 0.09375 5.359375 -0.832031 3.796875 -2.6875 C 2.234375 -4.539062 1.453125 -7.191406 1.453125 -10.640625 C 1.453125 -14.085938 2.234375 -16.738281 3.796875 -18.59375 C 5.359375 -20.457031 7.601562 -21.390625 10.53125 -21.390625 Z M 10.53125 -18.5625 C 6.9375 -18.5625 5.140625 -15.921875 5.140625 -10.640625 C 5.140625 -5.367188 6.9375 -2.734375 10.53125 -2.734375 C 14.09375 -2.734375 15.875 -5.367188 15.875 -10.640625 C 15.875 -15.921875 14.09375 -18.5625 10.53125 -18.5625 Z M 10.53125 -18.5625 "/></g></g></g><g fill="#ffffff" fill-opacity="1"><g transform="translate(174.679138, 238.082248)"><g/></g></g><g fill="#ffffff" fill-opacity="1"><g transform="translate(194.307518, 238.082248)"><g><path d="M 24.703125 0 L 21.015625 0 L 15.96875 -16.609375 L 10.859375 0 L 7.15625 0 L 0.09375 -21.296875 L 3.953125 -21.296875 L 9.125 -3.984375 L 14.265625 -21.265625 L 17.796875 -21.296875 L 22.96875 -3.984375 L 28.109375 -21.296875 L 31.828125 -21.296875 Z M 24.703125 0 "/></g></g></g><g fill="#ffffff" fill-opacity="1"><g transform="translate(237.606874, 238.082248)"><g><path d="M 16.546875 -4.8125 L 5.8125 -4.8125 L 3.765625 0 L 0.03125 0 L 9.4375 -21.296875 L 13.109375 -21.296875 L 22.421875 0 L 18.59375 0 Z M 15.1875 -8 L 11.171875 -17.46875 L 7.15625 -8 Z M 15.1875 -8 "/></g></g></g><g fill="#ffffff" fill-opacity="1"><g transform="translate(271.839461, 238.082248)"><g><path d="M 6.390625 0 L 2.796875 0 L 2.796875 -21.296875 L 6.390625 -21.296875 Z M 6.390625 0 "/></g></g></g><g fill="#ffffff" fill-opacity="1"><g transform="translate(292.806571, 238.082248)"><g><path d="M 17.34375 -18.078125 L 10.59375 -18.078125 L 10.59375 0 L 7 0 L 7 -18.078125 L 0.28125 -18.078125 L 0.28125 -21.296875 L 17.34375 -21.296875 Z M 17.34375 -18.078125 "/></g></g></g><g fill="#ffffff" fill-opacity="1"><g transform="translate(322.201507, 238.082248)"><g><path d="M 6.390625 -3.25 L 15.609375 -3.25 L 15.609375 0 L 2.796875 0 L 2.796875 -21.296875 L 6.390625 -21.296875 Z M 6.390625 -3.25 "/></g></g></g><g fill="#ffffff" fill-opacity="1"><g transform="translate(350.227309, 238.082248)"><g><path d="M 6.390625 0 L 2.796875 0 L 2.796875 -21.296875 L 6.390625 -21.296875 Z M 6.390625 0 "/></g></g></g><g fill="#ffffff" fill-opacity="1"><g transform="translate(371.194419, 238.082248)"><g><path d="M 9.796875 -21.453125 C 12.554688 -21.453125 15.039062 -20.71875 17.25 -19.25 L 15.765625 -16.09375 C 13.585938 -17.414062 11.503906 -18.078125 9.515625 -18.078125 C 8.441406 -18.078125 7.59375 -17.882812 6.96875 -17.5 C 6.351562 -17.113281 6.046875 -16.5625 6.046875 -15.84375 C 6.046875 -15.132812 6.328125 -14.53125 6.890625 -14.03125 C 7.460938 -13.539062 8.175781 -13.175781 9.03125 -12.9375 C 9.882812 -12.707031 10.804688 -12.414062 11.796875 -12.0625 C 12.796875 -11.707031 13.71875 -11.332031 14.5625 -10.9375 C 15.414062 -10.539062 16.117188 -9.921875 16.671875 -9.078125 C 17.234375 -8.234375 17.515625 -7.21875 17.515625 -6.03125 C 17.515625 -4.15625 16.769531 -2.660156 15.28125 -1.546875 C 13.789062 -0.429688 11.859375 0.125 9.484375 0.125 C 7.867188 0.125 6.300781 -0.175781 4.78125 -0.78125 C 3.257812 -1.394531 1.929688 -2.21875 0.796875 -3.25 L 2.34375 -6.359375 C 3.414062 -5.367188 4.59375 -4.601562 5.875 -4.0625 C 7.164062 -3.519531 8.390625 -3.25 9.546875 -3.25 C 10.804688 -3.25 11.785156 -3.476562 12.484375 -3.9375 C 13.179688 -4.394531 13.53125 -5.03125 13.53125 -5.84375 C 13.53125 -6.570312 13.242188 -7.179688 12.671875 -7.671875 C 12.109375 -8.171875 11.398438 -8.535156 10.546875 -8.765625 C 9.703125 -9.003906 8.78125 -9.289062 7.78125 -9.625 C 6.789062 -9.957031 5.867188 -10.3125 5.015625 -10.6875 C 4.160156 -11.0625 3.445312 -11.664062 2.875 -12.5 C 2.3125 -13.332031 2.03125 -14.335938 2.03125 -15.515625 C 2.03125 -17.316406 2.738281 -18.753906 4.15625 -19.828125 C 5.582031 -20.910156 7.460938 -21.453125 9.796875 -21.453125 Z M 9.796875 -21.453125 "/></g></g></g><g fill="#ffffff" fill-opacity="1"><g transform="translate(401.897661, 238.082248)"><g><path d="M 17.34375 -18.078125 L 10.59375 -18.078125 L 10.59375 0 L 7 0 L 7 -18.078125 L 0.28125 -18.078125 L 0.28125 -21.296875 L 17.34375 -21.296875 Z M 17.34375 -18.078125 "/></g></g></g><g clip-path="url(#ae77dc0951)"><path fill="#f7ff9b" d="M 417.3125 178.59375 L 388.058594 178.59375 C 385.699219 178.59375 383.578125 177.53125 382.160156 175.761719 L 300.535156 69.953125 C 297.585938 66.179688 291.6875 66.179688 288.738281 69.953125 L 207.230469 175.761719 C 205.8125 177.53125 203.691406 178.59375 201.332031 178.59375 L 172.078125 178.59375 C 166.0625 178.59375 162.523438 171.871094 166.179688 167.035156 L 288.855469 3.898438 C 291.804688 0.00390625 297.820312 0.00390625 300.769531 3.898438 L 423.328125 167.035156 C 426.867188 171.871094 423.445312 178.59375 417.3125 178.59375 Z M 417.3125 178.59375 " fill-opacity="1" fill-rule="nonzero"/></g><g clip-path="url(#1ab55363ef)"><path fill="#f7ff9b" d="M 324.125 178.59375 L 265.265625 178.59375 C 258.894531 178.59375 255.472656 170.808594 259.601562 165.738281 L 288.972656 129.40625 C 291.921875 125.75 297.347656 125.75 300.417969 129.40625 L 329.789062 165.738281 C 333.917969 170.808594 330.496094 178.59375 324.125 178.59375 Z M 324.125 178.59375 " fill-opacity="1" fill-rule="nonzero"/></g><g clip-path="url(#53bf0b2ddc)"><path fill="#f7ff9b" d="M 308.484375 20.164062 L 279.230469 20.164062 C 276.871094 20.164062 274.746094 21.226562 273.332031 22.996094 L 191.703125 128.804688 C 188.753906 132.578125 182.859375 132.578125 179.910156 128.804688 L 98.398438 22.996094 C 96.984375 21.226562 94.859375 20.164062 92.5 20.164062 L 63.246094 20.164062 C 57.230469 20.164062 53.691406 26.886719 57.351562 31.722656 L 180.027344 194.859375 C 182.976562 198.753906 188.992188 198.753906 191.941406 194.859375 L 314.5 31.722656 C 318.039062 26.886719 314.617188 20.164062 308.484375 20.164062 Z M 308.484375 20.164062 " fill-opacity="1" fill-rule="nonzero"/></g><g clip-path="url(#b226830792)"><path fill="#f7ff9b" d="M 215.296875 20.164062 L 156.433594 20.164062 C 150.066406 20.164062 146.644531 27.949219 150.773438 33.019531 L 180.144531 69.351562 C 183.09375 73.007812 188.519531 73.007812 191.585938 69.351562 L 220.957031 33.019531 C 225.085938 27.949219 221.667969 20.164062 215.296875 20.164062 Z M 215.296875 20.164062 " fill-opacity="1" fill-rule="nonzero"/></g></svg>