<svg xmlns="http://www.w3.org/2000/svg" xmlns:xlink="http://www.w3.org/1999/xlink" width="624" zoomAndPan="magnify" viewBox="0 0 468 264.749989" height="353" preserveAspectRatio="xMidYMid meet" version="1.0"><defs><g/></defs><g fill="#f7ff9b" fill-opacity="1"><g transform="translate(47.161804, 196.619877)"><g><path d="M 113.3125 0 L 85.140625 0 L 85.140625 -43.046875 L 39.25 -43.046875 L 39.25 0 L 11.078125 0 L 11.078125 -110.78125 L 39.25 -110.78125 L 39.25 -65.203125 L 85.140625 -65.203125 L 85.140625 -110.78125 L 113.3125 -110.78125 Z M 113.3125 0 "/></g></g></g><g fill="#f7ff9b" fill-opacity="1"><g transform="translate(171.545239, 196.619877)"><g><path d="M 113.3125 0 L 85.140625 0 L 85.140625 -43.046875 L 39.25 -43.046875 L 39.25 0 L 11.078125 0 L 11.078125 -110.78125 L 39.25 -110.78125 L 39.25 -65.203125 L 85.140625 -65.203125 L 85.140625 -110.78125 L 113.3125 -110.78125 Z M 113.3125 0 "/></g></g></g><g fill="#f7ff9b" fill-opacity="1"><g transform="translate(295.928675, 196.619877)"><g><path d="M 113.3125 0 L 88.46875 0 L 37.5 -68.203125 L 37.5 0 L 11.078125 0 L 11.078125 -110.78125 L 35.921875 -110.78125 L 87.03125 -42.40625 L 87.03125 -110.78125 L 113.3125 -110.78125 Z M 113.3125 0 "/></g></g></g><g fill="#f7ff9b" fill-opacity="1"><g transform="translate(54.308303, 237.328219)"><g><path d="M 12.3125 0 L 8.59375 0 L 0.09375 -21.328125 L 3.953125 -21.328125 L 10.546875 -3.984375 L 17.1875 -21.328125 L 20.9375 -21.328125 Z M 12.3125 0 "/></g></g></g><g fill="#f7ff9b" fill-opacity="1"><g transform="translate(87.115149, 237.328219)"><g><path d="M 8.78125 -21.484375 C 10.8125 -21.484375 12.445312 -20.992188 13.6875 -20.015625 C 14.9375 -19.046875 15.5625 -17.75 15.5625 -16.125 C 15.5625 -14.25 14.265625 -11.910156 11.671875 -9.109375 L 6.125 -3.234375 L 16.546875 -3.234375 L 16.546875 0 L 1.375 0 L 1.375 -2.625 L 9.234375 -11.0625 C 10.960938 -12.820312 11.828125 -14.332031 11.828125 -15.59375 C 11.828125 -16.445312 11.507812 -17.117188 10.875 -17.609375 C 10.25 -18.097656 9.375 -18.34375 8.25 -18.34375 C 6.320312 -18.34375 4.382812 -17.445312 2.4375 -15.65625 L 1 -18.4375 C 3.5 -20.46875 6.09375 -21.484375 8.78125 -21.484375 Z M 8.78125 -21.484375 "/></g></g></g><g fill="#f7ff9b" fill-opacity="1"><g transform="translate(116.815317, 237.328219)"><g><path d="M 1.953125 -3.1875 C 2.316406 -3.5625 2.769531 -3.75 3.3125 -3.75 C 3.863281 -3.75 4.320312 -3.5625 4.6875 -3.1875 C 5.050781 -2.8125 5.234375 -2.335938 5.234375 -1.765625 C 5.234375 -1.179688 5.050781 -0.691406 4.6875 -0.296875 C 4.320312 0.0859375 3.863281 0.28125 3.3125 0.28125 C 2.769531 0.28125 2.316406 0.0859375 1.953125 -0.296875 C 1.585938 -0.691406 1.40625 -1.179688 1.40625 -1.765625 C 1.40625 -2.335938 1.585938 -2.8125 1.953125 -3.1875 Z M 1.953125 -3.1875 "/></g></g></g><g fill="#f7ff9b" fill-opacity="1"><g transform="translate(135.246169, 237.328219)"><g><path d="M 10.546875 -21.421875 C 13.453125 -21.421875 15.6875 -20.488281 17.25 -18.625 C 18.8125 -16.769531 19.59375 -14.113281 19.59375 -10.65625 C 19.59375 -7.207031 18.8125 -4.550781 17.25 -2.6875 C 15.6875 -0.832031 13.453125 0.09375 10.546875 0.09375 C 7.617188 0.09375 5.375 -0.832031 3.8125 -2.6875 C 2.25 -4.550781 1.46875 -7.207031 1.46875 -10.65625 C 1.46875 -14.113281 2.25 -16.769531 3.8125 -18.625 C 5.375 -20.488281 7.617188 -21.421875 10.546875 -21.421875 Z M 10.546875 -18.578125 C 6.953125 -18.578125 5.15625 -15.9375 5.15625 -10.65625 C 5.15625 -5.375 6.953125 -2.734375 10.546875 -2.734375 C 14.117188 -2.734375 15.90625 -5.375 15.90625 -10.65625 C 15.90625 -15.9375 14.117188 -18.578125 10.546875 -18.578125 Z M 10.546875 -18.578125 "/></g></g></g><g fill="#f7ff9b" fill-opacity="1"><g transform="translate(168.08347, 237.328219)"><g/></g></g><g fill="#f7ff9b" fill-opacity="1"><g transform="translate(187.732618, 237.328219)"><g><path d="M 24.734375 0 L 21.046875 0 L 16 -16.640625 L 10.875 0 L 7.15625 0 L 0.09375 -21.328125 L 3.953125 -21.328125 L 9.140625 -3.984375 L 14.296875 -21.296875 L 17.828125 -21.328125 L 23 -3.984375 L 28.15625 -21.328125 L 31.875 -21.328125 Z M 24.734375 0 "/></g></g></g><g fill="#f7ff9b" fill-opacity="1"><g transform="translate(231.07779, 237.328219)"><g><path d="M 16.578125 -4.8125 L 5.8125 -4.8125 L 3.78125 0 L 0.03125 0 L 9.4375 -21.328125 L 13.125 -21.328125 L 22.453125 0 L 18.609375 0 Z M 15.203125 -8.015625 L 11.1875 -17.484375 L 7.15625 -8.015625 Z M 15.203125 -8.015625 "/></g></g></g><g fill="#f7ff9b" fill-opacity="1"><g transform="translate(265.346599, 237.328219)"><g><path d="M 6.390625 0 L 2.796875 0 L 2.796875 -21.328125 L 6.390625 -21.328125 Z M 6.390625 0 "/></g></g></g><g fill="#f7ff9b" fill-opacity="1"><g transform="translate(286.335894, 237.328219)"><g><path d="M 17.359375 -18.09375 L 10.609375 -18.09375 L 10.609375 0 L 7 0 L 7 -18.09375 L 0.28125 -18.09375 L 0.28125 -21.328125 L 17.359375 -21.328125 Z M 17.359375 -18.09375 "/></g></g></g><g fill="#f7ff9b" fill-opacity="1"><g transform="translate(315.761934, 237.328219)"><g><path d="M 6.390625 -3.265625 L 15.625 -3.265625 L 15.625 0 L 2.796875 0 L 2.796875 -21.328125 L 6.390625 -21.328125 Z M 6.390625 -3.265625 "/></g></g></g><g fill="#f7ff9b" fill-opacity="1"><g transform="translate(343.81739, 237.328219)"><g><path d="M 6.390625 0 L 2.796875 0 L 2.796875 -21.328125 L 6.390625 -21.328125 Z M 6.390625 0 "/></g></g></g><g fill="#f7ff9b" fill-opacity="1"><g transform="translate(364.806685, 237.328219)"><g><path d="M 9.8125 -21.484375 C 12.570312 -21.484375 15.0625 -20.75 17.28125 -19.28125 L 15.78125 -16.125 C 13.601562 -17.4375 11.519531 -18.09375 9.53125 -18.09375 C 8.457031 -18.09375 7.609375 -17.898438 6.984375 -17.515625 C 6.367188 -17.128906 6.0625 -16.582031 6.0625 -15.875 C 6.0625 -15.164062 6.34375 -14.5625 6.90625 -14.0625 C 7.476562 -13.5625 8.191406 -13.191406 9.046875 -12.953125 C 9.898438 -12.722656 10.820312 -12.429688 11.8125 -12.078125 C 12.8125 -11.722656 13.738281 -11.347656 14.59375 -10.953125 C 15.445312 -10.554688 16.148438 -9.9375 16.703125 -9.09375 C 17.265625 -8.25 17.546875 -7.226562 17.546875 -6.03125 C 17.546875 -4.164062 16.800781 -2.671875 15.3125 -1.546875 C 13.820312 -0.429688 11.882812 0.125 9.5 0.125 C 7.875 0.125 6.300781 -0.175781 4.78125 -0.78125 C 3.257812 -1.394531 1.929688 -2.222656 0.796875 -3.265625 L 2.34375 -6.375 C 3.414062 -5.375 4.597656 -4.601562 5.890625 -4.0625 C 7.179688 -3.53125 8.40625 -3.265625 9.5625 -3.265625 C 10.820312 -3.265625 11.800781 -3.488281 12.5 -3.9375 C 13.207031 -4.394531 13.5625 -5.03125 13.5625 -5.84375 C 13.5625 -6.582031 13.273438 -7.195312 12.703125 -7.6875 C 12.140625 -8.1875 11.429688 -8.550781 10.578125 -8.78125 C 9.722656 -9.019531 8.796875 -9.304688 7.796875 -9.640625 C 6.804688 -9.972656 5.882812 -10.328125 5.03125 -10.703125 C 4.175781 -11.078125 3.460938 -11.679688 2.890625 -12.515625 C 2.328125 -13.347656 2.046875 -14.351562 2.046875 -15.53125 C 2.046875 -17.34375 2.753906 -18.785156 4.171875 -19.859375 C 5.597656 -20.941406 7.476562 -21.484375 9.8125 -21.484375 Z M 9.8125 -21.484375 "/></g></g></g><g fill="#f7ff9b" fill-opacity="1"><g transform="translate(395.542415, 237.328219)"><g><path d="M 17.359375 -18.09375 L 10.609375 -18.09375 L 10.609375 0 L 7 0 L 7 -18.09375 L 0.28125 -18.09375 L 0.28125 -21.328125 L 17.359375 -21.328125 Z M 17.359375 -18.09375 "/></g></g></g></svg>