<svg xmlns="http://www.w3.org/2000/svg" xmlns:xlink="http://www.w3.org/1999/xlink" width="637" zoomAndPan="magnify" viewBox="0 0 477.75 149.999998" height="200" preserveAspectRatio="xMidYMid meet" version="1.0"><defs><g/><clipPath id="45be6f2161"><path d="M 202 0.0390625 L 327 0.0390625 L 327 85.003906 L 202 85.003906 Z M 202 0.0390625 " clip-rule="nonzero"/></clipPath><clipPath id="dd83505eec"><path d="M 246 60 L 282 60 L 282 85.003906 L 246 85.003906 Z M 246 60 " clip-rule="nonzero"/></clipPath><clipPath id="eff0a4d3d1"><path d="M 150 9.628906 L 275 9.628906 L 275 94.75 L 150 94.75 Z M 150 9.628906 " clip-rule="nonzero"/></clipPath><clipPath id="b2687f7b06"><path d="M 195 9.628906 L 231 9.628906 L 231 35 L 195 35 Z M 195 9.628906 " clip-rule="nonzero"/></clipPath></defs><g fill="#f1f5f9" fill-opacity="1"><g transform="translate(60.251092, 135.987623)"><g><path d="M 12.234375 0 L 8.53125 0 L 0.09375 -21.1875 L 3.9375 -21.1875 L 10.46875 -3.96875 L 17.0625 -21.1875 L 20.796875 -21.1875 Z M 12.234375 0 "/></g></g></g><g fill="#f1f5f9" fill-opacity="1"><g transform="translate(92.843059, 135.987623)"><g><path d="M 8.71875 -21.34375 C 10.738281 -21.34375 12.367188 -20.859375 13.609375 -19.890625 C 14.847656 -18.921875 15.46875 -17.628906 15.46875 -16.015625 C 15.46875 -14.148438 14.175781 -11.828125 11.59375 -9.046875 L 6.078125 -3.203125 L 16.4375 -3.203125 L 16.4375 0 L 1.359375 0 L 1.359375 -2.609375 L 9.171875 -10.984375 C 10.890625 -12.742188 11.75 -14.25 11.75 -15.5 C 11.75 -16.34375 11.429688 -17.003906 10.796875 -17.484375 C 10.171875 -17.972656 9.304688 -18.21875 8.203125 -18.21875 C 6.285156 -18.21875 4.359375 -17.332031 2.421875 -15.5625 L 1 -18.3125 C 3.476562 -20.332031 6.050781 -21.34375 8.71875 -21.34375 Z M 8.71875 -21.34375 "/></g></g></g><g fill="#f1f5f9" fill-opacity="1"><g transform="translate(122.348817, 135.987623)"><g><path d="M 1.9375 -3.15625 C 2.300781 -3.53125 2.753906 -3.71875 3.296875 -3.71875 C 3.835938 -3.71875 4.289062 -3.53125 4.65625 -3.15625 C 5.019531 -2.789062 5.203125 -2.320312 5.203125 -1.75 C 5.203125 -1.164062 5.019531 -0.679688 4.65625 -0.296875 C 4.289062 0.078125 3.835938 0.265625 3.296875 0.265625 C 2.753906 0.265625 2.300781 0.078125 1.9375 -0.296875 C 1.570312 -0.679688 1.390625 -1.164062 1.390625 -1.75 C 1.390625 -2.320312 1.570312 -2.789062 1.9375 -3.15625 Z M 1.9375 -3.15625 "/></g></g></g><g fill="#f1f5f9" fill-opacity="1"><g transform="translate(140.659509, 135.987623)"><g><path d="M 10.46875 -21.28125 C 13.351562 -21.28125 15.570312 -20.351562 17.125 -18.5 C 18.675781 -16.65625 19.453125 -14.019531 19.453125 -10.59375 C 19.453125 -7.164062 18.675781 -4.523438 17.125 -2.671875 C 15.570312 -0.828125 13.351562 0.09375 10.46875 0.09375 C 7.5625 0.09375 5.332031 -0.828125 3.78125 -2.671875 C 2.226562 -4.523438 1.453125 -7.164062 1.453125 -10.59375 C 1.453125 -14.019531 2.226562 -16.65625 3.78125 -18.5 C 5.332031 -20.351562 7.5625 -21.28125 10.46875 -21.28125 Z M 10.46875 -18.46875 C 6.894531 -18.46875 5.109375 -15.84375 5.109375 -10.59375 C 5.109375 -5.34375 6.894531 -2.71875 10.46875 -2.71875 C 14.019531 -2.71875 15.796875 -5.34375 15.796875 -10.59375 C 15.796875 -15.84375 14.019531 -18.46875 10.46875 -18.46875 Z M 10.46875 -18.46875 "/></g></g></g><g fill="#f1f5f9" fill-opacity="1"><g transform="translate(173.281735, 135.987623)"><g/></g></g><g fill="#f1f5f9" fill-opacity="1"><g transform="translate(192.802709, 135.987623)"><g><path d="M 24.578125 0 L 20.90625 0 L 15.890625 -16.53125 L 10.8125 0 L 7.109375 0 L 0.09375 -21.1875 L 3.9375 -21.1875 L 9.078125 -3.96875 L 14.1875 -21.15625 L 17.703125 -21.1875 L 22.84375 -3.96875 L 27.96875 -21.1875 L 31.65625 -21.1875 Z M 24.578125 0 "/></g></g></g><g fill="#f1f5f9" fill-opacity="1"><g transform="translate(235.863574, 135.987623)"><g><path d="M 16.46875 -4.78125 L 5.78125 -4.78125 L 3.75 0 L 0.03125 0 L 9.375 -21.1875 L 13.046875 -21.1875 L 22.3125 0 L 18.5 0 Z M 15.109375 -7.953125 L 11.109375 -17.375 L 7.109375 -7.953125 Z M 15.109375 -7.953125 "/></g></g></g><g fill="#f1f5f9" fill-opacity="1"><g transform="translate(269.907882, 135.987623)"><g><path d="M 6.359375 0 L 2.78125 0 L 2.78125 -21.1875 L 6.359375 -21.1875 Z M 6.359375 0 "/></g></g></g><g fill="#f1f5f9" fill-opacity="1"><g transform="translate(290.760161, 135.987623)"><g><path d="M 17.25 -17.984375 L 10.53125 -17.984375 L 10.53125 0 L 6.96875 0 L 6.96875 -17.984375 L 0.265625 -17.984375 L 0.265625 -21.1875 L 17.25 -21.1875 Z M 17.25 -17.984375 "/></g></g></g><g fill="#f1f5f9" fill-opacity="1"><g transform="translate(319.993621, 135.987623)"><g><path d="M 6.359375 -3.234375 L 15.53125 -3.234375 L 15.53125 0 L 2.78125 0 L 2.78125 -21.1875 L 6.359375 -21.1875 Z M 6.359375 -3.234375 "/></g></g></g><g fill="#f1f5f9" fill-opacity="1"><g transform="translate(347.865493, 135.987623)"><g><path d="M 6.359375 0 L 2.78125 0 L 2.78125 -21.1875 L 6.359375 -21.1875 Z M 6.359375 0 "/></g></g></g><g fill="#f1f5f9" fill-opacity="1"><g transform="translate(368.717773, 135.987623)"><g><path d="M 9.75 -21.34375 C 12.488281 -21.34375 14.957031 -20.613281 17.15625 -19.15625 L 15.671875 -16.015625 C 13.515625 -17.328125 11.445312 -17.984375 9.46875 -17.984375 C 8.40625 -17.984375 7.5625 -17.789062 6.9375 -17.40625 C 6.320312 -17.019531 6.015625 -16.472656 6.015625 -15.765625 C 6.015625 -15.054688 6.296875 -14.453125 6.859375 -13.953125 C 7.429688 -13.460938 8.140625 -13.101562 8.984375 -12.875 C 9.835938 -12.644531 10.753906 -12.351562 11.734375 -12 C 12.722656 -11.644531 13.640625 -11.269531 14.484375 -10.875 C 15.335938 -10.488281 16.039062 -9.875 16.59375 -9.03125 C 17.15625 -8.195312 17.4375 -7.1875 17.4375 -6 C 17.4375 -4.132812 16.691406 -2.644531 15.203125 -1.53125 C 13.722656 -0.425781 11.800781 0.125 9.4375 0.125 C 7.820312 0.125 6.257812 -0.175781 4.75 -0.78125 C 3.238281 -1.382812 1.914062 -2.203125 0.78125 -3.234375 L 2.328125 -6.328125 C 3.398438 -5.335938 4.578125 -4.570312 5.859375 -4.03125 C 7.140625 -3.5 8.351562 -3.234375 9.5 -3.234375 C 10.75 -3.234375 11.722656 -3.457031 12.421875 -3.90625 C 13.117188 -4.363281 13.46875 -5 13.46875 -5.8125 C 13.46875 -6.539062 13.179688 -7.148438 12.609375 -7.640625 C 12.046875 -8.140625 11.34375 -8.503906 10.5 -8.734375 C 9.65625 -8.960938 8.738281 -9.242188 7.75 -9.578125 C 6.757812 -9.910156 5.835938 -10.265625 4.984375 -10.640625 C 4.140625 -11.015625 3.4375 -11.613281 2.875 -12.4375 C 2.3125 -13.269531 2.03125 -14.269531 2.03125 -15.4375 C 2.03125 -17.226562 2.734375 -18.660156 4.140625 -19.734375 C 5.554688 -20.804688 7.425781 -21.34375 9.75 -21.34375 Z M 9.75 -21.34375 "/></g></g></g><g fill="#f1f5f9" fill-opacity="1"><g transform="translate(399.252256, 135.987623)"><g><path d="M 17.25 -17.984375 L 10.53125 -17.984375 L 10.53125 0 L 6.96875 0 L 6.96875 -17.984375 L 0.265625 -17.984375 L 0.265625 -21.1875 L 17.25 -21.1875 Z M 17.25 -17.984375 "/></g></g></g><g clip-path="url(#45be6f2161)"><path fill="#f7ff9b" d="M 322.746094 85.003906 L 308.828125 85.003906 C 307.707031 85.003906 306.695312 84.496094 306.023438 83.65625 L 267.1875 33.316406 C 265.785156 31.519531 262.976562 31.519531 261.574219 33.316406 L 222.796875 83.65625 C 222.121094 84.496094 221.113281 85.003906 219.992188 85.003906 L 206.074219 85.003906 C 203.210938 85.003906 201.527344 81.804688 203.265625 79.503906 L 261.632812 1.886719 C 263.035156 0.0351562 265.898438 0.0351562 267.300781 1.886719 L 325.609375 79.503906 C 327.292969 81.804688 325.664062 85.003906 322.746094 85.003906 Z M 322.746094 85.003906 " fill-opacity="1" fill-rule="nonzero"/></g><g clip-path="url(#dd83505eec)"><path fill="#f7ff9b" d="M 278.410156 85.003906 L 250.40625 85.003906 C 247.378906 85.003906 245.75 81.296875 247.714844 78.886719 L 261.6875 61.601562 C 263.089844 59.859375 265.671875 59.859375 267.132812 61.601562 L 281.105469 78.886719 C 283.070312 81.296875 281.441406 85.003906 278.410156 85.003906 Z M 278.410156 85.003906 " fill-opacity="1" fill-rule="nonzero"/></g><g clip-path="url(#eff0a4d3d1)"><path fill="#f7ff9b" d="M 270.96875 9.628906 L 257.050781 9.628906 C 255.929688 9.628906 254.917969 10.132812 254.246094 10.972656 L 215.410156 61.3125 C 214.007812 63.109375 211.203125 63.109375 209.796875 61.3125 L 171.019531 10.972656 C 170.347656 10.132812 169.335938 9.628906 168.214844 9.628906 L 154.296875 9.628906 C 151.433594 9.628906 149.75 12.824219 151.488281 15.125 L 209.855469 92.742188 C 211.257812 94.59375 214.121094 94.59375 215.523438 92.742188 L 273.832031 15.125 C 275.515625 12.824219 273.886719 9.628906 270.96875 9.628906 Z M 270.96875 9.628906 " fill-opacity="1" fill-rule="nonzero"/></g><g clip-path="url(#b2687f7b06)"><path fill="#f7ff9b" d="M 226.632812 9.628906 L 198.628906 9.628906 C 195.601562 9.628906 193.972656 13.332031 195.9375 15.742188 L 209.910156 33.027344 C 211.3125 34.769531 213.894531 34.769531 215.355469 33.027344 L 229.328125 15.742188 C 231.292969 13.332031 229.664062 9.628906 226.632812 9.628906 Z M 226.632812 9.628906 " fill-opacity="1" fill-rule="nonzero"/></g></svg>