<svg xmlns="http://www.w3.org/2000/svg" xmlns:xlink="http://www.w3.org/1999/xlink" width="646" zoomAndPan="magnify" viewBox="0 0 484.5 254.250006" height="339" preserveAspectRatio="xMidYMid meet" version="1.0"><defs><g/><clipPath id="8d07c9cbbe"><path d="M 166 0.00390625 L 427 0.00390625 L 427 178.59375 L 166 178.59375 Z M 166 0.00390625 " clip-rule="nonzero"/></clipPath><clipPath id="212fb5ed12"><path d="M 259 126 L 333 126 L 333 178.59375 L 259 178.59375 Z M 259 126 " clip-rule="nonzero"/></clipPath><clipPath id="7c8d7e3b15"><path d="M 57 20.164062 L 318 20.164062 L 318 198 L 57 198 Z M 57 20.164062 " clip-rule="nonzero"/></clipPath><clipPath id="d41f23f8a3"><path d="M 150 20.164062 L 225 20.164062 L 225 73 L 150 73 Z M 150 20.164062 " clip-rule="nonzero"/></clipPath></defs><g fill="#f7ff9b" fill-opacity="1"><g transform="translate(61.377318, 238.141459)"><g><path d="M 12.359375 0 L 8.625 0 L 0.09375 -21.421875 L 3.984375 -21.421875 L 10.59375 -4.015625 L 17.265625 -21.421875 L 21.03125 -21.421875 Z M 12.359375 0 "/></g></g></g><g fill="#f7ff9b" fill-opacity="1"><g transform="translate(94.338156, 238.141459)"><g><path d="M 8.8125 -21.578125 C 10.851562 -21.578125 12.5 -21.085938 13.75 -20.109375 C 15.007812 -19.128906 15.640625 -17.820312 15.640625 -16.1875 C 15.640625 -14.3125 14.332031 -11.96875 11.71875 -9.15625 L 6.15625 -3.25 L 16.625 -3.25 L 16.625 0 L 1.375 0 L 1.375 -2.625 L 9.28125 -11.109375 C 11.007812 -12.890625 11.875 -14.410156 11.875 -15.671875 C 11.875 -16.523438 11.554688 -17.195312 10.921875 -17.6875 C 10.296875 -18.175781 9.421875 -18.421875 8.296875 -18.421875 C 6.359375 -18.421875 4.410156 -17.523438 2.453125 -15.734375 L 1.015625 -18.515625 C 3.523438 -20.554688 6.125 -21.578125 8.8125 -21.578125 Z M 8.8125 -21.578125 "/></g></g></g><g fill="#f7ff9b" fill-opacity="1"><g transform="translate(124.177735, 238.141459)"><g><path d="M 1.953125 -3.1875 C 2.328125 -3.570312 2.785156 -3.765625 3.328125 -3.765625 C 3.878906 -3.765625 4.335938 -3.570312 4.703125 -3.1875 C 5.078125 -2.8125 5.265625 -2.34375 5.265625 -1.78125 C 5.265625 -1.1875 5.078125 -0.691406 4.703125 -0.296875 C 4.335938 0.0859375 3.878906 0.28125 3.328125 0.28125 C 2.785156 0.28125 2.328125 0.0859375 1.953125 -0.296875 C 1.585938 -0.691406 1.40625 -1.1875 1.40625 -1.78125 C 1.40625 -2.34375 1.585938 -2.8125 1.953125 -3.1875 Z M 1.953125 -3.1875 "/></g></g></g><g fill="#f7ff9b" fill-opacity="1"><g transform="translate(142.695101, 238.141459)"><g><path d="M 10.59375 -21.515625 C 13.507812 -21.515625 15.753906 -20.582031 17.328125 -18.71875 C 18.898438 -16.851562 19.6875 -14.1875 19.6875 -10.71875 C 19.6875 -7.25 18.898438 -4.578125 17.328125 -2.703125 C 15.753906 -0.835938 13.507812 0.09375 10.59375 0.09375 C 7.65625 0.09375 5.398438 -0.835938 3.828125 -2.703125 C 2.253906 -4.578125 1.46875 -7.25 1.46875 -10.71875 C 1.46875 -14.1875 2.253906 -16.851562 3.828125 -18.71875 C 5.398438 -20.582031 7.65625 -21.515625 10.59375 -21.515625 Z M 10.59375 -18.671875 C 6.976562 -18.671875 5.171875 -16.015625 5.171875 -10.703125 C 5.171875 -5.398438 6.976562 -2.75 10.59375 -2.75 C 14.1875 -2.75 15.984375 -5.398438 15.984375 -10.703125 C 15.984375 -16.015625 14.1875 -18.671875 10.59375 -18.671875 Z M 10.59375 -18.671875 "/></g></g></g><g fill="#f7ff9b" fill-opacity="1"><g transform="translate(175.686538, 238.141459)"><g/></g></g><g fill="#f7ff9b" fill-opacity="1"><g transform="translate(195.427919, 238.141459)"><g><path d="M 24.859375 0 L 21.15625 0 L 16.0625 -16.71875 L 10.921875 0 L 7.1875 0 L 0.09375 -21.421875 L 3.984375 -21.421875 L 9.1875 -4.015625 L 14.359375 -21.390625 L 17.90625 -21.421875 L 23.109375 -4.015625 L 28.28125 -21.421875 L 32.015625 -21.421875 Z M 24.859375 0 "/></g></g></g><g fill="#f7ff9b" fill-opacity="1"><g transform="translate(238.97655, 238.141459)"><g><path d="M 16.65625 -4.84375 L 5.84375 -4.84375 L 3.796875 0 L 0.03125 0 L 9.484375 -21.421875 L 13.1875 -21.421875 L 22.5625 0 L 18.703125 0 Z M 15.28125 -8.046875 L 11.234375 -17.5625 L 7.1875 -8.046875 Z M 15.28125 -8.046875 "/></g></g></g><g fill="#f7ff9b" fill-opacity="1"><g transform="translate(273.406215, 238.141459)"><g><path d="M 6.421875 0 L 2.8125 0 L 2.8125 -21.421875 L 6.421875 -21.421875 Z M 6.421875 0 "/></g></g></g><g fill="#f7ff9b" fill-opacity="1"><g transform="translate(294.494033, 238.141459)"><g><path d="M 17.453125 -18.1875 L 10.65625 -18.1875 L 10.65625 0 L 7.046875 0 L 7.046875 -18.1875 L 0.28125 -18.1875 L 0.28125 -21.421875 L 17.453125 -21.421875 Z M 17.453125 -18.1875 "/></g></g></g><g fill="#f7ff9b" fill-opacity="1"><g transform="translate(324.058196, 238.141459)"><g><path d="M 6.421875 -3.28125 L 15.703125 -3.28125 L 15.703125 0 L 2.8125 0 L 2.8125 -21.421875 L 6.421875 -21.421875 Z M 6.421875 -3.28125 "/></g></g></g><g fill="#f7ff9b" fill-opacity="1"><g transform="translate(352.245343, 238.141459)"><g><path d="M 6.421875 0 L 2.8125 0 L 2.8125 -21.421875 L 6.421875 -21.421875 Z M 6.421875 0 "/></g></g></g><g fill="#f7ff9b" fill-opacity="1"><g transform="translate(373.333161, 238.141459)"><g><path d="M 9.859375 -21.578125 C 12.628906 -21.578125 15.128906 -20.84375 17.359375 -19.375 L 15.859375 -16.1875 C 13.671875 -17.519531 11.578125 -18.1875 9.578125 -18.1875 C 8.492188 -18.1875 7.640625 -17.988281 7.015625 -17.59375 C 6.398438 -17.207031 6.09375 -16.65625 6.09375 -15.9375 C 6.09375 -15.226562 6.378906 -14.625 6.953125 -14.125 C 7.523438 -13.625 8.238281 -13.253906 9.09375 -13.015625 C 9.945312 -12.785156 10.875 -12.488281 11.875 -12.125 C 12.875 -11.769531 13.800781 -11.394531 14.65625 -11 C 15.519531 -10.601562 16.226562 -9.976562 16.78125 -9.125 C 17.34375 -8.28125 17.625 -7.257812 17.625 -6.0625 C 17.625 -4.1875 16.875 -2.6875 15.375 -1.5625 C 13.875 -0.4375 11.929688 0.125 9.546875 0.125 C 7.910156 0.125 6.328125 -0.179688 4.796875 -0.796875 C 3.273438 -1.410156 1.941406 -2.238281 0.796875 -3.28125 L 2.359375 -6.390625 C 3.441406 -5.390625 4.628906 -4.617188 5.921875 -4.078125 C 7.210938 -3.546875 8.441406 -3.28125 9.609375 -3.28125 C 10.878906 -3.28125 11.863281 -3.507812 12.5625 -3.96875 C 13.269531 -4.425781 13.625 -5.0625 13.625 -5.875 C 13.625 -6.613281 13.335938 -7.234375 12.765625 -7.734375 C 12.191406 -8.234375 11.472656 -8.597656 10.609375 -8.828125 C 9.753906 -9.066406 8.828125 -9.351562 7.828125 -9.6875 C 6.835938 -10.019531 5.910156 -10.375 5.046875 -10.75 C 4.191406 -11.132812 3.476562 -11.742188 2.90625 -12.578125 C 2.332031 -13.410156 2.046875 -14.421875 2.046875 -15.609375 C 2.046875 -17.421875 2.757812 -18.867188 4.1875 -19.953125 C 5.625 -21.035156 7.515625 -21.578125 9.859375 -21.578125 Z M 9.859375 -21.578125 "/></g></g></g><g fill="#f7ff9b" fill-opacity="1"><g transform="translate(404.213162, 238.141459)"><g><path d="M 17.453125 -18.1875 L 10.65625 -18.1875 L 10.65625 0 L 7.046875 0 L 7.046875 -18.1875 L 0.28125 -18.1875 L 0.28125 -21.421875 L 17.453125 -21.421875 Z M 17.453125 -18.1875 "/></g></g></g><g clip-path="url(#8d07c9cbbe)"><path fill="#f7ff9b" d="M 418.699219 178.59375 L 389.445312 178.59375 C 387.085938 178.59375 384.960938 177.53125 383.546875 175.761719 L 301.917969 69.953125 C 298.96875 66.179688 293.074219 66.179688 290.125 69.953125 L 208.613281 175.761719 C 207.199219 177.53125 205.074219 178.59375 202.714844 178.59375 L 173.460938 178.59375 C 167.445312 178.59375 163.90625 171.871094 167.566406 167.035156 L 290.242188 3.898438 C 293.191406 0.00390625 299.207031 0.00390625 302.15625 3.898438 L 424.714844 167.035156 C 428.253906 171.871094 424.832031 178.59375 418.699219 178.59375 Z M 418.699219 178.59375 " fill-opacity="1" fill-rule="nonzero"/></g><g clip-path="url(#212fb5ed12)"><path fill="#f7ff9b" d="M 325.511719 178.59375 L 266.648438 178.59375 C 260.28125 178.59375 256.859375 170.808594 260.988281 165.738281 L 290.359375 129.40625 C 293.308594 125.75 298.734375 125.75 301.800781 129.40625 L 331.171875 165.738281 C 335.300781 170.808594 331.882812 178.59375 325.511719 178.59375 Z M 325.511719 178.59375 " fill-opacity="1" fill-rule="nonzero"/></g><g clip-path="url(#7c8d7e3b15)"><path fill="#f7ff9b" d="M 309.867188 20.164062 L 280.613281 20.164062 C 278.253906 20.164062 276.132812 21.226562 274.71875 22.996094 L 193.089844 128.804688 C 190.140625 132.578125 184.242188 132.578125 181.292969 128.804688 L 99.785156 22.996094 C 98.367188 21.226562 96.246094 20.164062 93.886719 20.164062 L 64.632812 20.164062 C 58.617188 20.164062 55.078125 26.886719 58.734375 31.722656 L 181.410156 194.859375 C 184.359375 198.753906 190.375 198.753906 193.324219 194.859375 L 315.882812 31.722656 C 319.421875 26.886719 316.003906 20.164062 309.867188 20.164062 Z M 309.867188 20.164062 " fill-opacity="1" fill-rule="nonzero"/></g><g clip-path="url(#d41f23f8a3)"><path fill="#f7ff9b" d="M 216.679688 20.164062 L 157.820312 20.164062 C 151.449219 20.164062 148.03125 27.949219 152.15625 33.019531 L 181.53125 69.351562 C 184.480469 73.007812 189.90625 73.007812 192.972656 69.351562 L 222.34375 33.019531 C 226.472656 27.949219 223.050781 20.164062 216.679688 20.164062 Z M 216.679688 20.164062 " fill-opacity="1" fill-rule="nonzero"/></g></svg>