<svg xmlns="http://www.w3.org/2000/svg" xmlns:xlink="http://www.w3.org/1999/xlink" width="1286" zoomAndPan="magnify" viewBox="0 0 964.5 375.749991" height="501" preserveAspectRatio="xMidYMid meet" version="1.0"><defs><g/><clipPath id="88629cbea9"><path d="M 106 108.011719 L 356 108.011719 L 356 278.820312 L 106 278.820312 Z M 106 108.011719 " clip-rule="nonzero"/></clipPath><clipPath id="05ded13638"><path d="M 195 229 L 267 229 L 267 278.820312 L 195 278.820312 Z M 195 229 " clip-rule="nonzero"/></clipPath><clipPath id="bf9129b422"><path d="M 2 128.222656 L 252 128.222656 L 252 299 L 2 299 Z M 2 128.222656 " clip-rule="nonzero"/></clipPath><clipPath id="77a87f7fb0"><path d="M 91 128.222656 L 163 128.222656 L 163 178 L 91 178 Z M 91 128.222656 " clip-rule="nonzero"/></clipPath></defs><g fill="#f1f5f9" fill-opacity="1"><g transform="translate(379.095118, 278.599816)"><g><path d="M 161.109375 0 L 121.0625 0 L 121.0625 -61.203125 L 55.796875 -61.203125 L 55.796875 0 L 15.75 0 L 15.75 -157.515625 L 55.796875 -157.515625 L 55.796875 -92.703125 L 121.0625 -92.703125 L 121.0625 -157.515625 L 161.109375 -157.515625 Z M 161.109375 0 "/></g></g></g><g fill="#f1f5f9" fill-opacity="1"><g transform="translate(555.947037, 278.599816)"><g><path d="M 161.109375 0 L 121.0625 0 L 121.0625 -61.203125 L 55.796875 -61.203125 L 55.796875 0 L 15.75 0 L 15.75 -157.515625 L 55.796875 -157.515625 L 55.796875 -92.703125 L 121.0625 -92.703125 L 121.0625 -157.515625 L 161.109375 -157.515625 Z M 161.109375 0 "/></g></g></g><g fill="#f1f5f9" fill-opacity="1"><g transform="translate(732.798956, 278.599816)"><g><path d="M 161.109375 0 L 125.78125 0 L 53.328125 -96.984375 L 53.328125 0 L 15.75 0 L 15.75 -157.515625 L 51.078125 -157.515625 L 123.765625 -60.296875 L 123.765625 -157.515625 L 161.109375 -157.515625 Z M 161.109375 0 "/></g></g></g><g clip-path="url(#88629cbea9)"><path fill="#f1f5f9" d="M 348.277344 278.820312 L 320.296875 278.820312 C 318.039062 278.820312 316.007812 277.804688 314.65625 276.113281 L 236.585938 174.914062 C 233.765625 171.304688 228.125 171.304688 225.304688 174.914062 L 147.34375 276.113281 C 145.992188 277.804688 143.960938 278.820312 141.703125 278.820312 L 113.726562 278.820312 C 107.972656 278.820312 104.585938 272.390625 108.082031 267.765625 L 225.414062 111.734375 C 228.234375 108.011719 233.988281 108.011719 236.808594 111.734375 L 354.03125 267.765625 C 357.414062 272.390625 354.140625 278.820312 348.277344 278.820312 Z M 348.277344 278.820312 " fill-opacity="1" fill-rule="nonzero"/></g><g clip-path="url(#05ded13638)"><path fill="#f1f5f9" d="M 259.148438 278.820312 L 202.851562 278.820312 C 196.757812 278.820312 193.488281 271.375 197.4375 266.523438 L 225.527344 231.773438 C 228.347656 228.277344 233.539062 228.277344 236.472656 231.773438 L 264.5625 266.523438 C 268.511719 271.375 265.242188 278.820312 259.148438 278.820312 Z M 259.148438 278.820312 " fill-opacity="1" fill-rule="nonzero"/></g><g clip-path="url(#bf9129b422)"><path fill="#f1f5f9" d="M 244.121094 128.222656 L 216.140625 128.222656 C 213.886719 128.222656 211.855469 129.238281 210.5 130.929688 L 132.429688 232.128906 C 129.609375 235.742188 123.96875 235.742188 121.148438 232.128906 L 43.191406 130.929688 C 41.835938 129.238281 39.804688 128.222656 37.550781 128.222656 L 9.570312 128.222656 C 3.816406 128.222656 0.433594 134.65625 3.929688 139.28125 L 121.261719 295.308594 C 124.082031 299.03125 129.835938 299.03125 132.65625 295.308594 L 249.875 139.28125 C 253.257812 134.65625 249.988281 128.222656 244.121094 128.222656 Z M 244.121094 128.222656 " fill-opacity="1" fill-rule="nonzero"/></g><g clip-path="url(#77a87f7fb0)"><path fill="#f1f5f9" d="M 154.996094 128.222656 L 98.699219 128.222656 C 92.605469 128.222656 89.332031 135.667969 93.28125 140.519531 L 121.375 175.269531 C 124.195312 178.765625 129.382812 178.765625 132.316406 175.269531 L 160.410156 140.519531 C 164.359375 135.667969 161.085938 128.222656 154.996094 128.222656 Z M 154.996094 128.222656 " fill-opacity="1" fill-rule="nonzero"/></g></svg>