<svg xmlns="http://www.w3.org/2000/svg" xmlns:xlink="http://www.w3.org/1999/xlink" width="600" zoomAndPan="magnify" viewBox="0 0 450 264.749989" height="353" preserveAspectRatio="xMidYMid meet" version="1.0"><defs><g/></defs><g fill="#ffffff" fill-opacity="1"><g transform="translate(38.123605, 196.619877)"><g><path d="M 113.3125 0 L 85.140625 0 L 85.140625 -43.046875 L 39.25 -43.046875 L 39.25 0 L 11.078125 0 L 11.078125 -110.78125 L 39.25 -110.78125 L 39.25 -65.203125 L 85.140625 -65.203125 L 85.140625 -110.78125 L 113.3125 -110.78125 Z M 113.3125 0 "/></g></g></g><g fill="#ffffff" fill-opacity="1"><g transform="translate(162.50704, 196.619877)"><g><path d="M 113.3125 0 L 85.140625 0 L 85.140625 -43.046875 L 39.25 -43.046875 L 39.25 0 L 11.078125 0 L 11.078125 -110.78125 L 39.25 -110.78125 L 39.25 -65.203125 L 85.140625 -65.203125 L 85.140625 -110.78125 L 113.3125 -110.78125 Z M 113.3125 0 "/></g></g></g><g fill="#ffffff" fill-opacity="1"><g transform="translate(286.890475, 196.619877)"><g><path d="M 113.3125 0 L 88.46875 0 L 37.5 -68.203125 L 37.5 0 L 11.078125 0 L 11.078125 -110.78125 L 35.921875 -110.78125 L 87.03125 -42.40625 L 87.03125 -110.78125 L 113.3125 -110.78125 Z M 113.3125 0 "/></g></g></g><g fill="#ffffff" fill-opacity="1"><g transform="translate(48.226959, 235.551806)"><g><path d="M 8.109375 -17.765625 C 10.398438 -17.765625 12.460938 -17.160156 14.296875 -15.953125 L 13.0625 -13.328125 C 11.257812 -14.421875 9.535156 -14.96875 7.890625 -14.96875 C 6.992188 -14.96875 6.289062 -14.804688 5.78125 -14.484375 C 5.269531 -14.171875 5.015625 -13.71875 5.015625 -13.125 C 5.015625 -12.539062 5.25 -12.039062 5.71875 -11.625 C 6.1875 -11.21875 6.773438 -10.914062 7.484375 -10.71875 C 8.191406 -10.53125 8.957031 -10.285156 9.78125 -9.984375 C 10.601562 -9.691406 11.363281 -9.378906 12.0625 -9.046875 C 12.769531 -8.722656 13.351562 -8.210938 13.8125 -7.515625 C 14.28125 -6.828125 14.515625 -5.984375 14.515625 -4.984375 C 14.515625 -3.441406 13.894531 -2.207031 12.65625 -1.28125 C 11.425781 -0.363281 9.828125 0.09375 7.859375 0.09375 C 6.515625 0.09375 5.210938 -0.15625 3.953125 -0.65625 C 2.691406 -1.15625 1.59375 -1.835938 0.65625 -2.703125 L 1.9375 -5.265625 C 2.832031 -4.441406 3.8125 -3.804688 4.875 -3.359375 C 5.945312 -2.921875 6.957031 -2.703125 7.90625 -2.703125 C 8.945312 -2.703125 9.757812 -2.890625 10.34375 -3.265625 C 10.925781 -3.640625 11.21875 -4.164062 11.21875 -4.84375 C 11.21875 -5.445312 10.976562 -5.953125 10.5 -6.359375 C 10.03125 -6.773438 9.441406 -7.078125 8.734375 -7.265625 C 8.035156 -7.460938 7.273438 -7.695312 6.453125 -7.96875 C 5.628906 -8.25 4.863281 -8.546875 4.15625 -8.859375 C 3.445312 -9.171875 2.859375 -9.671875 2.390625 -10.359375 C 1.921875 -11.046875 1.6875 -11.878906 1.6875 -12.859375 C 1.6875 -14.347656 2.273438 -15.535156 3.453125 -16.421875 C 4.628906 -17.316406 6.179688 -17.765625 8.109375 -17.765625 Z M 8.109375 -17.765625 "/></g></g></g><g fill="#ffffff" fill-opacity="1"><g transform="translate(73.659516, 235.551806)"><g><path d="M 14.921875 -14.96875 L 5.296875 -14.96875 L 5.296875 -10.203125 L 13.90625 -10.203125 L 13.90625 -7.53125 L 5.296875 -7.53125 L 5.296875 -2.671875 L 15.21875 -2.671875 L 15.21875 0 L 2.3125 0 L 2.3125 -17.640625 L 14.921875 -17.640625 Z M 14.921875 -14.96875 "/></g></g></g><g fill="#ffffff" fill-opacity="1"><g transform="translate(99.948946, 235.551806)"><g><path d="M 13.515625 0 L 10.28125 -5.34375 C 10.113281 -5.320312 9.84375 -5.3125 9.46875 -5.3125 L 5.296875 -5.3125 L 5.296875 0 L 2.3125 0 L 2.3125 -17.640625 L 9.46875 -17.640625 C 11.726562 -17.640625 13.476562 -17.113281 14.71875 -16.0625 C 15.957031 -15.007812 16.578125 -13.53125 16.578125 -11.625 C 16.578125 -10.207031 16.257812 -9.007812 15.625 -8.03125 C 15 -7.0625 14.097656 -6.347656 12.921875 -5.890625 L 16.890625 0 Z M 5.296875 -7.984375 L 9.46875 -7.984375 C 12.332031 -7.984375 13.765625 -9.171875 13.765625 -11.546875 C 13.765625 -13.828125 12.332031 -14.96875 9.46875 -14.96875 L 5.296875 -14.96875 Z M 5.296875 -7.984375 "/></g></g></g><g fill="#ffffff" fill-opacity="1"><g transform="translate(127.926936, 235.551806)"><g><path d="M 10.1875 0 L 7.109375 0 L 0.078125 -17.640625 L 3.28125 -17.640625 L 8.71875 -3.296875 L 14.21875 -17.640625 L 17.3125 -17.640625 Z M 10.1875 0 "/></g></g></g><g fill="#ffffff" fill-opacity="1"><g transform="translate(155.073249, 235.551806)"><g><path d="M 14.921875 -14.96875 L 5.296875 -14.96875 L 5.296875 -10.203125 L 13.90625 -10.203125 L 13.90625 -7.53125 L 5.296875 -7.53125 L 5.296875 -2.671875 L 15.21875 -2.671875 L 15.21875 0 L 2.3125 0 L 2.3125 -17.640625 L 14.921875 -17.640625 Z M 14.921875 -14.96875 "/></g></g></g><g fill="#ffffff" fill-opacity="1"><g transform="translate(181.362674, 235.551806)"><g><path d="M 13.515625 0 L 10.28125 -5.34375 C 10.113281 -5.320312 9.84375 -5.3125 9.46875 -5.3125 L 5.296875 -5.3125 L 5.296875 0 L 2.3125 0 L 2.3125 -17.640625 L 9.46875 -17.640625 C 11.726562 -17.640625 13.476562 -17.113281 14.71875 -16.0625 C 15.957031 -15.007812 16.578125 -13.53125 16.578125 -11.625 C 16.578125 -10.207031 16.257812 -9.007812 15.625 -8.03125 C 15 -7.0625 14.097656 -6.347656 12.921875 -5.890625 L 16.890625 0 Z M 5.296875 -7.984375 L 9.46875 -7.984375 C 12.332031 -7.984375 13.765625 -9.171875 13.765625 -11.546875 C 13.765625 -13.828125 12.332031 -14.96875 9.46875 -14.96875 L 5.296875 -14.96875 Z M 5.296875 -7.984375 "/></g></g></g><g fill="#ffffff" fill-opacity="1"><g transform="translate(209.340657, 235.551806)"><g/></g></g><g fill="#ffffff" fill-opacity="1"><g transform="translate(225.59952, 235.551806)"><g><path d="M 17.609375 0 L 14.640625 0 L 14.640625 -7.3125 L 5.296875 -7.3125 L 5.296875 0 L 2.3125 0 L 2.3125 -17.640625 L 5.296875 -17.640625 L 5.296875 -9.984375 L 14.640625 -9.984375 L 14.640625 -17.640625 L 17.609375 -17.640625 Z M 17.609375 0 "/></g></g></g><g fill="#ffffff" fill-opacity="1"><g transform="translate(255.291279, 235.551806)"><g><path d="M 3.546875 -15.15625 C 5.347656 -16.863281 7.566406 -17.71875 10.203125 -17.71875 C 12.847656 -17.71875 15.066406 -16.863281 16.859375 -15.15625 C 18.660156 -13.457031 19.5625 -11.347656 19.5625 -8.828125 C 19.5625 -6.304688 18.660156 -4.179688 16.859375 -2.453125 C 15.066406 -0.734375 12.847656 0.125 10.203125 0.125 C 7.566406 0.125 5.347656 -0.734375 3.546875 -2.453125 C 1.753906 -4.179688 0.859375 -6.304688 0.859375 -8.828125 C 0.859375 -11.347656 1.753906 -13.457031 3.546875 -15.15625 Z M 10.234375 -15.046875 C 8.484375 -15.046875 6.984375 -14.441406 5.734375 -13.234375 C 4.492188 -12.035156 3.875 -10.5625 3.875 -8.8125 C 3.875 -7.070312 4.5 -5.59375 5.75 -4.375 C 7.007812 -3.15625 8.503906 -2.546875 10.234375 -2.546875 C 11.960938 -2.546875 13.441406 -3.15625 14.671875 -4.375 C 15.898438 -5.59375 16.515625 -7.070312 16.515625 -8.8125 C 16.515625 -10.5625 15.898438 -12.035156 14.671875 -13.234375 C 13.441406 -14.441406 11.960938 -15.046875 10.234375 -15.046875 Z M 10.234375 -15.046875 "/></g></g></g><g fill="#ffffff" fill-opacity="1"><g transform="translate(285.461875, 235.551806)"><g><path d="M 8.109375 -17.765625 C 10.398438 -17.765625 12.460938 -17.160156 14.296875 -15.953125 L 13.0625 -13.328125 C 11.257812 -14.421875 9.535156 -14.96875 7.890625 -14.96875 C 6.992188 -14.96875 6.289062 -14.804688 5.78125 -14.484375 C 5.269531 -14.171875 5.015625 -13.71875 5.015625 -13.125 C 5.015625 -12.539062 5.25 -12.039062 5.71875 -11.625 C 6.1875 -11.21875 6.773438 -10.914062 7.484375 -10.71875 C 8.191406 -10.53125 8.957031 -10.285156 9.78125 -9.984375 C 10.601562 -9.691406 11.363281 -9.378906 12.0625 -9.046875 C 12.769531 -8.722656 13.351562 -8.210938 13.8125 -7.515625 C 14.28125 -6.828125 14.515625 -5.984375 14.515625 -4.984375 C 14.515625 -3.441406 13.894531 -2.207031 12.65625 -1.28125 C 11.425781 -0.363281 9.828125 0.09375 7.859375 0.09375 C 6.515625 0.09375 5.210938 -0.15625 3.953125 -0.65625 C 2.691406 -1.15625 1.59375 -1.835938 0.65625 -2.703125 L 1.9375 -5.265625 C 2.832031 -4.441406 3.8125 -3.804688 4.875 -3.359375 C 5.945312 -2.921875 6.957031 -2.703125 7.90625 -2.703125 C 8.945312 -2.703125 9.757812 -2.890625 10.34375 -3.265625 C 10.925781 -3.640625 11.21875 -4.164062 11.21875 -4.84375 C 11.21875 -5.445312 10.976562 -5.953125 10.5 -6.359375 C 10.03125 -6.773438 9.441406 -7.078125 8.734375 -7.265625 C 8.035156 -7.460938 7.273438 -7.695312 6.453125 -7.96875 C 5.628906 -8.25 4.863281 -8.546875 4.15625 -8.859375 C 3.445312 -9.171875 2.859375 -9.671875 2.390625 -10.359375 C 1.921875 -11.046875 1.6875 -11.878906 1.6875 -12.859375 C 1.6875 -14.347656 2.273438 -15.535156 3.453125 -16.421875 C 4.628906 -17.316406 6.179688 -17.765625 8.109375 -17.765625 Z M 8.109375 -17.765625 "/></g></g></g><g fill="#ffffff" fill-opacity="1"><g transform="translate(310.894429, 235.551806)"><g><path d="M 14.359375 -14.96875 L 8.765625 -14.96875 L 8.765625 0 L 5.796875 0 L 5.796875 -14.96875 L 0.234375 -14.96875 L 0.234375 -17.640625 L 14.359375 -17.640625 Z M 14.359375 -14.96875 "/></g></g></g><g fill="#ffffff" fill-opacity="1"><g transform="translate(335.243268, 235.551806)"><g><path d="M 5.296875 0 L 2.3125 0 L 2.3125 -17.640625 L 5.296875 -17.640625 Z M 5.296875 0 "/></g></g></g><g fill="#ffffff" fill-opacity="1"><g transform="translate(352.611065, 235.551806)"><g><path d="M 17.609375 0 L 14.6875 0 L 5.296875 -12.65625 L 5.296875 0 L 2.3125 0 L 2.3125 -17.640625 L 5.25 -17.640625 L 14.6875 -4.96875 L 14.6875 -17.640625 L 17.609375 -17.640625 Z M 17.609375 0 "/></g></g></g><g fill="#ffffff" fill-opacity="1"><g transform="translate(382.328043, 235.551806)"><g><path d="M 14.390625 -8.671875 L 16.984375 -8.671875 L 16.984375 -2.171875 C 16.078125 -1.484375 15.003906 -0.925781 13.765625 -0.5 C 12.535156 -0.0820312 11.320312 0.125 10.125 0.125 C 7.519531 0.125 5.320312 -0.734375 3.53125 -2.453125 C 1.75 -4.179688 0.859375 -6.304688 0.859375 -8.828125 C 0.859375 -11.347656 1.765625 -13.457031 3.578125 -15.15625 C 5.390625 -16.863281 7.632812 -17.71875 10.3125 -17.71875 C 11.550781 -17.71875 12.769531 -17.492188 13.96875 -17.046875 C 15.175781 -16.597656 16.21875 -16 17.09375 -15.25 L 15.40625 -13.0625 C 13.957031 -14.40625 12.257812 -15.078125 10.3125 -15.078125 C 8.507812 -15.078125 6.984375 -14.46875 5.734375 -13.25 C 4.492188 -12.039062 3.875 -10.566406 3.875 -8.828125 C 3.875 -7.054688 4.5 -5.566406 5.75 -4.359375 C 7.007812 -3.148438 8.535156 -2.546875 10.328125 -2.546875 C 11.691406 -2.546875 13.046875 -2.945312 14.390625 -3.75 Z M 14.390625 -8.671875 "/></g></g></g></svg>