<svg xmlns="http://www.w3.org/2000/svg" xmlns:xlink="http://www.w3.org/1999/xlink" width="516" zoomAndPan="magnify" viewBox="0 0 386.88 245.999995" height="328" preserveAspectRatio="xMidYMid meet" version="1.0"><defs><g/><clipPath id="89d70889a9"><path d="M 117 1 L 379 1 L 379 179.101562 L 117 179.101562 Z M 117 1 " clip-rule="nonzero"/></clipPath><clipPath id="cf4e33bf19"><path d="M 210 127 L 285 127 L 285 179.101562 L 210 179.101562 Z M 210 127 " clip-rule="nonzero"/></clipPath><clipPath id="6246f4d2ca"><path d="M 8 20.253906 L 270 20.253906 L 270 199 L 8 199 Z M 8 20.253906 " clip-rule="nonzero"/></clipPath><clipPath id="f17de9e218"><path d="M 101 20.253906 L 176 20.253906 L 176 73 L 101 73 Z M 101 20.253906 " clip-rule="nonzero"/></clipPath></defs><g fill="#ffffff" fill-opacity="1"><g transform="translate(21.553444, 233.698889)"><g><path d="M 7.890625 -17.28125 C 10.117188 -17.28125 12.125 -16.691406 13.90625 -15.515625 L 12.703125 -12.96875 C 10.953125 -14.03125 9.273438 -14.5625 7.671875 -14.5625 C 6.804688 -14.5625 6.125 -14.40625 5.625 -14.09375 C 5.125 -13.78125 4.875 -13.335938 4.875 -12.765625 C 4.875 -12.203125 5.101562 -11.71875 5.5625 -11.3125 C 6.019531 -10.914062 6.59375 -10.625 7.28125 -10.4375 C 7.96875 -10.25 8.710938 -10.007812 9.515625 -9.71875 C 10.316406 -9.4375 11.054688 -9.132812 11.734375 -8.8125 C 12.421875 -8.488281 12.988281 -7.988281 13.4375 -7.3125 C 13.894531 -6.632812 14.125 -5.816406 14.125 -4.859375 C 14.125 -3.347656 13.519531 -2.144531 12.3125 -1.25 C 11.113281 -0.351562 9.5625 0.09375 7.65625 0.09375 C 6.34375 0.09375 5.070312 -0.148438 3.84375 -0.640625 C 2.625 -1.128906 1.554688 -1.789062 0.640625 -2.625 L 1.890625 -5.125 C 2.753906 -4.320312 3.703125 -3.703125 4.734375 -3.265625 C 5.773438 -2.835938 6.765625 -2.625 7.703125 -2.625 C 8.710938 -2.625 9.5 -2.804688 10.0625 -3.171875 C 10.625 -3.535156 10.90625 -4.046875 10.90625 -4.703125 C 10.90625 -5.296875 10.675781 -5.789062 10.21875 -6.1875 C 9.757812 -6.59375 9.1875 -6.890625 8.5 -7.078125 C 7.820312 -7.265625 7.082031 -7.488281 6.28125 -7.75 C 5.476562 -8.019531 4.734375 -8.304688 4.046875 -8.609375 C 3.359375 -8.921875 2.785156 -9.410156 2.328125 -10.078125 C 1.867188 -10.742188 1.640625 -11.550781 1.640625 -12.5 C 1.640625 -13.957031 2.210938 -15.117188 3.359375 -15.984375 C 4.503906 -16.847656 6.015625 -17.28125 7.890625 -17.28125 Z M 7.890625 -17.28125 "/></g></g></g><g fill="#ffffff" fill-opacity="1"><g transform="translate(46.287914, 233.698889)"><g><path d="M 14.515625 -14.5625 L 5.140625 -14.5625 L 5.140625 -9.921875 L 13.53125 -9.921875 L 13.53125 -7.328125 L 5.140625 -7.328125 L 5.140625 -2.59375 L 14.8125 -2.59375 L 14.8125 0 L 2.25 0 L 2.25 -17.15625 L 14.515625 -17.15625 Z M 14.515625 -14.5625 "/></g></g></g><g fill="#ffffff" fill-opacity="1"><g transform="translate(71.855737, 233.698889)"><g><path d="M 13.140625 0 L 10 -5.203125 C 9.832031 -5.179688 9.570312 -5.171875 9.21875 -5.171875 L 5.140625 -5.171875 L 5.140625 0 L 2.25 0 L 2.25 -17.15625 L 9.21875 -17.15625 C 11.40625 -17.15625 13.101562 -16.644531 14.3125 -15.625 C 15.519531 -14.601562 16.125 -13.160156 16.125 -11.296875 C 16.125 -9.929688 15.816406 -8.773438 15.203125 -7.828125 C 14.597656 -6.878906 13.722656 -6.179688 12.578125 -5.734375 L 16.421875 0 Z M 5.140625 -7.765625 L 9.21875 -7.765625 C 12 -7.765625 13.390625 -8.921875 13.390625 -11.234375 C 13.390625 -13.453125 12 -14.5625 9.21875 -14.5625 L 5.140625 -14.5625 Z M 5.140625 -7.765625 "/></g></g></g><g fill="#ffffff" fill-opacity="1"><g transform="translate(99.065772, 233.698889)"><g><path d="M 9.90625 0 L 6.90625 0 L 0.078125 -17.15625 L 3.1875 -17.15625 L 8.484375 -3.21875 L 13.828125 -17.15625 L 16.84375 -17.15625 Z M 9.90625 0 "/></g></g></g><g fill="#ffffff" fill-opacity="1"><g transform="translate(125.466957, 233.698889)"><g><path d="M 14.515625 -14.5625 L 5.140625 -14.5625 L 5.140625 -9.921875 L 13.53125 -9.921875 L 13.53125 -7.328125 L 5.140625 -7.328125 L 5.140625 -2.59375 L 14.8125 -2.59375 L 14.8125 0 L 2.25 0 L 2.25 -17.15625 L 14.515625 -17.15625 Z M 14.515625 -14.5625 "/></g></g></g><g fill="#ffffff" fill-opacity="1"><g transform="translate(151.034775, 233.698889)"><g><path d="M 13.140625 0 L 10 -5.203125 C 9.832031 -5.179688 9.570312 -5.171875 9.21875 -5.171875 L 5.140625 -5.171875 L 5.140625 0 L 2.25 0 L 2.25 -17.15625 L 9.21875 -17.15625 C 11.40625 -17.15625 13.101562 -16.644531 14.3125 -15.625 C 15.519531 -14.601562 16.125 -13.160156 16.125 -11.296875 C 16.125 -9.929688 15.816406 -8.773438 15.203125 -7.828125 C 14.597656 -6.878906 13.722656 -6.179688 12.578125 -5.734375 L 16.421875 0 Z M 5.140625 -7.765625 L 9.21875 -7.765625 C 12 -7.765625 13.390625 -8.921875 13.390625 -11.234375 C 13.390625 -13.453125 12 -14.5625 9.21875 -14.5625 L 5.140625 -14.5625 Z M 5.140625 -7.765625 "/></g></g></g><g fill="#ffffff" fill-opacity="1"><g transform="translate(178.244803, 233.698889)"><g/></g></g><g fill="#ffffff" fill-opacity="1"><g transform="translate(194.057384, 233.698889)"><g><path d="M 17.140625 0 L 14.25 0 L 14.25 -7.109375 L 5.140625 -7.109375 L 5.140625 0 L 2.25 0 L 2.25 -17.15625 L 5.140625 -17.15625 L 5.140625 -9.703125 L 14.25 -9.703125 L 14.25 -17.15625 L 17.140625 -17.15625 Z M 17.140625 0 "/></g></g></g><g fill="#ffffff" fill-opacity="1"><g transform="translate(222.934147, 233.698889)"><g><path d="M 3.453125 -14.75 C 5.203125 -16.40625 7.359375 -17.234375 9.921875 -17.234375 C 12.492188 -17.234375 14.65625 -16.40625 16.40625 -14.75 C 18.15625 -13.09375 19.03125 -11.035156 19.03125 -8.578125 C 19.03125 -6.128906 18.15625 -4.066406 16.40625 -2.390625 C 14.65625 -0.710938 12.492188 0.125 9.921875 0.125 C 7.359375 0.125 5.203125 -0.710938 3.453125 -2.390625 C 1.703125 -4.066406 0.828125 -6.128906 0.828125 -8.578125 C 0.828125 -11.035156 1.703125 -13.09375 3.453125 -14.75 Z M 9.953125 -14.640625 C 8.253906 -14.640625 6.800781 -14.050781 5.59375 -12.875 C 4.382812 -11.707031 3.78125 -10.273438 3.78125 -8.578125 C 3.78125 -6.878906 4.382812 -5.4375 5.59375 -4.25 C 6.8125 -3.0625 8.265625 -2.46875 9.953125 -2.46875 C 11.640625 -2.46875 13.078125 -3.0625 14.265625 -4.25 C 15.460938 -5.4375 16.0625 -6.878906 16.0625 -8.578125 C 16.0625 -10.273438 15.460938 -11.707031 14.265625 -12.875 C 13.078125 -14.050781 11.640625 -14.640625 9.953125 -14.640625 Z M 9.953125 -14.640625 "/></g></g></g><g fill="#ffffff" fill-opacity="1"><g transform="translate(252.276604, 233.698889)"><g><path d="M 7.890625 -17.28125 C 10.117188 -17.28125 12.125 -16.691406 13.90625 -15.515625 L 12.703125 -12.96875 C 10.953125 -14.03125 9.273438 -14.5625 7.671875 -14.5625 C 6.804688 -14.5625 6.125 -14.40625 5.625 -14.09375 C 5.125 -13.78125 4.875 -13.335938 4.875 -12.765625 C 4.875 -12.203125 5.101562 -11.71875 5.5625 -11.3125 C 6.019531 -10.914062 6.59375 -10.625 7.28125 -10.4375 C 7.96875 -10.25 8.710938 -10.007812 9.515625 -9.71875 C 10.316406 -9.4375 11.054688 -9.132812 11.734375 -8.8125 C 12.421875 -8.488281 12.988281 -7.988281 13.4375 -7.3125 C 13.894531 -6.632812 14.125 -5.816406 14.125 -4.859375 C 14.125 -3.347656 13.519531 -2.144531 12.3125 -1.25 C 11.113281 -0.351562 9.5625 0.09375 7.65625 0.09375 C 6.34375 0.09375 5.070312 -0.148438 3.84375 -0.640625 C 2.625 -1.128906 1.554688 -1.789062 0.640625 -2.625 L 1.890625 -5.125 C 2.753906 -4.320312 3.703125 -3.703125 4.734375 -3.265625 C 5.773438 -2.835938 6.765625 -2.625 7.703125 -2.625 C 8.710938 -2.625 9.5 -2.804688 10.0625 -3.171875 C 10.625 -3.535156 10.90625 -4.046875 10.90625 -4.703125 C 10.90625 -5.296875 10.675781 -5.789062 10.21875 -6.1875 C 9.757812 -6.59375 9.1875 -6.890625 8.5 -7.078125 C 7.820312 -7.265625 7.082031 -7.488281 6.28125 -7.75 C 5.476562 -8.019531 4.734375 -8.304688 4.046875 -8.609375 C 3.359375 -8.921875 2.785156 -9.410156 2.328125 -10.078125 C 1.867188 -10.742188 1.640625 -11.550781 1.640625 -12.5 C 1.640625 -13.957031 2.210938 -15.117188 3.359375 -15.984375 C 4.503906 -16.847656 6.015625 -17.28125 7.890625 -17.28125 Z M 7.890625 -17.28125 "/></g></g></g><g fill="#ffffff" fill-opacity="1"><g transform="translate(277.011071, 233.698889)"><g><path d="M 13.96875 -14.5625 L 8.53125 -14.5625 L 8.53125 0 L 5.640625 0 L 5.640625 -14.5625 L 0.21875 -14.5625 L 0.21875 -17.15625 L 13.96875 -17.15625 Z M 13.96875 -14.5625 "/></g></g></g><g fill="#ffffff" fill-opacity="1"><g transform="translate(300.691569, 233.698889)"><g><path d="M 5.140625 0 L 2.25 0 L 2.25 -17.15625 L 5.140625 -17.15625 Z M 5.140625 0 "/></g></g></g><g fill="#ffffff" fill-opacity="1"><g transform="translate(317.582645, 233.698889)"><g><path d="M 17.140625 0 L 14.296875 0 L 5.140625 -12.3125 L 5.140625 0 L 2.25 0 L 2.25 -17.15625 L 5.09375 -17.15625 L 14.296875 -4.828125 L 14.296875 -17.15625 L 17.140625 -17.15625 Z M 17.140625 0 "/></g></g></g><g fill="#ffffff" fill-opacity="1"><g transform="translate(346.483935, 233.698889)"><g><path d="M 14 -8.4375 L 16.53125 -8.4375 L 16.53125 -2.109375 C 15.644531 -1.441406 14.597656 -0.898438 13.390625 -0.484375 C 12.191406 -0.078125 11.015625 0.125 9.859375 0.125 C 7.328125 0.125 5.1875 -0.710938 3.4375 -2.390625 C 1.695312 -4.066406 0.828125 -6.128906 0.828125 -8.578125 C 0.828125 -11.035156 1.707031 -13.09375 3.46875 -14.75 C 5.238281 -16.40625 7.425781 -17.234375 10.03125 -17.234375 C 11.238281 -17.234375 12.425781 -17.015625 13.59375 -16.578125 C 14.757812 -16.148438 15.769531 -15.566406 16.625 -14.828125 L 14.984375 -12.703125 C 13.578125 -14.003906 11.925781 -14.65625 10.03125 -14.65625 C 8.28125 -14.65625 6.800781 -14.066406 5.59375 -12.890625 C 4.382812 -11.710938 3.78125 -10.273438 3.78125 -8.578125 C 3.78125 -6.859375 4.382812 -5.410156 5.59375 -4.234375 C 6.8125 -3.054688 8.296875 -2.46875 10.046875 -2.46875 C 11.367188 -2.46875 12.6875 -2.863281 14 -3.65625 Z M 14 -8.4375 "/></g></g></g><g clip-path="url(#89d70889a9)"><path fill="#ffffff" d="M 370.699219 179.101562 L 341.367188 179.101562 C 339.003906 179.101562 336.875 178.039062 335.453125 176.265625 L 253.613281 70.175781 C 250.65625 66.390625 244.742188 66.390625 241.785156 70.175781 L 160.058594 176.265625 C 158.640625 178.039062 156.511719 179.101562 154.148438 179.101562 L 124.816406 179.101562 C 118.785156 179.101562 115.234375 172.363281 118.902344 167.511719 L 241.902344 3.945312 C 244.859375 0.0429688 250.890625 0.0429688 253.847656 3.945312 L 376.730469 167.511719 C 380.277344 172.363281 376.847656 179.101562 370.699219 179.101562 Z M 370.699219 179.101562 " fill-opacity="1" fill-rule="nonzero"/></g><g clip-path="url(#cf4e33bf19)"><path fill="#ffffff" d="M 277.265625 179.101562 L 218.25 179.101562 C 211.863281 179.101562 208.433594 171.296875 212.570312 166.210938 L 242.019531 129.785156 C 244.976562 126.117188 250.417969 126.117188 253.492188 129.785156 L 282.941406 166.210938 C 287.082031 171.296875 283.652344 179.101562 277.265625 179.101562 Z M 277.265625 179.101562 " fill-opacity="1" fill-rule="nonzero"/></g><g clip-path="url(#6246f4d2ca)"><path fill="#ffffff" d="M 261.582031 20.253906 L 232.25 20.253906 C 229.886719 20.253906 227.757812 21.320312 226.335938 23.09375 L 144.496094 129.179688 C 141.539062 132.964844 135.625 132.964844 132.667969 129.179688 L 50.945312 23.09375 C 49.523438 21.320312 47.394531 20.253906 45.03125 20.253906 L 15.699219 20.253906 C 9.667969 20.253906 6.121094 26.996094 9.785156 31.84375 L 132.785156 195.414062 C 135.742188 199.316406 141.773438 199.316406 144.730469 195.414062 L 267.613281 31.84375 C 271.160156 26.996094 267.730469 20.253906 261.582031 20.253906 Z M 261.582031 20.253906 " fill-opacity="1" fill-rule="nonzero"/></g><g clip-path="url(#f17de9e218)"><path fill="#ffffff" d="M 168.148438 20.253906 L 109.132812 20.253906 C 102.746094 20.253906 99.316406 28.0625 103.457031 33.144531 L 132.90625 69.574219 C 135.859375 73.238281 141.300781 73.238281 144.375 69.574219 L 173.824219 33.144531 C 177.964844 28.0625 174.535156 20.253906 168.148438 20.253906 Z M 168.148438 20.253906 " fill-opacity="1" fill-rule="nonzero"/></g></svg>